<svg xmlns="http://www.w3.org/2000/svg" width="122" height="122" viewBox="0 0 122 122"><path d="M119.765,4.5H11.235A6.739,6.739,0,0,0,4.5,11.235V119.765a6.739,6.739,0,0,0,6.735,6.735H65.5V78.208H50.917V60.417H65.5V47.264c0-15.758,10.929-24.336,25-24.336,6.735,0,13.979.508,15.663.731V40.115H94.952c-7.657,0-9.118,3.622-9.118,8.959V60.417H104.07l-2.383,17.792H85.833V126.5h33.931a6.739,6.739,0,0,0,6.735-6.735V11.235A6.739,6.739,0,0,0,119.765,4.5Z" transform="translate(-4.5 -4.5)" fill="#32302f"/></svg>