<svg xmlns="http://www.w3.org/2000/svg" width="122" height="122" viewBox="0 0 122 122"><path d="M113.286,2.25H8.687A8.752,8.752,0,0,0,0,11.046V115.454a8.752,8.752,0,0,0,8.687,8.8h104.6a8.775,8.775,0,0,0,8.714-8.8V11.046A8.775,8.775,0,0,0,113.286,2.25ZM36.872,106.821H18.79V48.6H36.9v58.222ZM27.831,40.647A10.484,10.484,0,1,1,38.316,30.163,10.489,10.489,0,0,1,27.831,40.647Zm76.822,66.174H86.571V78.5c0-6.754-.136-15.441-9.4-15.441-9.422,0-10.866,7.353-10.866,14.95v28.812H48.228V48.6H65.575v7.952h.245c2.424-4.575,8.333-9.4,17.129-9.4,18.3,0,21.7,12.064,21.7,27.75Z" transform="translate(0 -2.25)" fill="#32302f"/></svg>