<svg xmlns="http://www.w3.org/2000/svg" width="119.937" height="119.937" viewBox="0 0 119.937 119.937"><path d="M24.148,54.776a36.7,36.7,0,0,1,20.266-25.62A236.157,236.157,0,0,1,57.987,50.3a136.381,136.381,0,0,1-33.839,4.471ZM84.223,34.911A36.457,36.457,0,0,0,51.4,26.719,196.923,196.923,0,0,1,65.055,48.136C78.066,43.237,83.554,35.848,84.223,34.911ZM37.507,91.132A36.519,36.519,0,0,0,74.264,95.95a151.044,151.044,0,0,0-7.817-27.735C51.7,73.248,41.335,83.314,37.507,91.132Zm26.45-28.967c-.91-2.088-1.928-4.15-2.972-6.211A133.97,133.97,0,0,1,23.4,61.147c0,.375-.027.75-.027,1.124a36.521,36.521,0,0,0,9.4,24.469C38.712,76.595,50.732,65.886,63.957,62.165ZM73.3,66.528A156.444,156.444,0,0,1,80.395,92.6,36.626,36.626,0,0,0,96.083,68.081,53.383,53.383,0,0,0,73.3,66.528ZM67.866,53.571c1.285,2.624,2.222,4.765,3.213,7.175a85.269,85.269,0,0,1,25.487,1.178,36.238,36.238,0,0,0-8.272-22.783C87.516,40.185,81.386,48.029,67.866,53.571ZM119.937,15.1v94.236a12.854,12.854,0,0,1-12.85,12.85H12.85A12.854,12.854,0,0,1,0,109.336V15.1A12.854,12.854,0,0,1,12.85,2.25h94.236A12.854,12.854,0,0,1,119.937,15.1ZM102.8,62.218a42.834,42.834,0,1,0-42.834,42.834A42.891,42.891,0,0,0,102.8,62.218Z" transform="translate(0 -2.25)" fill="#32302f"/></svg>