<svg xmlns="http://www.w3.org/2000/svg" width="122" height="122" viewBox="0 0 122 122"><path d="M108.929,2.25H13.071A13.075,13.075,0,0,0,0,15.321v95.857A13.075,13.075,0,0,0,13.071,124.25h95.857A13.075,13.075,0,0,0,122,111.179V15.321A13.075,13.075,0,0,0,108.929,2.25ZM75.515,106.74c-2.288.408-3.132-1.008-3.132-2.179,0-1.471.054-8.987.054-15.059,0-4.248-1.416-6.944-3.077-8.36,10.076-1.117,20.7-2.505,20.7-19.907,0-4.956-1.77-7.434-4.657-10.621a17.032,17.032,0,0,0-.463-12.254c-3.785-1.171-12.445,4.875-12.445,4.875a42.84,42.84,0,0,0-22.657,0s-8.66-6.046-12.445-4.875a16.9,16.9,0,0,0-.463,12.254c-2.887,3.186-4.248,5.664-4.248,10.621,0,17.32,10.158,18.79,20.233,19.907a9.87,9.87,0,0,0-2.887,6.073c-2.587,1.171-9.2,3.186-13.153-3.785a9.487,9.487,0,0,0-6.944-4.657c-4.412-.054-.3,2.778-.3,2.778,2.941,1.362,5.011,6.59,5.011,6.59C37.281,96.228,49.917,93.5,49.917,93.5c0,3.785.054,9.94.054,11.056,0,1.171-.817,2.587-3.132,2.179A45.179,45.179,0,0,1,16.285,63.631c0-25,19.117-43.98,44.116-43.98s45.26,18.981,45.26,43.98C105.688,83.62,93.488,100.749,75.515,106.74ZM48.8,90.1c-.517.109-1.008-.109-1.062-.463-.054-.408.3-.762.817-.871.517-.054,1.008.163,1.062.517C49.7,89.638,49.345,89.992,48.8,90.1Zm-2.587-.245c0,.354-.408.654-.953.654-.6.054-1.008-.245-1.008-.654,0-.354.408-.654.953-.654C45.723,89.148,46.213,89.447,46.213,89.856Zm-3.731-.3c-.109.354-.654.517-1.117.354-.517-.109-.871-.517-.762-.871s.654-.517,1.117-.408C42.264,88.794,42.618,89.2,42.482,89.556Zm-3.35-1.471c-.245.3-.762.245-1.171-.163-.408-.354-.517-.871-.245-1.117.245-.3.762-.245,1.171.163C39.242,87.323,39.378,87.868,39.133,88.086Zm-2.478-2.478c-.245.163-.708,0-1.008-.408s-.3-.871,0-1.062c.3-.245.762-.054,1.008.354a.8.8,0,0,1,0,1.117Zm-1.77-2.642c-.245.245-.654.109-.953-.163-.3-.354-.354-.762-.109-.953.245-.245.654-.109.953.163C35.075,82.367,35.129,82.775,34.884,82.966ZM33.06,80.951a.513.513,0,0,1-.762.109c-.354-.163-.517-.463-.408-.708a.641.641,0,0,1,.762-.109C33.005,80.433,33.169,80.733,33.06,80.951Z" transform="translate(0 -2.25)" fill="#32302f"/></svg>