<svg xmlns="http://www.w3.org/2000/svg" width="119.937" height="119.937" viewBox="0 0 119.937 119.937"><path d="M119.937,15.1v94.236a12.854,12.854,0,0,1-12.85,12.85H41.335c2.624-4.391,6-10.709,7.335-15.876.8-3.079,4.1-15.635,4.1-15.635,2.142,4.1,8.406,7.55,15.072,7.55,19.838,0,34.107-18.231,34.107-40.88,0-21.712-17.723-37.962-40.532-37.962-28.378,0-43.423,19.035-43.423,39.783,0,9.638,5.14,21.631,13.332,25.46,1.258.589,1.9.321,2.2-.883.214-.91,1.339-5.381,1.82-7.442a1.939,1.939,0,0,0-.455-1.874c-2.7-3.293-4.9-9.343-4.9-14.992,0-14.51,10.976-28.538,29.69-28.538,16.143,0,27.468,11,27.468,26.745,0,17.776-8.968,30.091-20.668,30.091-6.452,0-11.271-5.328-9.745-11.887,1.847-7.817,5.435-16.25,5.435-21.9,0-14.189-20.213-12.235-20.213,6.693a24.022,24.022,0,0,0,1.954,9.772c-8.406,35.553-9.665,36.008-7.924,51.562l.589.214H12.85A12.854,12.854,0,0,1,0,109.336V15.1A12.854,12.854,0,0,1,12.85,2.25h94.236A12.854,12.854,0,0,1,119.937,15.1Z" transform="translate(0 -2.25)" fill="#32302f"/></svg>