<svg xmlns="http://www.w3.org/2000/svg" width="119.963" height="119.936" viewBox="0 0 119.963 119.936"><path d="M59.99,31.456a30.75,30.75,0,1,0,30.75,30.75A30.7,30.7,0,0,0,59.99,31.456Zm0,50.742A19.992,19.992,0,1,1,79.981,62.206,20.028,20.028,0,0,1,59.99,82.2Zm39.18-52A7.172,7.172,0,1,1,92,23.025,7.156,7.156,0,0,1,99.17,30.2Zm20.366,7.279c-.455-9.608-2.649-18.118-9.688-25.13-7.012-7.012-15.522-9.206-25.13-9.688-9.9-.562-39.582-.562-49.484,0-9.581.455-18.091,2.649-25.13,9.661S.9,27.843.416,37.451c-.562,9.9-.562,39.582,0,49.484.455,9.608,2.649,18.118,9.688,25.13s15.522,9.206,25.13,9.688c9.9.562,39.582.562,49.484,0,9.608-.455,18.118-2.649,25.13-9.688,7.012-7.012,9.206-15.522,9.688-25.13.562-9.9.562-39.555,0-49.457ZM106.744,97.559a20.24,20.24,0,0,1-11.4,11.4c-7.895,3.131-26.629,2.409-35.353,2.409s-27.485.7-35.353-2.409a20.24,20.24,0,0,1-11.4-11.4C10.1,89.664,10.827,70.93,10.827,62.206s-.7-27.485,2.409-35.353a20.24,20.24,0,0,1,11.4-11.4c7.895-3.131,26.629-2.409,35.353-2.409s27.485-.7,35.353,2.409a20.24,20.24,0,0,1,11.4,11.4c3.131,7.895,2.409,26.629,2.409,35.353S109.875,89.691,106.744,97.559Z" transform="translate(0.005 -2.238)" fill="#32302f"/></svg>