<svg xmlns="http://www.w3.org/2000/svg" width="890.86" height="824.23" viewBox="0 0 890.86 824.23"><g transform="translate(-965.833 -166.92)"><ellipse cx="340.078" cy="16.898" rx="340.078" ry="16.898" transform="translate(1123.125 957.353)" fill="#2b1010" opacity="0.1"/><ellipse cx="29.28" cy="9.132" rx="29.28" ry="9.132" transform="translate(1179.145 924.091)" fill="#2b1010" opacity="0.1"/><g transform="matrix(0.995, 0.105, -0.105, 0.995, 999.441, 75.099)"><path d="M759.68,647.63h-8.87L685.93,312.7l-8.32,334.93h-9.42L657.65,313.26,594.43,647.63h-9.98l42.97-344.25,1.4-11.19,84.29-9.43,2.62,20.62Z" fill="#22201f"/><rect width="53.65" height="33.27" transform="translate(526.98 215.62)" fill="#22201f"/><path d="M863.05,313.29l32.44-13.1h7.11a3.91,3.91,0,0,1,3.91,3.91v91.36a3.91,3.91,0,0,1-3.91,3.91h-7.11l-32.44-13.51Z" transform="translate(-24.78 -112.22)" fill="#22201f"/><rect width="66.33" height="64.25" transform="translate(771.94 205.23)" fill="#22201f"/><rect width="42.7" height="7.76" transform="translate(656.8 84.55)" fill="#0b0c0b"/><rect width="120.19" height="87.75" transform="translate(608.08 94.6)" fill="#0b0c0b"/><rect width="120.19" height="10.4" transform="translate(608.08 171.96)" opacity="0.1"/><rect width="2.69" height="64.25" transform="translate(770.91 205.23)" opacity="0.1"/><rect width="18.3" height="33.27" transform="translate(562.33 215.62)" opacity="0.1"/><path d="M715.73,303.38H627.42l1.4-11.19,84.29-9.43Z" opacity="0.1"/><rect width="207.94" height="128.09" rx="10.7" transform="translate(563.99 173.62)" fill="#0b0c0b"/><path d="M837.64,201.07h.63v72.57h-.63a5.19,5.19,0,0,1-5.19-5.19V206.26A5.19,5.19,0,0,1,837.64,201.07Z" fill="#0b0c0b"/><path d="M870.71,188h6.73a4.29,4.29,0,0,1,4.29,4.29v90.62a4.29,4.29,0,0,1-4.29,4.29h-6.73Z" fill="#0b0c0b"/><rect width="9.57" height="33.27" transform="translate(526.98 215.62)" opacity="0.1"/><rect width="18.71" height="56.56" rx="7.2" transform="translate(516.17 205.23)" fill="#0b0c0b"/><circle cx="59.89" cy="59.89" r="59.89" transform="translate(548.19 34.71)" fill="#22201f"/><circle cx="44.92" cy="44.92" r="44.92" transform="translate(563.16 49.68)" fill="#d89e50"/><circle cx="43.67" cy="43.67" r="43.67" transform="translate(675.45 52.18)" fill="#22201f"/><circle cx="32.75" cy="32.75" r="32.75" transform="translate(686.37 63.1)" fill="#d89e50"/><circle cx="5.75" cy="5.75" r="5.75" transform="translate(709.98 186.93)" fill="#d89e50"/><circle cx="5.75" cy="5.75" r="5.75" transform="translate(728.27 186.93)" fill="#d89e50" opacity="0.5"/><path d="M686.43,326.75c-8.91-2.78-22.56-2.86-25.08,21-3.73-8.82-6.07-16.33-6.07-16.33l27.36-11.58S684.32,322.52,686.43,326.75Z" transform="translate(-24.78 -112.22)" opacity="0.1"/><path d="M595.28,294.26s-11,12.94-9,20Z" transform="translate(-24.78 -112.22)" opacity="0.1"/><path d="M624,300.6s-16.51,14.66-14.09,16.33Z" transform="translate(-24.78 -112.22)" opacity="0.1"/><path d="M634.28,318.61s-1.67,9.64,1,10Z" transform="translate(-24.78 -112.22)" opacity="0.1"/></g><g transform="matrix(0.996, -0.087, 0.087, 0.996, 968, 306.625)"><path d="M338.5,271.879H70.808A22.352,22.352,0,0,1,48.5,249.572V100.208A22.352,22.352,0,0,1,70.808,77.9H338.5a22.352,22.352,0,0,1,22.308,22.308V249.572A22.352,22.352,0,0,1,338.5,271.879Z" transform="translate(-48.5 -75.96)" fill="#22201f"/><path d="M338.5,271.279H70.808A22.352,22.352,0,0,1,48.5,248.972V99.608A22.352,22.352,0,0,1,70.808,77.3H338.5a22.352,22.352,0,0,1,22.308,22.308V248.972A22.352,22.352,0,0,1,338.5,271.279Z" transform="translate(-48.5 -77.3)" fill="none" stroke="#b2b2b2" stroke-miterlimit="10" stroke-width="4"/><rect width="43.645" height="55.607" transform="translate(134.169 195.596)" fill="#b2b2b2" stroke="#b2b2b2" stroke-miterlimit="10" stroke-width="0.5"/><path d="M286.409,173.584H71.092A10.9,10.9,0,0,1,60.1,162.592h0A10.9,10.9,0,0,1,71.092,151.6H286.409A10.9,10.9,0,0,1,297.4,162.592h0C297.078,168.735,292.229,173.584,286.409,173.584Z" transform="translate(-22.597 88.611)" fill="#b2b2b2"/><g transform="translate(56.577 31.037)"><path d="M161.561,96.119H109.51a2.91,2.91,0,1,1,0-5.819h52.051a2.91,2.91,0,0,1,0,5.819Z" transform="translate(24.659 -79.308)" fill="#cdcccc"/><path d="M164.561,128.319H112.51a2.91,2.91,0,1,1,0-5.819h52.051a2.91,2.91,0,0,1,0,5.819Z" transform="translate(31.358 -7.406)" fill="#cdcccc"/><path d="M188.357,99.619H97.51a2.91,2.91,0,1,1,0-5.819h90.847a2.91,2.91,0,1,1,0,5.819Z" transform="translate(-2.137 -71.492)" fill="#cdcccc"/><path d="M141.784,92.719H89.41a2.91,2.91,0,0,1,0-5.819h52.051a2.9,2.9,0,0,1,2.91,2.91,2.475,2.475,0,0,1-2.586,2.91Z" transform="translate(-20.224 -86.9)" fill="#cdcccc"/><path d="M124.681,92.719H109.81a2.91,2.91,0,0,1,0-5.819h14.872a2.9,2.9,0,0,1,2.91,2.91c.323,1.617-1.293,2.91-2.91,2.91Z" transform="translate(25.329 -86.9)" fill="#cdcccc"/><path d="M104.281,99.619H89.41a2.91,2.91,0,1,1,0-5.819h14.872a2.91,2.91,0,1,1,0,5.819Z" transform="translate(-20.224 -71.492)" fill="#cdcccc"/><path d="M115.281,96.119H100.41a2.91,2.91,0,0,1,0-5.819h14.872a2.91,2.91,0,1,1,0,5.819Z" transform="translate(4.339 -79.308)" fill="#cdcccc"/><path d="M141.784,128.319H89.41a2.91,2.91,0,1,1,0-5.819h52.051a2.9,2.9,0,0,1,2.91,2.91,2.475,2.475,0,0,1-2.586,2.91Z" transform="translate(-20.224 -7.406)" fill="#cdcccc"/><path d="M131.661,96.119H79.61a2.91,2.91,0,0,1,0-5.819h52.051a2.91,2.91,0,1,1,0,5.819Z" transform="translate(-42.107 -79.308)" fill="#cdcccc"/><path d="M155.661,124.919H103.61a2.91,2.91,0,0,1,0-5.819h52.051a2.91,2.91,0,0,1,0,5.819Z" transform="translate(11.485 -14.998)" fill="#cdcccc"/><path d="M188.357,131.819H97.51a2.91,2.91,0,0,1,0-5.819h90.847a2.91,2.91,0,0,1,0,5.819Z" transform="translate(-2.137 0.41)" fill="#cdcccc"/><path d="M135.761,124.919H83.71a2.91,2.91,0,1,1,0-5.819h52.051a2.91,2.91,0,0,1,0,5.819Z" transform="translate(-32.952 -14.998)" fill="#cdcccc"/><path d="M121.284,131.819H68.91a2.91,2.91,0,0,1,0-5.819h52.051a2.9,2.9,0,0,1,2.91,2.91A2.641,2.641,0,0,1,121.284,131.819Z" transform="translate(-66 0.41)" fill="#cdcccc"/><path d="M121.284,92.719H68.91a2.91,2.91,0,0,1,0-5.819h52.051a2.9,2.9,0,0,1,2.91,2.91A2.475,2.475,0,0,1,121.284,92.719Z" transform="translate(-66 -86.9)" fill="#cdcccc"/><path d="M104.281,131.819H89.41a2.91,2.91,0,1,1,0-5.819h14.872a2.91,2.91,0,0,1,0,5.819Z" transform="translate(-20.224 0.41)" fill="#cdcccc"/><path d="M108.368,147.146a3.51,3.51,0,0,1-2.91-1.293l-19.721-19.4a4.1,4.1,0,0,1,0-5.819h0l19.4-19.4a4.5,4.5,0,0,1,6.143,0h0a4.5,4.5,0,0,1,0,6.143L96.73,121.928a2.537,2.537,0,0,0,0,3.556l14.548,14.548a4.1,4.1,0,0,1,0,5.819,3.151,3.151,0,0,1-2.91,1.293Z" transform="translate(-24.634 -57.592)" fill="#d89e50"/><path d="M104.5,147.146a4.28,4.28,0,0,1-4.2-4.2,3.51,3.51,0,0,1,1.293-2.91l14.548-14.548a2.537,2.537,0,0,0,0-3.556L101.593,107.38a4.5,4.5,0,0,1,0-6.143h0a4.5,4.5,0,0,1,6.143,0l19.4,19.4a4.1,4.1,0,0,1,0,5.819h0l-19.721,19.4A3.51,3.51,0,0,1,104.5,147.146Z" transform="translate(10.591 -57.592)" fill="#d89e50"/></g></g><g transform="translate(23.627 145.308) rotate(-8)"><path d="M18,0H159a18,18,0,0,1,18,18V127a18,18,0,0,1-18,18H18A18,18,0,0,1,0,127V18A18,18,0,0,1,18,0Z" transform="translate(1093 737)" fill="#22201f"/><rect width="10" height="98" transform="translate(1051.675 775.937) rotate(-7)" fill="#22201f"/><path d="M5,0l5,15H0Z" transform="translate(1049.847 761.049) rotate(-7)" fill="#0b0c0b"/><path d="M16,0H162a15,15,0,0,1,15,15V28a0,0,0,0,1,0,0H0a0,0,0,0,1,0,0V16A16,16,0,0,1,16,0Z" transform="translate(1093 737)" fill="#0b0c0b"/><circle cx="5.75" cy="5.75" r="5.75" transform="translate(1221.93 746.22)" fill="#d89e50"/><circle cx="5.75" cy="5.75" r="5.75" transform="translate(1240.22 746.22)" fill="#d89e50" opacity="0.5"/></g></g></svg>