<svg xmlns="http://www.w3.org/2000/svg" width="666" height="400.982" viewBox="0 0 666 400.982"><g transform="translate(0)"><path d="M865.885,459.185a10.129,10.129,0,0,1-10.073,10.178h-443.2a10.129,10.129,0,0,1-10.073-10.178V156.453a10.129,10.129,0,0,1,10.073-10.178h443.2a10.129,10.129,0,0,1,10.073,10.178h0Z" transform="translate(-199.885 -146.275)" fill="#e6e6e6"/><path d="M863.506,457.028a9.842,9.842,0,0,1-9.843,9.842h-432.9a9.842,9.842,0,0,1-9.842-9.842V164.347a9.842,9.842,0,0,1,9.842-9.842H853.683a9.842,9.842,0,0,1,9.822,9.842Z" transform="translate(-202.734 -149.072)" fill="#fff"/><path d="M347.422,27.48H754.2a5.842,5.842,0,0,1,5.842,5.842V307.453A5.842,5.842,0,0,1,754.2,313.3H347.422a5.842,5.842,0,0,1-5.842-5.842V33.322a5.842,5.842,0,0,1,5.842-5.842Z" transform="translate(-116.099 -9.34)" fill="#e6e6e6"/><path d="M355.222,37.44H751.256a5.842,5.842,0,0,1,5.842,5.842v259.5a5.842,5.842,0,0,1-5.842,5.842H355.222a5.842,5.842,0,0,1-5.842-5.842V43.282a5.842,5.842,0,0,1,5.842-5.842Z" transform="translate(-118.75 -12.725)" fill="#fff"/><path d="M857.307,410.8a11.135,11.135,0,0,1-4.523-.964,5.481,5.481,0,0,1-.943-.536l-28.782-20.259h0a11.136,11.136,0,0,1-4.726-9.106V352.31a11.135,11.135,0,0,1,4.726-9.108l28.782-20.257a5.493,5.493,0,0,1,.943-.536,11.135,11.135,0,0,1,15.654,10.175v67.077A11.135,11.135,0,0,1,857.3,410.8Z" transform="translate(-341.209 -205.814)" fill="#3f3d56"/><path d="M723.189,413.434H642.912c-16.378-.013-29.65-10.6-29.672-23.663v-52.9c.016-13.063,13.289-23.65,29.672-23.663h80.482c16.261.015,29.438,10.526,29.457,23.5v53.061C752.837,402.829,739.56,413.42,723.189,413.434Z" transform="translate(-271.502 -203.015)" fill="#3f3d56"/><circle cx="23.875" cy="23.875" r="23.875" transform="translate(570.806 231.466)" fill="#e6e6e6"/><path d="M1005.024,526.75l-19.031-10.988a.494.494,0,0,0-.741.428v21.975a.494.494,0,0,0,.741.428l19.031-10.988a.494.494,0,0,0,0-.855l-19.031-10.988a.494.494,0,0,0-.741.428v21.975a.494.494,0,0,0,.741.428l19.031-10.987a.494.494,0,0,0,0-.856Z" transform="translate(-397.943 -271.836)" fill="#fff"/><path d="M710.885,514.185a10.129,10.129,0,0,1-10.073,10.178h-443.2a10.129,10.129,0,0,1-10.073-10.178V211.453a10.129,10.129,0,0,1,10.073-10.178h443.2a10.129,10.129,0,0,1,10.073,10.178h0Z" transform="translate(-147.203 -164.969)" fill="#e6e6e6"/><path d="M708.506,512.028a9.842,9.842,0,0,1-9.842,9.842h-432.9a9.842,9.842,0,0,1-9.842-9.842V219.347a9.842,9.842,0,0,1,9.842-9.842H698.683a9.842,9.842,0,0,1,9.822,9.842Z" transform="translate(-150.051 -167.766)" fill="#fff"/><path d="M192.422,82.48H599.2a5.842,5.842,0,0,1,5.842,5.842V362.453A5.842,5.842,0,0,1,599.2,368.3H192.422a5.842,5.842,0,0,1-5.842-5.842V88.322a5.842,5.842,0,0,1,5.842-5.842Z" transform="translate(-63.416 -28.034)" fill="#e6e6e6"/><path d="M200.222,92.44H596.256a5.842,5.842,0,0,1,5.842,5.842v259.5a5.842,5.842,0,0,1-5.842,5.842H200.222a5.842,5.842,0,0,1-5.842-5.842V98.282A5.842,5.842,0,0,1,200.222,92.44Z" transform="translate(-66.068 -31.419)" fill="#fff"/><path d="M702.307,465.8a11.136,11.136,0,0,1-4.523-.964,5.485,5.485,0,0,1-.943-.536l-28.782-20.259h0a11.135,11.135,0,0,1-4.726-9.106V407.31a11.135,11.135,0,0,1,4.726-9.108l28.782-20.257a5.489,5.489,0,0,1,.943-.536,11.135,11.135,0,0,1,15.654,10.175v67.077A11.136,11.136,0,0,1,702.3,465.8Z" transform="translate(-288.526 -224.508)" fill="#3f3d56"/><path d="M568.189,468.434H487.912c-16.378-.013-29.65-10.6-29.672-23.663v-52.9c.016-13.063,13.289-23.65,29.672-23.663h80.482c16.261.015,29.439,10.526,29.457,23.5v53.061C597.837,457.829,584.56,468.42,568.189,468.434Z" transform="translate(-218.819 -221.709)" fill="#3f3d56"/><circle cx="23.875" cy="23.875" r="23.875" transform="translate(468.49 267.772)" fill="#e6e6e6"/><path d="M850.024,581.75l-19.031-10.987a.494.494,0,0,0-.741.428v21.974a.494.494,0,0,0,.741.428l19.031-10.987a.494.494,0,0,0,0-.855l-19.031-10.988a.494.494,0,0,0-.741.428v21.975a.494.494,0,0,0,.741.428l19.031-10.988a.494.494,0,0,0,0-.855Z" transform="translate(-345.26 -290.53)" fill="#fff"/><path d="M558.885,577.185a10.129,10.129,0,0,1-10.073,10.178h-443.2A10.129,10.129,0,0,1,95.54,577.185V274.453a10.129,10.129,0,0,1,10.073-10.178h443.2a10.129,10.129,0,0,1,10.073,10.178h0Z" transform="translate(-95.54 -186.381)" fill="#e6e6e6"/><path d="M556.506,575.028a9.842,9.842,0,0,1-9.842,9.842h-432.9a9.842,9.842,0,0,1-9.842-9.842V282.347a9.842,9.842,0,0,1,9.842-9.842H546.683a9.842,9.842,0,0,1,9.822,9.842Z" transform="translate(-98.388 -189.179)" fill="#fff"/><path d="M40.422,145.48H447.2a5.842,5.842,0,0,1,5.842,5.842V425.453A5.842,5.842,0,0,1,447.2,431.3H40.422a5.842,5.842,0,0,1-5.842-5.842V151.322a5.842,5.842,0,0,1,5.842-5.842Z" transform="translate(-11.753 -49.447)" fill="#e6e6e6"/><path d="M48.222,155.44H444.256a5.842,5.842,0,0,1,5.842,5.842v259.5a5.842,5.842,0,0,1-5.842,5.842H48.222a5.842,5.842,0,0,1-5.842-5.842v-259.5a5.842,5.842,0,0,1,5.842-5.842Z" transform="translate(-14.405 -52.832)" fill="#fff"/><path d="M550.307,528.8a11.137,11.137,0,0,1-4.524-.964,5.508,5.508,0,0,1-.943-.536l-28.782-20.259h0a11.135,11.135,0,0,1-4.726-9.106V470.31a11.135,11.135,0,0,1,4.726-9.108l28.782-20.257a5.489,5.489,0,0,1,.943-.536,11.135,11.135,0,0,1,15.654,10.175v67.077A11.136,11.136,0,0,1,550.3,528.8Z" transform="translate(-236.863 -245.921)" fill="#731414"/><path d="M416.19,531.434H335.912c-16.378-.013-29.65-10.6-29.672-23.663v-52.9c.016-13.063,13.289-23.649,29.672-23.663h80.482c16.261.015,29.439,10.526,29.457,23.5v53.061C445.837,520.829,432.56,531.42,416.19,531.434Z" transform="translate(-167.156 -243.122)" fill="#731414"/><circle cx="23.875" cy="23.875" r="23.875" transform="translate(368.153 309.359)" fill="#3f3d56"/><path d="M698.024,644.75l-19.031-10.987a.494.494,0,0,0-.741.428v21.974a.494.494,0,0,0,.741.428l19.031-10.987a.494.494,0,0,0,0-.856l-19.031-10.987a.494.494,0,0,0-.741.428v21.975a.494.494,0,0,0,.741.428l19.031-10.988a.494.494,0,0,0,0-.856Z" transform="translate(-293.598 -311.944)" fill="#fff"/></g></svg>