<svg xmlns="http://www.w3.org/2000/svg" width="674" height="429.93" viewBox="0 0 674 429.93"><g transform="translate(-26.289 -324.151)"><path d="M407.189,668.536,90.615,666.994,59.16,593.214l111.228-8.074L151,504.247l220-28.515L160.334,402.5l18.609-4.421,338.743,55.26L499.031,579.583l-26.665,69.373Z" transform="translate(-4.283 -27.915)" fill="#731414"/><path d="M187,698.815s19.423-3.108,31.077,10.618c0,0-8.547,6.734-26.934-2.59Z" transform="translate(-95.811 -90.638)" fill="#731414"/><path d="M184.151,698.51s-12.394,15.251-6.289,32.233c0,0,10.1-4.042,11.2-24.63Z" transform="translate(-94.998 -90.638)" fill="#731414"/><path d="M172.76,671s7.769-14.252,38.846,5.7c0,0-4.144,9.582-17.869,8.8S176.386,678.509,172.76,671Z" transform="translate(-94.741 -88.201)" fill="#731414"/><path d="M169.154,670.289s-16.121-1.85-17.684,35.053c0,0,10.22,2.118,17.48-9.554S173.233,677.568,169.154,670.289Z" transform="translate(-93.142 -88.517)" fill="#731414"/><path d="M703.46,670.36s-20.971,25.592-4.319,64.281l-167.406,72.6-16.065,3.366-7.4-32.375,4.949-40.849V715.06Z" transform="translate(-119.94 -88.523)" fill="#d5d6db"/><path d="M59.16,605.63l231.7-42.24L597.886,612.3l-190.7,68.655Z" transform="translate(-4.283 -40.331)" fill="#731414"/><path d="M59.16,605.63l231.7-42.24L597.886,612.3l-190.7,68.655Z" transform="translate(-4.283 -40.331)" fill="#731414"/><path d="M147.031,652.47s-21.667,41.057,3.3,78.977l343.6,74.454s-21.328-32.7,1.1-78.1Z" transform="translate(-92.154 -87.18)" fill="#731414"/><path d="M147.031,652.47s-21.667,41.057,3.3,78.977l343.6,74.454s-21.328-32.7,1.1-78.1Z" transform="translate(-92.154 -87.18)" opacity="0.1"/><path d="M158.366,667.86s-12.385,30.04,0,49.482" transform="translate(-93.247 -88.336)" opacity="0.1"/><path d="M494.909,811.714l191.82-81.854s10.729,2.312,3.792,10.173S498.6,819.574,498.6,819.574L151.31,737.255Z" transform="translate(-93.13 -92.992)" fill="#731414"/><path d="M494.909,811.714l191.82-81.854s10.729,2.312,3.792,10.173S498.6,819.574,498.6,819.574L151.31,737.255Z" transform="translate(-93.13 -92.992)" opacity="0.1"/><path d="M505.142,742.86s-18.5,22.2,0,55.494" transform="translate(-119.088 -93.969)" opacity="0.1"/><rect width="87.467" height="0.925" transform="translate(392.64 676.196) rotate(-18.45)" opacity="0.1"/><rect width="106.575" height="0.925" transform="translate(392.609 683.642) rotate(-20.82)" opacity="0.1"/><rect width="123.529" height="0.925" transform="translate(393.166 692.419) rotate(-22.26)" opacity="0.1"/><rect width="142.193" height="0.925" transform="translate(394.5 700.16) rotate(-24.31)" opacity="0.1"/><rect width="155.521" height="0.925" transform="translate(395.527 703.926) rotate(-23.643)" opacity="0.1"/><rect width="186.107" height="0.925" transform="translate(397.678 710.252) rotate(-23.36)" opacity="0.1"/><path d="M152.23,611.161,315.012,576.94l99.167,18.96L280.79,638.908Z" transform="translate(-11.272 -41.348)" fill="#fff" opacity="0.3"/><path d="M714.727,659.69s8.416,3.394,3.479,8.639S524,728.345,524,728.345Z" transform="translate(-121.121 -87.723)" fill="#731414"/><path d="M802.75,574.18s-20.958,25.583-4.31,64.281l-167.405,72.6L614.97,714.45l-7.4-32.371,5.022-40.844V618.88Z" transform="translate(-127.397 -81.3)" fill="#d5d6db"/><path d="M158.46,509.44l231.7-42.23,307.03,48.908-190.7,68.659Z" transform="translate(-11.74 -33.108)" fill="#333150"/><path d="M246.291,556.29s-21.68,41.056,3.293,78.977l343.6,74.454s-21.319-32.732,1.138-78.107Z" transform="translate(-99.609 -79.956)" fill="#3a3768"/><path d="M246.291,556.29s-21.68,41.056,3.293,78.977l343.6,74.454s-21.319-32.732,1.138-78.107l-108.656-23.52Z" transform="translate(-99.609 -79.956)" fill="#0d0d0d" opacity="0.539"/><path d="M257.653,571.68s-12.375,30.031,0,49.482" transform="translate(-100.704 -81.112)" opacity="0.1"/><path d="M594.2,715.533,786.031,633.68s10.72,2.312,3.783,10.173-191.919,79.541-191.919,79.541L250.6,641.079Z" transform="translate(-100.588 -85.769)" fill="#3a3768"/><path d="M594.2,715.533,786.031,633.68s10.72,2.312,3.783,10.173-191.919,79.541-191.919,79.541L250.6,641.079Z" transform="translate(-100.588 -85.769)" opacity="0.457"/><path d="M604.432,646.68s-18.5,22.2,0,55.494" transform="translate(-126.545 -86.745)" opacity="0.1"/><rect width="87.467" height="0.925" transform="translate(484.48 587.249) rotate(-18.45)" opacity="0.1"/><rect width="106.575" height="0.925" transform="translate(484.461 594.692) rotate(-20.82)" opacity="0.1"/><rect width="123.529" height="0.925" transform="translate(485.004 603.457) rotate(-22.26)" opacity="0.1"/><rect width="142.193" height="0.925" transform="translate(486.349 611.198) rotate(-24.31)" opacity="0.1"/><rect width="155.521" height="0.925" transform="translate(487.363 614.952) rotate(-23.643)" opacity="0.1"/><rect width="186.107" height="0.925" transform="translate(489.521 621.278) rotate(-23.36)" opacity="0.1"/><path d="M251.53,514.982,414.312,480.76l99.167,18.96L380.09,542.728Z" transform="translate(-18.731 -34.125)" fill="#fff" opacity="0.45"/><path d="M814.027,563.51s8.407,3.394,3.479,8.629S623.33,632.156,623.33,632.156Z" transform="translate(-128.581 -80.498)" fill="#3a3768"/><path d="M812.153,464.15s-20.971,45.939-4.319,84.628L640.428,601.035,624.4,604.429,617,572.057l4.949-40.849V508.85Z" transform="translate(-128.106 -73.036)" fill="#d5d6db"/><path d="M167.89,399.42l231.7-42.24,307.028,48.908-190.7,68.656Z" transform="translate(-12.449 -24.843)" fill="#731414"/><path d="M255.759,446.26s-21.707,41.056,3.265,78.977l343.6,74.454s-21.328-32.732,1.128-78.1Z" transform="translate(-100.318 -71.692)" fill="#731414"/><path d="M255.759,446.26s-21.707,41.056,3.265,78.977l343.6,74.454s-21.328-32.732,1.128-78.1Z" transform="translate(-100.318 -71.692)" opacity="0.1"/><path d="M267.093,461.65s-12.385,30.04,0,49.482" transform="translate(-101.413 -72.849)" opacity="0.1"/><path d="M603.639,606.1,795.459,544.6s10.729,2.312,3.792,10.173-191.919,59.193-191.919,59.193L260.04,531.65Z" transform="translate(-101.297 -78.106)" fill="#731414"/><path d="M603.639,606.1,795.459,544.6s10.729,2.312,3.792,10.173-191.919,59.193-191.919,59.193L260.04,531.65Z" transform="translate(-101.297 -78.106)" opacity="0.1"/><path d="M613.872,536.65s-18.5,22.2,0,55.494" transform="translate(-127.253 -78.482)" opacity="0.1"/><rect width="87.467" height="0.925" transform="translate(493.213 485.481) rotate(-18.45)" opacity="0.1"/><rect width="106.575" height="0.925" transform="translate(493.189 492.929) rotate(-20.82)" opacity="0.1"/><rect width="123.529" height="0.925" transform="translate(493.722 501.698) rotate(-22.26)" opacity="0.1"/><rect width="142.193" height="0.925" transform="translate(495.08 509.431) rotate(-24.31)" opacity="0.1"/><rect width="155.521" height="0.925" transform="translate(496.1 513.194) rotate(-23.643)" opacity="0.1"/><rect width="186.107" height="0.925" transform="translate(498.253 519.526) rotate(-23.36)" opacity="0.1"/><path d="M260.96,404.951,423.742,370.73l99.167,18.96L389.52,432.7Z" transform="translate(-19.438 -25.86)" fill="#fff" opacity="0.3"/><path d="M823.455,453.48s8.416,3.394,3.479,8.639S632.76,522.135,632.76,522.135Z" transform="translate(-129.29 -72.235)" fill="#731414"/><ellipse cx="21.263" cy="2.377" rx="21.263" ry="2.377" transform="translate(165.68 722.494)" fill="#0d0d0d" opacity="0.1"/><ellipse cx="21.263" cy="2.377" rx="21.263" ry="2.377" transform="translate(26.289 682.095)" fill="#0d0d0d" opacity="0.1"/><ellipse cx="21.263" cy="2.377" rx="21.263" ry="2.377" transform="translate(271.932 749.326)" fill="#0d0d0d" opacity="0.1"/><ellipse cx="21.263" cy="2.377" rx="21.263" ry="2.377" transform="translate(639.477 679.348)" fill="#0d0d0d" opacity="0.1"/><ellipse cx="25.148" cy="4.319" rx="25.148" ry="4.319" transform="translate(521.127 731.716)" fill="#0d0d0d" opacity="0.1"/><path d="M655.29,398.224s21.42-2.775,26.736-6.474" transform="translate(-130.982 -67.599)" opacity="0.1"/><path d="M584.62,391.75s12.026,6.779,20.971,6.474" transform="translate(-125.674 -67.599)" opacity="0.1"/><path d="M536.27,427.391a17.665,17.665,0,0,1,15.159,4c7.4,6.169,32.3,18.554,32.3,18.554" transform="translate(-122.043 -70.249)" opacity="0.1"/><path d="M733.111,427s-32.991,4.994-39.151,11.774" transform="translate(-133.886 -70.246)" opacity="0.1"/><path d="M561.93,534.042s8.028-18.11,29.467-4.3" transform="translate(-123.97 -77.573)" fill="none" stroke="#000" stroke-miterlimit="10" stroke-width="1" opacity="0.1"/><path d="M650.52,460.814a70.816,70.816,0,0,1,10.618-6.594c5.549-2.673,15.723-9.61,15.723-9.61" transform="translate(-130.624 -71.569)" opacity="0.1"/></g></svg>