<svg xmlns="http://www.w3.org/2000/svg" width="661.28" height="762.897" viewBox="0 0 661.28 762.897"><g transform="translate(-417.05 -34.71)"><ellipse cx="330.64" cy="11.232" rx="330.64" ry="11.232" transform="translate(417.05 775.143)" fill="#2b1010" opacity="0.1"/><path d="M799.322,730.174H788.445l-79.558-410.7-10.2,410.7H687.134L674.21,320.16,596.688,730.174H584.45l52.691-422.129,1.717-13.721L742.216,282.76l3.213,25.285Z" transform="translate(37.87 56.116)" fill="#464353"/><rect width="65.787" height="40.797" transform="translate(551.849 256.547)" fill="#464353"/><path d="M863.05,316.254l39.779-16.064h8.719a4.794,4.794,0,0,1,4.794,4.795V417.013a4.794,4.794,0,0,1-4.794,4.795h-8.719L863.05,405.241Z" transform="translate(70.512 -77.548)" fill="#464353"/><rect width="81.336" height="78.785" transform="translate(852.226 243.806)" fill="#464353"/><rect width="52.36" height="9.516" transform="translate(711.038 95.825)" fill="#0d0d0d"/><rect width="147.38" height="107.601" transform="translate(651.296 108.149)" fill="#0d0d0d"/><rect width="147.38" height="12.753" transform="translate(651.296 203.01)" opacity="0.1"/><rect width="3.299" height="78.785" transform="translate(850.963 243.806)" opacity="0.1"/><rect width="22.44" height="40.797" transform="translate(595.196 256.547)" opacity="0.1"/><path d="M735.708,308.045H627.42l1.717-13.721L732.5,282.76Z" transform="translate(47.591 56.116)" opacity="0.1"/><rect width="254.982" height="157.067" rx="10.7" transform="translate(597.232 205.045)" fill="#0d0d0d"/><path d="M838.814,201.07h.773v88.987h-.773a6.364,6.364,0,0,1-6.364-6.364V207.434A6.364,6.364,0,0,1,838.814,201.07Z" transform="translate(93.975 37.635)" fill="#0d0d0d"/><path d="M870.71,188h8.252a5.261,5.261,0,0,1,5.26,5.26V304.381a5.261,5.261,0,0,1-5.26,5.261H870.71Z" transform="translate(102.63 34.678)" fill="#0d0d0d"/><rect width="11.735" height="40.797" transform="translate(551.849 256.547)" opacity="0.1"/><rect width="22.943" height="69.355" rx="7.2" transform="translate(538.594 243.806)" fill="#0d0d0d"/><circle cx="73.439" cy="73.439" r="73.439" transform="translate(577.857 34.71)" fill="#464353"/><circle cx="55.082" cy="55.082" r="55.082" transform="translate(596.214 53.067)" fill="#2b1010"/><circle cx="53.549" cy="53.549" r="53.549" transform="translate(733.907 56.132)" fill="#464353"/><circle cx="40.159" cy="40.159" r="40.159" transform="translate(747.298 69.523)" fill="#2b1010"/><circle cx="7.051" cy="7.051" r="7.051" transform="translate(776.249 221.366)" fill="#2b1010"/><circle cx="7.051" cy="7.051" r="7.051" transform="translate(798.677 221.366)" fill="#2b1010" opacity="0.5"/><path d="M693.477,328.313c-10.926-3.409-27.664-3.507-30.754,25.751-4.574-10.815-7.443-20.024-7.443-20.024l33.55-14.2S690.89,323.126,693.477,328.313Z" transform="translate(23.508 -73.103)" opacity="0.1"/><path d="M597.371,294.26s-13.488,15.867-11.036,24.525Z" transform="translate(7.844 -78.89)" opacity="0.1"/><path d="M627.242,300.6S607,318.577,609.965,320.624Z" transform="translate(13.19 -77.456)" opacity="0.1"/><path d="M634.4,318.61s-2.048,11.821,1.226,12.262Z" transform="translate(18.641 -73.381)" opacity="0.1"/><ellipse cx="35.904" cy="6.07" rx="35.904" ry="6.07" transform="translate(485.743 753.034)" fill="#2b1010" opacity="0.1"/></g></svg>