<svg xmlns="http://www.w3.org/2000/svg" width="674" height="338.828" viewBox="0 0 674 338.828"><g transform="translate(-72.9 -216.333)"><g transform="translate(72.9 216.333)"><ellipse cx="330.032" cy="37.659" rx="330.032" ry="37.659" transform="translate(13.937 263.511)" fill="#d6d6d6"/><ellipse cx="45.072" cy="6.82" rx="45.072" ry="6.82" transform="translate(0 253.133)" fill="#d6d6d6"/><g transform="translate(170.423 113.44)"><path d="M163.705,319.7,147.1,344.312l87.771,4.151,5.634-28.763Z" transform="translate(-97.502 -126.632)" fill="#f4f4f4"/><path d="M163.205,316.1,146.6,340.711l87.771,4.448,5.634-29.059Z" transform="translate(-98.484 -133.707)" fill="#f4f4f4"/><path d="M162.505,318.3,145.9,343.208l87.475,4.151,5.93-29.059Z" transform="translate(-99.86 -129.384)" fill="#fff"/><path d="M159.946,332.446s-5.634,4.151-2.372,4.151,8.6-2.965,11.268,0,10.378,4.744,15.123,2.076c4.448-2.965,7.117-5.634,7.117-9.785,0-3.855-8.006-4.151-13.047-6.227-5.337-2.076-15.716-5.337-13.344-2.372,2.669,2.965.89,4.448-1.779,5.041-2.669.3-1.483,2.076-1.186,5.041C161.428,333.632,159.946,332.446,159.946,332.446Z" transform="translate(-78.916 -127.814)" fill="#a93f40"/><path d="M150.335,284.657s32.914-7.71,43.293,45.665c0,0,9.785,32.618,22.536,39.734,0,0-32.618,24.018-40.031,16.605s-16.012-24.908-18.384-37.066c0,0-27.873-13.64-26.094-35.879C133.433,292.07,137.585,293.849,150.335,284.657Z" transform="translate(-128.017 -196.262)" fill="#0b0c0b"/><path d="M146.6,320.079s19.274,14.233,32.914,14.233h17.2c2.076,0,3.558-2.669,2.076-4.151a9.629,9.629,0,0,0-7.413-2.965l-11.564-.89s-14.53-1.779-19.274-8.006Z" transform="translate(-98.484 -129.384)" fill="#0b0c0b"/><path d="M151,315.734s19.274,14.233,32.914,14.233h17.2c2.076,0,3.558-2.669,2.076-4.151a9.629,9.629,0,0,0-7.413-2.965l-11.564-.89s-10.082,1.483-25.5-11.861Z" transform="translate(-89.837 -145.499)" fill="#0b0c0b"/><path d="M171.739,310l7.71,5.041s2.965,11.268,5.337,13.937c0,0,.3,7.413-6.524,10.675S149.5,343.216,149.5,326.314,162.251,308.226,171.739,310Z" transform="translate(-92.785 -146.886)" fill="#0b0c0b"/><path d="M154.5,315.892l9.489-9.192v9.785Z" transform="translate(-82.959 -152.18)" fill="#0b0c0b"/><path d="M153.581,344.764s-29.949-21.646-8.3-39.438c0,0,3.262-2.965,18.681-15.716,14.233-11.861-6.524-34.99-6.524-34.99s-15.419-1.186-2.372,11.268c13.047,12.158-4.448,21.943-4.448,21.943S134.307,298.8,131.342,310.96c0,0-2.965,8.6,1.483,20.164,0,0,5.634,12.75,13.937,17.791C146.464,349.211,154.174,351.287,153.581,344.764Z" transform="translate(-130.373 -254.59)" fill="#0b0c0b"/><path d="M131.6,295.4s8.6,31.432,5.93,42.4c0,0-1.483,5.93,5.041,9.785s11.861,1.779,11.861,1.779,4.151-3.855-1.186-11.861c0,0-6.227-16.605,0-25.2s4.151-16.9,4.151-16.9Z" transform="translate(-127.963 -174.388)" fill="#0b0c0b"/><path d="M159.3,331.1s-5.93-.3-8.3-7.117c0,0,3.262,3.262,5.634,2.372s2.669.593,5.337-.3c2.372-1.186,0-2.965,1.186-2.965s2.372.89,3.855-.3c1.779-1.483,7.413,1.186,7.413,0s-2.669-6.524-3.262-7.117c-1.483-1.779,1.483-1.779,3.558,0s2.372,2.372,5.041,2.076a2.3,2.3,0,0,1,2.669,2.372S183.914,334.958,159.3,331.1Z" transform="translate(-89.837 -137.147)" fill="#c6c6c6"/><path d="M135.737,317.127s-1.483-4.744,0-4.744,2.076,5.93,2.965,1.483.593-2.965,2.076-1.483,3.262,3.855,4.151,3.855,2.372-2.669,3.262-2.372l.89.3a5.939,5.939,0,0,1-1.483,4.448A13.606,13.606,0,0,1,135.737,317.127Z" transform="translate(-121.128 -143.927)" fill="#c6c6c6"/><path d="M161.2,327.225a1.855,1.855,0,0,1,1.779-1.483,2.963,2.963,0,0,0,2.372-.89c.3-.3-.3-.3.89-.3,1.186-.3,1.186-.3,1.186-1.186s-1.186-1.186,0-1.483,1.483,0,1.483,0,2.372,1.483,2.076,3.262a2.323,2.323,0,0,1-2.372,2.372C168.613,327.225,162.979,328.114,161.2,327.225Z" transform="translate(-69.792 -122.593)" fill="#c6c6c6"/><path d="M166.207,319.451s-.3-1.779,2.372-1.483c2.669,0,.89-1.186,1.779-1.186s2.076,1.483,2.076,0,.89-1.483.89-1.483a3.218,3.218,0,0,1,.593,2.372,2.826,2.826,0,0,1-2.076,1.779A34.361,34.361,0,0,1,166.207,319.451Z" transform="translate(-59.972 -135.279)" fill="#c6c6c6"/><path d="M141.7,314.583s0-6.524,3.558-3.855,2.965,4.151,6.82,1.483c4.151-2.669,9.192-6.524,8.6-.89-.593,5.337,2.372,13.344-2.372,10.082-1.186-.593.593,5.634-2.965,3.558s-5.634-5.041-6.82-3.855c-3.262,2.669-2.076,4.744-2.076,4.744A87.241,87.241,0,0,1,141.7,314.583Z" transform="translate(-108.114 -148.795)" fill="#0e8d83"/><path d="M141.248,284.3s-5.041,7.413-1.186,9.192,13.344-1.483,12.751,4.151-5.041,8.3,0,9.192,5.041,4.151,9.785,4.744,5.337.89,5.041-1.779c-.3-2.965-6.227.3-5.041-4.744,1.483-5.041-1.186-6.227,1.483-5.041,2.372,1.186.3,3.855,3.558,4.151s4.448,2.076,4.448,2.076S162.895,284.6,141.248,284.3Z" transform="translate(-114.186 -196.202)" fill="#d89e50"/><path d="M147,294.8c0,2.965,0,2.965,1.483,3.855s4.744,5.634,4.744,2.965-.3-5.041-2.372-3.855C148.779,298.655,147,294.8,147,294.8Z" transform="translate(-97.698 -175.567)" fill="#d89e50"/><path d="M159.5,326.567s.3-2.669,1.483-2.669,2.076,1.186,2.669,0,.89-2.669,2.372-1.186.3.3,2.669,1.483a9.625,9.625,0,0,1,3.262,2.372A29.379,29.379,0,0,1,159.5,326.567Z" transform="translate(-73.133 -121.935)" fill="#d89e50"/><path d="M160.909,321.1s-3.558,3.558-1.779,3.262c1.779-.593.3-1.483,2.076-1.483,2.965,0,3.262,0,3.855.3,2.076,1.779,1.186-1.779,1.186-1.779Z" transform="translate(-74.839 -123.881)" fill="#76bd75"/><path d="M172.082,331.308c4.448,1.779,8.9,5.041,9.489.89.593-3.855-4.151-1.186-4.744-5.93s-13.047-4.744-10.378-1.186,3.855,2.076,3.855,5.634S172.082,331.308,172.082,331.308Z" transform="translate(-60.214 -121.042)" fill="#d89e50"/><path d="M167.658,321.414s-8.006,5.337,0,5.634,17.791,1.186,14.233-2.372-7.117-1.779-8.3-3.855-12.751-2.076-8.006-.89C169.734,321.117,168.844,320.228,167.658,321.414Z" transform="translate(-64.093 -127.753)" fill="#0e8d83"/></g><g transform="translate(349.757)"><path d="M199.6,324.162s74.131-32.914,131.953-9.785V252.7l-127.8,10.971Z" transform="translate(-173.661 -144.864)" fill="#3d2d27"/><path d="M339.338,288.694c-7.71-15.419-43.589-26.094-43.589-26.094H243.56s-35.879,10.675-43.589,26.094,31.135,84.213,31.135,84.213H308.8C308.5,372.907,347.047,304.113,339.338,288.694Z" transform="translate(-174.922 -125.408)" fill="#4a4744"/><path d="M261,234.99s-28.466-18.681-59.6,0v75.021s25.8,38.845,59.6,42.4c33.8-3.855,59.6-42.4,59.6-42.4V234.99C289.468,216.012,261,234.99,261,234.99Z" transform="translate(-170.124 -196.244)" fill="#f7e2c6"/><path d="M301.728,265.161s-39.141,48.927-86.289,43.589v77.1s-43.589-109.121,0-150.931,86.289,0,86.289,0Z" transform="translate(-180.605 -216.333)" fill="#4f3c33"/><path d="M231.7,252.845l32.914,52.485V246.322s-6.227-20.46-32.914-23.722Z" transform="translate(-110.577 -204.018)" fill="#4f3c33"/><path d="M249.578,230.6s14.826,51.3,5.93,127.209H239.2s14.233-88.068,3.855-117.127Z" transform="translate(-95.837 -188.296)" fill="#4f3c33"/><path d="M196.2,245.9s10.378,81.841,10.378,91.626h29.356s-21.646-47.147-20.757-86.882Z" transform="translate(-180.343 -158.228)" fill="#4f3c33"/><g transform="translate(20.305 162.006)"><path d="M262.084,298.232,201,266.8v6.524l60.787,26.391Z" transform="translate(-191.215 -266.8)" fill="#f4f4f4"/><path d="M261.481,296.659,200.1,267.6v6.523l61.38,26.094Z" transform="translate(-192.983 -265.228)" fill="#fff"/><path d="M259.494,297.059,199.3,268l.3,6.524,62.567,23.722Z" transform="translate(-194.556 -264.442)" fill="#e2e2e2"/><path d="M264.122,293.21,197.7,268.8v74.28l66.422,21Z" transform="translate(-197.7 -262.87)" fill="#af1f28"/><path d="M223.1,298.532,284.481,267.1v6.523l-60.787,26.094Z" transform="translate(-147.783 -266.21)" fill="#f4f4f4"/><path d="M223.9,296.959,285.281,267.9v6.524L223.9,300.518Z" transform="translate(-146.211 -264.638)" fill="#fff"/><path d="M226.969,297.359,287.163,268.3l-.3,6.524L224.3,298.546Z" transform="translate(-145.425 -263.852)" fill="#e2e2e2"/><path d="M224.7,293.248,290.825,269.1v74.018L224.7,364.378Z" transform="translate(-144.638 -262.28)" fill="#af1f28"/><path d="M220.1,280.212s6.82-7.552,15.419,0v73.1s-7.413,7.822-15.419,0Z" transform="translate(-153.679 -251.456)" fill="#8b1c23"/></g><path d="M205.944,278.455c-4.448-.593-8.3,2.076-10.082,6.227-3.262,8.006-6.524,21.053,3.262,26.094,9.192,4.448,19.274,3.262,25.8,1.779a9.553,9.553,0,0,0,7.413-9.489C232.631,294.17,228.776,281.123,205.944,278.455Z" transform="translate(-187.418 -94.412)" fill="#f7e2c6"/><path d="M271.086,309.941a9.859,9.859,0,0,0,7.413-9.192c.3-8.6-.89-22.239-11.861-23.425-10.082-1.186-19.274,3.558-24.908,7.117A9.73,9.73,0,0,0,237.875,296C240.544,304.307,248.55,315.278,271.086,309.941Z" transform="translate(-99.553 -96.839)" fill="#f7e2c6"/><g transform="translate(0 291.681)"><path d="M234.889,314.7l-29.652,10.675S191.3,335.753,191.3,347.911s19.274,11.564,28.466,6.524c9.489-5.041,27.28-17.792,27.28-17.792Z" transform="translate(-189.973 -314.7)" fill="#161515"/><path d="M197.221,321s18.385,10.675,11.861,24.315c0,0-10.378,2.372-16.012-4.151C193.069,341.164,185.953,333.454,197.221,321Z" transform="translate(-190.852 -302.319)" fill="#f2f2f2"/><path d="M199.9,320.59s7.71,6.227,6.227,11.564l3.558-1.779s-.89-9.192-7.117-10.675Z" transform="translate(-173.072 -304.874)" fill="#f2f2f2"/><path d="M202.8,319.29s7.71,6.227,6.227,11.564l3.558-1.779s-.89-9.192-7.117-10.675Z" transform="translate(-167.372 -307.429)" fill="#f2f2f2"/></g><g transform="translate(123.792 283.082)"><path d="M232.6,335.225l26.984,16.309s16.605,4.448,26.094-3.262-2.965-22.239-12.751-26.391S242.089,311.8,242.089,311.8Z" transform="translate(-232.6 -311.8)" fill="#161515"/><path d="M245.9,342.015s-3.262-21.053,11.564-24.315c0,0,8.3,6.524,6.524,15.123C263.99,332.526,262.507,342.608,245.9,342.015Z" transform="translate(-207.057 -300.205)" fill="#f2f2f2"/><path d="M242.6,330.14s0-10.082,5.041-11.861L244.08,316.5s-6.523,6.227-3.855,12.158Z" transform="translate(-218.875 -302.563)" fill="#f2f2f2"/><path d="M239.8,328.74s0-10.082,5.041-11.861L241.28,315.1s-6.523,6.227-3.855,12.158Z" transform="translate(-224.378 -305.315)" fill="#f2f2f2"/></g><path d="M225.945,296.66A18.838,18.838,0,0,0,205.189,302c-8.3,9.489-17.2,23.425-5.041,30.542,18.978,11.268,110.6,37.066,110.6,37.066s9.192-15.419,7.117-24.908C316.089,336.1,260.639,309.41,225.945,296.66Z" transform="translate(-184.291 -60.725)" fill="#22201f"/><path d="M315.814,339.787A18.836,18.836,0,0,0,326.785,321.4c-.89-12.157-4.151-28.17-17.495-24.315-21.053,5.93-103.19,53.671-103.19,53.671s4.448,17.2,12.158,22.239C225.374,376.853,282.6,355.8,315.814,339.787Z" transform="translate(-160.887 -58.781)" fill="#282625"/></g><g transform="translate(276.064 216.661)"><path d="M166,302.533l7.71,38.548s13.344,8.6,23.425,0l4.744-38.548S182.605,293.934,166,302.533Z" transform="translate(-166 -271.101)" fill="#282625"/><path d="M167.565,302.542s12.751,11.861,29.059,0c0,0,.3-.593-1.186-1.186-1.779-.593-16.9-4.448-26.984-.3C168.455,301.06,166.676,301.653,167.565,302.542Z" transform="translate(-163.414 -270.221)" fill="#161514"/><path d="M172.437,315.153,167.1,295.879l5.337-1.779,6.524,23.425C178.664,317.525,174.217,316.932,172.437,315.153Z" transform="translate(-163.838 -280.163)" fill="#67504a"/><path d="M168.59,305.116a16.878,16.878,0,0,1-.89-15.716s6.227,1.186,6.227,13.937Z" transform="translate(-165.625 -289.4)" fill="#bc9f7d"/><path d="M167,295.683l.89,2.965,5.337-2.076-.593-2.372Z" transform="translate(-164.035 -279.967)" fill="#282625"/><path d="M179.924,315.053l5.337-19.274L179.924,294,173.4,317.425C173.7,317.722,178.144,316.832,179.924,315.053Z" transform="translate(-151.457 -280.36)" fill="#67504a"/><path d="M181.037,305.116a16.878,16.878,0,0,0,.89-15.716s-6.227,1.186-6.227,13.937Z" transform="translate(-146.937 -289.4)" fill="#bc9f7d"/><path d="M181.627,295.879l-.89,2.965-5.337-2.076.593-2.669Z" transform="translate(-147.527 -280.163)" fill="#282625"/><path d="M171,316.346V294.7h5.93l1.483,21.646Z" transform="translate(-156.174 -278.984)" fill="#67504a"/><path d="M171,295.879V294.1h5.93v1.779Z" transform="translate(-156.174 -280.163)" fill="#282625"/><path d="M173.583,289.8s-2.965,3.558-2.669,5.634.3,7.117.3,7.117h5.93v-7.117C177.141,294.841,177.141,293.062,173.583,289.8Z" transform="translate(-156.384 -288.614)" fill="#bc9f7d"/></g></g></g></svg>