<svg xmlns="http://www.w3.org/2000/svg" width="377.655" height="225.214" viewBox="0 0 377.655 225.214"><g transform="translate(-1274.074 -2342)"><g transform="translate(1340.152 2342)"><path d="M438.377,88.282c-70.757-68.629-176.1-66.5-218.656-62.245-15.428,1.6-30.857,7.448-43.093,17.556C114.383,95.73,227.7,184.044,300.054,194.152,406.988,209.58,529.35,176.6,438.377,88.282ZM206.953,94.134c-16.492-7.98-26.6-20.216-23.408-27.133s19.152-5.852,35.645,2.128,26.6,20.216,23.408,27.132C239.405,103.71,223.445,102.646,206.953,94.134Z" transform="translate(-158.614 -24.267)" fill="#1f1f1f"/><path d="M190.852,29.182S171.7,28.118,179.68,32.374c7.98,4.788-2.66,10.108,6.916,12.768s20.216-1.064,29.261,5.32,23.94,3.192,11.172-3.724S202.024,25.99,190.852,29.182Z" transform="translate(-76.012 -5.069)" fill="#d89e50"/><path d="M205.024,32s-19.152,5.32-7.448,14.364c12.236,9.044,4.788,9.044,13.3,17.024s12.236,17.556,18.088,13.3,2.128-12.236,9.576-10.108c7.98,2.128,9.044.532,9.044-3.724s3.724-15.428-9.576-18.62c-12.768-2.66-17.556-.532-20.748-6.384S205.024,32,205.024,32Z" transform="translate(-6.659 9.138)" fill="#76bd75"/><path d="M187.124,41.6s-19.152,5.32-7.448,14.364c12.236,9.044,4.788,9.044,13.3,17.024s12.236,17.556,18.088,13.3,2.128-12.236,9.576-10.108c7.98,2.128,9.044.532,9.044-3.724s3.724-15.428-9.576-18.62-17.556-.532-20.748-6.384C196.7,42.132,187.124,41.6,187.124,41.6Z" transform="translate(-83.989 50.611)" fill="#af1f28"/><path d="M202,50.953s2.66-13.3,14.9-4.788c12.768,8.512,17.556.532,20.748-1.064s13.832-5.32,12.236,6.384,7.98,12.236-1.064,23.408-7.98,1.6-18.088,2.128c-16.492.532-7.448-12.768-18.62-12.236C205.724,65.317,202,50.953,202,50.953Z" transform="translate(28.818 57.751)" fill="#c6c6c6"/><path d="M202.084,61.168s-3.724-22.344,15.428-12.236,11.7-2.66,20.216,3.192,17.556,11.7,10.108,18.088-3.192-1.064-21.812.532c-11.7,1.064-19.152,8.512-28.2,2.128C179.208,61.168,202.084,61.168,202.084,61.168Z" transform="translate(-20.743 70.944)" fill="#fff"/></g><g transform="translate(1274.074 2423.039)"><path d="M151.6,63.86s68.629,63.309,116.51,83.526c0,0-33.517-51.073-103.742-99.486Z" transform="translate(-122.838 -3.211)" fill="#4f3c33"/><path d="M150.5,61.564,163.8,47.2l5.32,3.192L156.352,66.884Z" transform="translate(-127.59 -6.235)" fill="#22201f"/><path d="M169.011,94.4s-31.921-6.916-20.216-37.773c0,0,4.256-13.3.532-17.024,0,0,34.581,15.96,32.453,40.433Z" transform="translate(-146.101 -39.068)" fill="#bc9f7d"/><path d="M146.227,70.357s-.532,1.064,4.788,3.724,5.852-2.66,7.448-5.852,3.724-4.788,10.108.532,12.236,8.512,10.108,2.66-4.256-12.768-4.256-12.768-4.788-9.576-25-19.152c0,0,2.128,10.64-.532,17.024A31.935,31.935,0,0,0,146.227,70.357Z" transform="translate(-146.194 -39.5)" fill="#af1f28"/></g></g></svg>