<svg xmlns="http://www.w3.org/2000/svg" xmlns:xlink="http://www.w3.org/1999/xlink" width="658.432" height="439.913" viewBox="0 0 658.432 439.913"><defs><linearGradient id="a" x1="0.44" y1="0.292" x2="0.602" y2="0.771" gradientUnits="objectBoundingBox"><stop offset="0" stop-color="#20868d"/><stop offset="1" stop-color="#18bdc9"/></linearGradient><linearGradient id="b" x1="0.44" y1="0.291" x2="0.602" y2="0.771" xlink:href="#a"/></defs><g transform="translate(-0.003 0.007)"><path d="M686.594,233.286,432.362,85.427a12.028,12.028,0,0,0-12.009,0L40.156,302.993a12.028,12.028,0,0,0,0,20.837L283.29,464.215a39.242,39.242,0,0,0,39.242,0L686.575,254.088a12.028,12.028,0,0,0,.019-20.8Z" transform="translate(-34.137 -29.567)" fill="#18bdc9"/><path d="M306.652,186.395c-8.474,5-26.915,13.22-35.015,18.614l-67.487-41.52,89.945-41.129,59.945,36.364C349.309,161.185,311.2,183.735,306.652,186.395Z" transform="translate(133.317 8.392)" fill="url(#a)"/><path d="M217.149,255.3c-10.263,5.955-32.533,15.88-42.339,22.5l-81.679-50.12,108.756-49.742,72.49,43.787C268.718,224.806,222.628,252.064,217.149,255.3Z" transform="translate(23.968 63.135)" fill="url(#b)"/><path d="M322.34,261.882c-10.263,5.955-32.533,15.88-42.339,22.5L198.34,234.172,307.1,184.43l72.49,43.967C373.909,231.414,327.818,258.667,322.34,261.882Z" transform="translate(127.594 69.529)" fill="url(#a)"/><path d="M161.677,173.971a135.113,135.113,0,0,1,34.736-1.707c15.661,1.37,35.014,9.131,44.483,23.383,14.193,21.392-8.079,38.667-27.135,48.035A145.717,145.717,0,0,1,150.58,259.5c-19.293.1-41.287-3-57.464-14.212a25.976,25.976,0,0,1-7.146-34.757C100.943,184.984,135.065,178.594,161.677,173.971Z" transform="translate(13.157 57.121)" fill="none" stroke="#f7931e" stroke-miterlimit="10" stroke-width="2"/><path d="M93.13,252.329s1.806-28.881,2.481-36.026c.615-6.451,2.759-34.855,20.524-43.808,22.43-11.334,48.313-26.043,72.193-19.195,19.372,5.556,25.976,72.589,25.8,77.076C213.7,238.392,153.612,280.87,93.13,252.329Z" transform="translate(23.968 37.144)" fill="#d7b344"/><path d="M110.94,165.521c.417-.2,13.12,9.289,13.7,23.383S127.4,260.8,127.4,260.8s30.787-1.806,49.9-15.086c0,0-4.346-67.052-10.381-80.192s-23-13.141-23-13.141Z" transform="translate(41.509 37.961)" fill="#d7b344"/><path d="M110.94,165.521c.417-.2,13.12,9.289,13.7,23.383S127.4,260.8,127.4,260.8s30.787-1.806,49.9-15.086c0,0-4.346-67.052-10.381-80.192s-23-13.141-23-13.141Z" transform="translate(41.509 37.961)" fill="#4b1b13" opacity="0.47"/><path d="M165.441,151.2a27.782,27.782,0,0,0,7.5-12.883c2.759-8.992-1.846-22.053-11.592-23.263s-12.744,3.831-12.744,3.831-36.345-6.411-41.943,22.053h0c-1.032,7.94-5.4,36.94,18.222,43.291s15.165-27.193,15.165-27.193" transform="translate(36.328 1.011)" fill="#4b1b13"/><path d="M159.616,130v25.8c.1,7.344-3,27.214-15.086,26.579s-24.475-14.688-24.475-17.864c0,0-12.207-7.6-5.32-13.458s7.444,3.97,7.444,3.97,3.751-5.438,3.97-20.048A63.736,63.736,0,0,0,159.616,130Z" transform="translate(43.173 15.917)" fill="#ffac73"/><path d="M118.157,167.709c6.173,5.677,16.2,6.748,25.466,5.417a3.017,3.017,0,0,0,2.778-2.62c.158-2.838.318-5.677.575-8.515L115.12,146.41l2.461,20.306S117.78,167.094,118.157,167.709Z" transform="translate(45.626 32.08)" fill="#ffac73"/><path d="M136.83,170.7a25.881,25.881,0,0,0,3.712-.4,2.917,2.917,0,0,0,2.68-2.541c0-1.468.139-2.957.238-4.427-6.748,0-18.753-1.588-25.09-14.092a27.253,27.253,0,0,0,18.46,21.458Z" transform="translate(48.827 34.868)" fill="#e5894a"/><path d="M270.65,113.936a194.859,194.859,0,0,1,34.041.139c15.205,1.329,34,8.853,43.193,22.708,13.776,20.782-7.84,37.535-26.34,46.666a141.506,141.506,0,0,1-61.375,15.265c-18.738.1-40.1-2.917-55.8-13.891-17.468-12.128-12.028-36.186,5.955-46.229,14.152-7.94,22.708-12.9,37.973-17.864C254.953,118.7,263.749,114.393,270.65,113.936Z" transform="translate(123.044 -0.572)" fill="none" stroke="#f7931e" stroke-miterlimit="10" stroke-width="2"/><path d="M204.07,191.792s1.746-28.047,2.4-34.994c.6-6.272,2.68-33.744,19.849-42.537,21.834-11,46.9-25.282,70.108-18.639,18.817,5.4,25.229,70.505,25,74.852C321.162,178.275,262.8,219.5,204.07,191.792Z" transform="translate(133.238 -19.614)" fill="#193773"/><path d="M223.06,105.352s-3.97,24.415,18.977,26.34C258.115,133.043,254.563,120,254.563,120s7.94,6.39,16.237,1.449-5.32-24.4-11.592-25.686S238.007,94.772,223.06,105.352Z" transform="translate(151.684 -18.329)" fill="#fff"/><circle cx="18.163" cy="18.163" r="18.163" transform="matrix(0.668, -0.744, 0.744, 0.668, 344.064, 27.018)" fill="#663f20"/><path d="M274.925,91.866a21.834,21.834,0,0,0,4.744-12.7,20.606,20.606,0,0,0-.318-6.69,9.329,9.329,0,0,0-4.327-5.379,22.271,22.271,0,0,1-4.229-3.612S223.3,54.257,217.858,81.847h0c-.992,7.761-.417,31.144,20.837,40.93,21.577,9.925,11.552-25.308,11.552-25.308" transform="translate(146.545 -51.056)" fill="#663f20"/><path d="M254.756,103.774,226.39,89.883l2.4,19.725s.2.376.575.972c5.14,4.744,13.058,6.154,20.9,5.637A3.553,3.553,0,0,0,253.564,113C253.862,109.967,254.219,106.854,254.756,103.774Z" transform="translate(155.222 -23.598)" fill="#fcded2"/><path d="M263,79.895s1.667-9.25-8.751-10.857c-2.778-.436-5.459-.436-7.165,2.164-2.084,3.216-2.382,7.007-5.4,9.724a10.62,10.62,0,0,1-11.075,1.767c0,3.077.378,5.379,4.128,6.39S260.065,85.929,263,79.895Z" transform="translate(159.38 -44.341)" fill="#fcded2"/><path d="M235.027,82.414c11.314-3.97,22.087-6.411,34.082-4.784a1.985,1.985,0,0,1,1.985,1.985c.874-4.8,1.985-16.932-7.741-20.624-12.287-4.624-32.811,1.211-38.488,12.287a35.234,35.234,0,0,0-3.97,17.706C225,85.809,230.1,84.141,235.027,82.414Z" transform="translate(149.781 -55.593)" fill="#663f20"/><path d="M251.193,105.288l-.457,4.148s-18.877-.536-21.5-15.886Z" transform="translate(158.029 -19.984)" fill="#eab1a2"/><path d="M269.677,74V98.99c0,7.146-7.047,25.8-14.65,25.8-11.91,0-23.819-14.272-23.819-17.389,0,0-11.91-7.384-5.161-13.058s7.223,3.97,7.223,3.97,3.633-5.279,3.97-19.472A61.911,61.911,0,0,0,269.677,74Z" transform="translate(152.844 -39.239)" fill="#fcded2"/><path d="M258.571,162.318a35.112,35.112,0,0,0,3.156-2.2,211.709,211.709,0,0,0-5.67-42.161c-.575-2.421-4.288-1.389-3.712,1.032a207.087,207.087,0,0,1,5.618,43.669Z" transform="translate(180.724 2.695)" fill="#061e44"/><path d="M220.093,172.448a11.509,11.509,0,0,1,1.647.158l1.41-48.651a1.985,1.985,0,0,0-3.851,0l-1.41,48.334a13.4,13.4,0,0,1,2.2.158Z" transform="translate(146.85 8.485)" fill="#061e44"/><path d="M289.409,155.888a2.72,2.72,0,0,0-1.171-1.667,9.029,9.029,0,0,0-.874-9.925,5.955,5.955,0,0,0-2.7-1.628,8.416,8.416,0,0,0-3.534-5.459,9.329,9.329,0,0,0-5.8-8.257h0a10.179,10.179,0,0,0-1.688-.735,2.74,2.74,0,0,0-1.707,0,13.891,13.891,0,0,0-1.786,0,10.835,10.835,0,0,0-15.88-3.831,6.491,6.491,0,0,0-.972-.913c-2.5-1.767-5.518-1.468-8.376-.992a8.556,8.556,0,0,0-6.47,3.831,6.292,6.292,0,0,0-.457,1.052,6.112,6.112,0,0,0-7.444,1.866,6.889,6.889,0,0,0-1.329,2.759,8.335,8.335,0,0,0-4.883,1.171,6.868,6.868,0,0,0-2.9,6.352,9.705,9.705,0,0,0-.933,1.25,9.389,9.389,0,0,0-5.955,4.387,7.662,7.662,0,0,0-.992,4.665,6.848,6.848,0,0,0-5.776,6.054,5.4,5.4,0,0,0,2.143,5.261,7.084,7.084,0,0,0-.2,7.223,8.436,8.436,0,0,0,2.521,2.8,6.668,6.668,0,0,0-1.271,8.417,7.265,7.265,0,0,0,5.18,3.414,1.528,1.528,0,0,0,.218.536,7.162,7.162,0,0,0,.695,1.032c-.795,3.077-1.25,6.927,2.481,7.94a7.742,7.742,0,0,0,3.812,0,5.261,5.261,0,0,0,6.946,1.231l.933.278a3.017,3.017,0,0,0,3.673-1.985,13.577,13.577,0,0,0-.258-7.94c.318-.795.656-1.568,1.013-2.342a3,3,0,0,0,.795-1.607c.357-.675.714-1.329,1.092-1.985a19.158,19.158,0,0,1,1.588-1.846,2.7,2.7,0,0,0,2.878-2.084,7.662,7.662,0,0,0-.4-5.042,6.251,6.251,0,0,0,3.314-4.7,7.518,7.518,0,0,0,0-1.628,5.479,5.479,0,0,0,3.791-.119,6.112,6.112,0,0,0,3.414-3.1c2.581,2.421,6.173,3.97,9.488,2.164a6.372,6.372,0,0,0,3.056-3.355,7.94,7.94,0,0,0,3.812.953,4.128,4.128,0,0,0,3.712-2.2,6.569,6.569,0,0,0,2.143,1.31l.874,10.759a3.333,3.333,0,0,0,.119.635,3.077,3.077,0,0,0,3.334,4.506,14.725,14.725,0,0,0,10.718-18.5Z" transform="translate(136.825 8.151)" fill="#312725"/><path d="M265.842,178.6a200.658,200.658,0,0,1,35.054.139c15.661,1.37,35.014,9.131,44.483,23.383,14.193,21.392-8.079,38.667-27.135,48.035a145.716,145.716,0,0,1-63.2,15.721c-19.293.1-41.287-3-57.464-14.212-18-12.485-12.387-37.278,6.094-47.639,14.569-8.139,23.383-13.28,39.1-18.3C249.645,183.559,258.677,179.054,265.842,178.6Z" transform="translate(116.027 63.095)" fill="none" stroke="#f7931e" stroke-miterlimit="10" stroke-width="2"/><path d="M198.56,259.4s1.806-28.881,2.481-36.026c.615-6.451,2.759-34.855,20.524-43.808,22.43-11.334,48.313-26.043,72.193-19.195,19.372,5.556,25.976,72.589,25.8,77.076C319.126,245.463,258.982,287.918,198.56,259.4Z" transform="translate(127.811 44.106)" fill="#ff8386"/><path d="M221.68,182.254c0,1.31,15.88,19.353,19.652,17.011s5.577-18.475,7.94-17.011,10.974,11.91,12.248,11.075-1.866-28.484-4.406-33.129S221.68,171.973,221.68,182.254Z" transform="translate(150.582 44.867)" fill="#2b415d"/><path d="M265.048,137.07v25.8c.1,7.344-3,27.214-15.086,26.579s-24.482-14.688-24.482-17.865c0,0-12.207-7.6-5.32-13.458s7.444,3.97,7.444,3.97,3.751-5.438,3.97-20.048a63.736,63.736,0,0,0,33.466-4.983Z" transform="translate(147.014 22.881)" fill="#c27a62"/><path d="M223.587,174.779c6.173,5.677,16.2,6.748,25.466,5.417a3.017,3.017,0,0,0,2.778-2.62c.158-2.838.318-5.677.575-8.515L220.55,153.48l2.462,20.306S223.21,174.164,223.587,174.779Z" transform="translate(149.469 39.045)" fill="#c27a62"/><path d="M242.26,177.768a25.876,25.876,0,0,0,3.712-.4,2.917,2.917,0,0,0,2.68-2.541c0-1.468.139-2.957.238-4.427-6.748,0-18.753-1.588-25.09-14.094a27.253,27.253,0,0,0,18.461,21.459Z" transform="translate(152.671 41.832)" fill="#a8523b"/><path d="M217.823,233.18h1.786q-.258-18.1,0-36.225a1.985,1.985,0,1,0-3.97,0q-.158,17.983,0,35.967Z" transform="translate(144.555 79.91)" fill="#bc424b"/><path d="M250.391,229.908h0l.417-.2,1.072-.6,1.271-.695,1.052-.575q0-21.517-1.271-43.014c-.139-2.541-4.109-2.56-3.97,0q1.231,22.133,1.29,44.3a1.985,1.985,0,0,0,.139.774Z" transform="translate(177.451 68.037)" fill="#bc424b"/><path d="M268.443,141.05a2.778,2.778,0,0,0-2.461-2.124,6.571,6.571,0,0,0,0-1.291c-.12-3.831-6.075-3.831-5.955,0a1.132,1.132,0,0,1-.258.774,3.275,3.275,0,0,0-2.977-2.957,2.819,2.819,0,0,0-1.389-.376,3,3,0,0,0-2.977,2.977,7.7,7.7,0,0,0,.278,1.489c-.556.833-1.131,1.667-1.746,2.461-.376.476-3.434,3.156-4.128,1.985h.1a2.917,2.917,0,0,0-1.985-4.983,2.8,2.8,0,0,0-2.164-1.013,3,3,0,0,0-2.977,2.977v.417a8.594,8.594,0,0,1-5.955-.4,1.985,1.985,0,0,0-.795-.139,5.3,5.3,0,0,0-.457-.853,3.056,3.056,0,0,0-4.069-1.072,3,3,0,0,0-1.072,4.069,3.089,3.089,0,0,1,.278.436h0a2.521,2.521,0,0,0-1.31,0,2.979,2.979,0,1,0-5.737,1.607,6.57,6.57,0,0,0,3.97,4.645,1.18,1.18,0,0,0,.1.575,2.7,2.7,0,0,0-1.985,4.248,9.922,9.922,0,0,0,1.449,1.607c-.139.4-.258.795-.378,1.19a3.263,3.263,0,0,0-.158.338,15.879,15.879,0,0,0,1.132,12.8,3,3,0,0,0,5.14,0,25.19,25.19,0,0,0,2.5-12.188,7.719,7.719,0,0,0,1.152-.357,8.4,8.4,0,0,0,4.485-4.823,8.474,8.474,0,0,0,5.656-3.97,7.165,7.165,0,0,0,5.062.913,9.568,9.568,0,0,0,5.5-3.355,7.523,7.523,0,0,0,6.769,3.592,7.622,7.622,0,0,0,7.362-9.21Z" transform="translate(149.493 20.608)" fill="#312725"/><path d="M310.553,152s-4.387,35.174,15.558,41.982,30.613-10.9,30.924-41.982" transform="translate(237.715 37.587)" fill="#d7b344"/><ellipse cx="23.244" cy="12.545" rx="23.244" ry="12.545" transform="translate(548.248 177.101)" fill="#06577a"/><path d="M339.6,186.01s0-48.73-24.891-68.54c0,0-13.28,7.94-9.925,20.068s17.626,3.116,20.088,9.488-4.9,8.237.119,14.725S339.6,173.545,339.6,186.01Z" transform="translate(231.896 3.577)" fill="#99ce34"/><path d="M324.657,189.3s-1.985-56.492,10.52-73.264,20.782,6.251,15.126,16.53-15.5,7.7-11.91,16.53,9.667,13.458,2.739,17.249S324.141,182.037,324.657,189.3Z" transform="translate(251.897 -3.684)" fill="#99ce34"/><path d="M156.946,129.3a19.293,19.293,0,0,0-13.577.735c-7.362,3.255-13.1,5.122-20.464,1.032a2.8,2.8,0,0,0-.615-.338h-.119a3.017,3.017,0,0,0-4.228,3.771c-.357,7.205-1.647,15.6-.457,22.986,0,5.062,6.63,29.456,27.094,30.885,0,0,10.759-.179,10.759-28.445a21.635,21.635,0,0,1-9.131,6.908c-3.97,1.211-13.6-1.092-21.517-5.459h0c-2.68-6.807-1.628-15.522-.992-23.244a23.7,23.7,0,0,0,11.391,1.468c7.384-.874,12.545-6.57,20.325-4.406a3.045,3.045,0,1,0,1.528-5.9Z" transform="translate(47.469 14.34)" fill="#4b1b13"/></g></svg>