<svg xmlns="http://www.w3.org/2000/svg" width="366.92" height="445.265" viewBox="0 0 366.92 445.265"><g transform="matrix(0.809, 0.588, -0.588, 0.809, 224.2, 0)"><ellipse cx="157.719" cy="37.659" rx="157.719" ry="37.659" transform="matrix(0.809, -0.588, 0.588, 0.809, 54.293, 417.835)" fill="#d6d6d6"/><path d="M9.536,0,0,243.163,168.466,381.432l7.946-205.814Z" transform="translate(0 0)" fill="#7ac379"/><path d="M9.536,0,36.554,224.886,168.466,381.432,0,243.163Z" transform="translate(0 0)" fill="#69a466"/><path d="M53.241,0,0,16.688,45.295,205.814Z" transform="translate(123.171 175.618)" fill="#85cc83"/><path d="M36.554,0,0,18.277,168.466,156.546Z" transform="translate(0 224.886)" fill="#599b58"/><path d="M86.617,0,0,32.581,131.912,189.127Z" transform="translate(36.554 192.305)" fill="#6db96c"/><path d="M113.635,192.305,0,0,166.876,175.618Z" transform="translate(9.536 0)" fill="#a2dda1"/></g></svg>