<svg xmlns="http://www.w3.org/2000/svg" width="1364" height="982.356" viewBox="0 0 1364 982.356"><g transform="translate(0 0.03)"><path d="M1092.519,835.365c-11.874-12.634-39.35-23.456-76.153-30.62V641.921h-1.683v-1.683H984.3v1.683H936.555c4.277-24.636,18.547-110.536,15.672-145.036,0,0,37.095-101.174,6.744-185.5,0,0,30.386,6.743,33.729-26.985,2.723-27.231,33.986-87.4-1.917-122.012-8.426-8.835-20.955-16.14-39.046-21.037l-8.777-24.543c5.727-9.057,9.268-21.282,9.268-34.757,0-18.15-6.381-34.056-15.941-42.985-5.5-5.844-12.225-9.35-19.482-9.35a24.987,24.987,0,0,0-15.193,5.446c.631.479,1.239.993,1.846,1.531-11.091,8.286-18.7,25.454-18.7,45.3,0,15.018,4.383,28.47,11.313,37.737l-4.57,29.72s-94.431-23.573-53.947,134.95c0,0,10.121,26.985,26.985,26.985,0,0-10.121,121.416,6.743,165.266,0,0-6.743,107.93,6.755,131.537v33.729H793.7V808.928C750.533,818.816,722.87,834,722.87,851c0,29.814,84.567,53.971,188.886,53.971s188.874-24.11,188.874-53.936C1100.629,845.591,1097.778,840.331,1092.519,835.365Z" transform="translate(153.045 -29.75)" fill="#dbdbdb"/><path d="M520.074,842.425c-11.021-11.757-36.615-21.82-70.917-28.493V662.41h-1.566v-1.566H419.344v1.566H374.933c3.985-22.918,17.262-102.846,14.585-134.962,0,0,34.523-94.162,6.276-172.629,0,0,28.248,6.276,31.391-25.1,2.536-25.337,31.625-81.33-1.788-113.539-7.842-8.181-19.494-15.018-36.323-19.552l-8.181-22.883c5.341-8.438,8.625-19.8,8.625-32.35,0-16.888-5.925-31.684-14.831-39.993-5.119-5.446-11.371-8.648-18.127-8.648a23.21,23.21,0,0,0-14.118,5.072c.584.444,1.169.923,1.718,1.414-10.32,7.713-17.414,23.69-17.414,42.155,0,14.024,4.09,26.494,10.518,35.061L333.012,204.1s-87.875-21.972-50.254,125.554c0,0,9.42,25.1,25.115,25.1,0,0-9.42,112.99,6.276,153.8,0,0-6.276,100.438,6.276,122.41v31.38H242V817.789c-40.168,9.2-65.915,23.374-65.915,39.187,0,27.733,78.7,50.254,175.773,50.254s175.761-22.486,175.761-50.254C527.624,851.939,524.971,847.042,520.074,842.425Z" transform="translate(-39.831 -19.117)" fill="#dbdbdb"/><path d="M728.668,808.041c-8.181-8.765-27.278-16.257-52.825-21.224V673.967h-1.169V672.8H653.637v1.169H620.563c2.968-17.075,12.856-76.62,10.869-100.508,0,0,25.711-70.122,4.675-128.557,0,0,21.037,4.675,23.374-18.7,1.893-18.875,23.561-60.574-1.332-84.567-5.844-6.124-14.515-11.184-27.055-14.562L625.016,310a45.58,45.58,0,0,0,6.428-24.1c0-12.575-4.418-23.6-11.056-29.79-3.81-4.055-8.461-6.44-13.487-6.44a17.3,17.3,0,0,0-10.518,3.787c.444.327.865.678,1.286,1.052-7.69,5.738-12.973,17.636-12.973,31.391,0,10.413,3.05,19.739,7.854,26.156l-3.179,20.6s-65.447-16.362-37.4,93.5c0,0,7.012,18.7,18.7,18.7,0,0-7.012,84.147,4.675,114.533,0,0-4.675,74.8,4.675,91.159V673.92H521.585v115.7C491.667,796.47,472.5,807,472.5,818.839c0,20.663,58.61,37.4,130.895,37.4s130.895-16.748,130.895-37.4C734.289,815.123,732.314,811.477,728.668,808.041Z" transform="translate(58.67 7.356)" fill="#dbdbdb"/><path d="M1121.454,791.318c-4.838-5.166-16.07-9.583-31.122-12.517V712.3h-.69v-.69h-12.4v.69h-19.494c1.753-10.062,7.585-45.159,6.4-59.242,0,0,15.193-41.337,2.758-75.779,0,0,12.4,2.758,13.779-11.021,1.169-11.114,13.884-35.692-.783-49.833-3.448-3.611-8.567-6.591-15.953-8.578l-3.588-10.051a26.765,26.765,0,0,0,3.787-14.2c0-7.41-2.606-13.908-6.51-17.531a10.928,10.928,0,0,0-7.959-3.8,10.215,10.215,0,0,0-6.194,2.232,9.187,9.187,0,0,1,.748.62c-4.523,3.378-7.632,10.39-7.632,18.5a26.038,26.038,0,0,0,4.675,15.415l-1.87,12.143s-38.567-9.642-22.042,55.1c0,0,4.137,11.021,11.021,11.021,0,0-4.126,49.6,2.758,67.5,0,0-2.758,44.1,2.758,53.76v13.779h-34.5v68.217C981.771,784.6,970.47,790.8,970.47,797.757c0,12.178,34.547,22.053,77.134,22.053s77.134-9.876,77.134-22.053C1124.774,795.49,1123.6,793.34,1121.454,791.318Z" transform="translate(194.816 43.222)" fill="#dbdbdb"/><path d="M261.455,791.318c-4.838-5.166-16.07-9.583-31.123-12.517V712.3h-.69v-.69h-12.4v.69H197.749c1.753-10.062,7.585-45.159,6.4-59.242,0,0,15.193-41.337,2.758-75.779,0,0,12.4,2.758,13.779-11.021,1.11-11.114,13.884-35.692-.783-49.833-3.506-3.611-8.567-6.591-15.953-8.578L200.367,497.8a26.763,26.763,0,0,0,3.787-14.2c0-7.41-2.606-13.908-6.51-17.531a10.928,10.928,0,0,0-7.959-3.8,10.214,10.214,0,0,0-6.194,2.232,9.111,9.111,0,0,1,.748.619c-4.523,3.378-7.632,10.39-7.632,18.5a26.039,26.039,0,0,0,4.6,15.392l-1.87,12.143s-38.567-9.642-22.042,55.1c0,0,4.137,11.021,11.021,11.021,0,0-4.126,49.6,2.758,67.5,0,0-2.758,44.1,2.758,53.76v13.779h-34.43v68.217c-17.636,4.032-28.937,10.238-28.937,17.192,0,12.178,34.547,22.053,77.134,22.053s77.134-9.876,77.134-22.053C264.774,795.49,263.6,793.34,261.455,791.318Z" transform="translate(-50.901 43.222)" fill="#dbdbdb"/><path d="M59.5,748.13h1364s-50.472,127.061-179.767,81.809S1037.165,838.7,966.2,863.528s-212.878,43.826-249.141,5.844-69.4-55.5-197.105-40.9-211.313,45.276-227.123,4.383S273.9,778.808,184.025,786.1,59.5,748.13,59.5,748.13Z" transform="translate(-59.5 91.447)" fill="#696969"/><path d="M711.785,400.9c-14.188,24.122-16.362,53.153-21.142,80.711-7.5,42.7-22.205,83.889-29.615,126.617-2.583,14.948-4.254,30.106-8.356,44.7-5.633,20.055-15.684,38.567-25.115,57.091-16.058,31.648-30.632,64.559-36.627,99.538-1.87,10.9-.409,25.711,10.39,28.049,3.085.69,6.556.14,9.186,1.893,1.543,1.017,2.524,2.665,3.763,4.032,4.745,5.236,12.914,5.844,19.693,3.939s12.692-6.089,18.98-9.35C677.9,825.27,707.5,826.8,735.5,828.624c5.154.327,10.939.97,14.2,4.99,1.648,2.045,2.337,4.675,3.565,7.012,4.348,8.473,15.824,12.412,24.449,8.391,3.226-1.508,6-3.927,9.35-5.166,10.25-3.822,21.037,4.464,32.011,4.523,15.777.07,27.651-16.642,43.417-17.215,10.752-.386,20.581,6.942,31.333,7.012,8.064,0,15.5-4.067,22.509-8.029l47.917-27.067A199.425,199.425,0,0,0,917.815,756.7c-13.195-9.35-16.759-28.049-24.812-42.073-5.318-9.279-10.694-18.7-13.288-29.066-1.87-7.48-2.244-15.263-4.09-22.755-2.559-10.331-7.83-19.739-12.014-29.521-16.6-38.754-16.035-82.978-31.239-122.3-4.277-11.079-9.782-21.679-13.58-32.934-5-14.819-6.954-30.526-12-45.322s-14.024-29.323-28.341-35.692a56.971,56.971,0,0,0-19.541-4.242C742.183,391.717,727.305,394.592,711.785,400.9Z" transform="translate(100.223 31.464)" fill="#242424"/><rect width="66.663" height="88.891" transform="translate(799.54 235.826)" fill="#fbc661"/><path d="M760.246,290.564c-3.389-.526-6.849,0-10.273,0-8.426-.105-10.822,10.074-19.225,10.9-10.25,1.005-24.461-5.481-33.028.245a33.174,33.174,0,0,1-4.955,2.852c-7.012,3.085-15.579,1.94-21.995,6.136S662,323.182,662,330.849a20.313,20.313,0,0,0,1.169,8.076c.9,2.185,2.4,4.079,3.3,6.264.631,1.543.958,3.191,1.484,4.78a39.128,39.128,0,0,0,5.844,10.1l14.843,20.651c3.892,5.423,2.337,12.131,2.969,18.781.467,5.107,1.659,10.156,1.648,15.275s-1.414,10.518-5.236,14.024q13.183-.806,26.284-2.419c7.2-.888,14.375-1.952,21.609-2.466,15.193-1.075,30.456.316,45.579,1.706-2.5-3.109-3.635-7.445-4.254-11.383-2.057-13.066-3.354-26.752.947-39.257a92.649,92.649,0,0,1,4.85-10.916l4.616-9.291c6.533-13.136,12.634-26.6,14.024-41.208a22.2,22.2,0,0,0-1.3-11.1c-2.022-4.523-6.393-7.7-11.1-9.244a39.023,39.023,0,0,0-14.726-1.286C769.946,292.153,764.851,291.265,760.246,290.564Z" transform="translate(105.208 14.215)" fill="#242424"/><path d="M706.732,289.308c1.063,2.782,2.337,5.762,1.508,8.637-1.543,5.7-9.42,6.86-12.856,11.687a2.489,2.489,0,0,0-.526,2.466,2.713,2.713,0,0,0,.631.736c6.416,5.586,15.7,6.066,24.2,5.972,12.4-.117,25.641-1.169,35.47-8.683,2.746-2.1,5.329-5.61,3.927-8.777-1.087-2.419-3.95-3.331-6.323-4.523-5.318-2.676-9.128-7.772-11.231-13.347a51.771,51.771,0,0,1-2.735-17.531,4.968,4.968,0,0,0-.631-2.922c-.818-1.169-2.337-1.344-3.775-1.438a112.864,112.864,0,0,0-23.994.958c-2.244.327-6.521.631-8.1,2.466s-.666,4.009-.362,6.007a89.738,89.738,0,0,0,4.792,18.29Z" transform="translate(109.995 9.324)" fill="#fbceb2"/><path d="M706.732,289.308c1.063,2.782,2.337,5.762,1.508,8.637-1.543,5.7-9.42,6.86-12.856,11.687a2.489,2.489,0,0,0-.526,2.466,2.713,2.713,0,0,0,.631.736c6.416,5.586,15.7,6.066,24.2,5.972,12.4-.117,25.641-1.169,35.47-8.683,2.746-2.1,5.329-5.61,3.927-8.777-1.087-2.419-3.95-3.331-6.323-4.523-5.318-2.676-9.128-7.772-11.231-13.347a51.771,51.771,0,0,1-2.735-17.531,4.968,4.968,0,0,0-.631-2.922c-.818-1.169-2.337-1.344-3.775-1.438a112.864,112.864,0,0,0-23.994.958c-2.244.327-6.521.631-8.1,2.466s-.666,4.009-.362,6.007a89.738,89.738,0,0,0,4.792,18.29Z" transform="translate(109.995 9.324)" opacity="0.05"/><circle cx="29.93" cy="29.93" r="29.93" transform="translate(801.394 227.434)" fill="#fbceb2"/><path d="M743.307,778.9a41.328,41.328,0,0,0-6.767,3.763,19.225,19.225,0,0,0,17.858,1.4c2.267-1.063,4.3-2.571,6.475-3.8C754.889,778.393,749.01,776.768,743.307,778.9Z" transform="translate(118.984 96.467)" opacity="0.1"/><path d="M629.771,775.411c-5.06,2.594-9.887,5.762-15.111,7.924,4.745,2.828,11.091,2.957,16.549,1.379,6.779-1.975,12.692-6.089,18.968-9.35,13.7-7.012,28.8-9.759,44.247-10.518C672.031,764.1,649.464,765.29,629.771,775.411Z" transform="translate(89.32 94.236)" opacity="0.1"/><path d="M897.061,756.692c-13.195-9.35-16.747-28.049-24.812-42.073-5.318-9.28-10.694-18.7-13.288-29.066-1.87-7.48-2.244-15.263-4.09-22.755-2.548-10.331-7.819-19.739-12-29.521-16.6-38.754-16.046-82.978-31.239-122.3-4.289-11.079-9.794-21.679-13.592-32.934-4.99-14.819-7.012-30.526-12-45.322s-14.024-29.323-28.341-35.692c-6.112-2.735-12.856-3.8-19.541-4.242a101.681,101.681,0,0,0-16.923.292,52.454,52.454,0,0,1,16.093,3.974c14.281,6.369,23.292,20.9,28.341,35.692s7.012,30.5,12,45.322c3.8,11.255,9.35,21.855,13.58,32.934,15.193,39.327,14.644,83.55,31.239,122.3,4.2,9.782,9.466,19.19,12.014,29.521,1.847,7.491,2.221,15.275,4.09,22.755,2.594,10.366,7.971,19.786,13.288,29.066,8.052,14.024,11.617,32.654,24.812,42.073a199.425,199.425,0,0,1,46.456,46.351L875.23,830.133a82.74,82.74,0,0,1-12.564,6.147,35.412,35.412,0,0,0,10.518,1.882c8.052,0,15.485-4.067,22.5-8.029L943.6,803.066A199.2,199.2,0,0,0,897.061,756.692Z" transform="translate(126.896 31.462)" opacity="0.1"/><path d="M811.729,767.89c-12.353.444-22.322,10.81-33.659,15.193a38.168,38.168,0,0,0,10.647,1.975c12.692,0,22.86-10.74,34.558-15.263A34.335,34.335,0,0,0,811.729,767.89Z" transform="translate(131.1 94.78)" opacity="0.1"/><path d="M722.055,411.548V389.471H711.338c.573-3.307,2.489-14.866,2.1-19.506,0,0,4.99-13.6.912-24.94a3.67,3.67,0,0,0,4.535-3.623c.444-4.535,6.8-15.871-5.446-19.05l-1.25-3.506a8.789,8.789,0,0,0,1.25-4.675c0-3.752-2.034-6.8-4.535-6.8s-4.535,3.05-4.535,6.8a8.578,8.578,0,0,0,1.519,5.084l-.619,4.044s-12.692-3.179-7.246,18.138c0,0,1.356,3.623,3.623,3.623,0,0-1.356,16.362.912,22.205,0,0-.912,14.5.9,17.682v4.535H692.125v22.451c-5.844,1.332-9.525,3.378-9.525,5.668,0,4.009,11.371,7.258,25.4,7.258s25.4-3.249,25.4-7.258C733.392,415.066,728.892,412.845,722.055,411.548Z" transform="translate(106.054 17.09)" fill="#731414"/><path d="M705.658,313.982a8.825,8.825,0,0,1-1.239,4.675l1.239,3.506c12.248,3.167,5.9,14.5,5.446,19.038a3.682,3.682,0,0,1-4.535,3.635c4.079,11.336-.911,24.94-.911,24.94.386,4.675-1.531,16.187-2.1,19.506h4.091c.573-3.319,2.5-14.866,2.115-19.506,0,0,4.979-13.6.9-24.94a3.681,3.681,0,0,0,4.534-3.635c.456-4.535,6.8-15.871-5.434-19.038l-1.25-3.506a8.823,8.823,0,0,0,1.25-4.675c0-3.752-2.034-6.8-4.535-6.8a3.354,3.354,0,0,0-2.045.736,7.679,7.679,0,0,1,2.478,6.066Z" transform="translate(109.686 17.058)" opacity="0.1"/><path d="M718.5,399.5V377.43h-4.079V399.5c6.825,1.309,11.336,3.506,11.336,6.042,0,3.822-10.285,6.942-23.374,7.234h2.045c14.024,0,25.4-3.249,25.4-7.258C729.833,403.025,725.31,400.8,718.5,399.5Z" transform="translate(110.132 28.909)" opacity="0.1"/><path d="M735.834,214.371c-9.35-2.337-19.4-4.126-28.306-.538a40.472,40.472,0,0,0-11.126,7.328c-3.027,2.63-5.972,5.54-7.585,9.221-1.928,4.441-1.706,9.466-1.823,14.3s-.76,10.027-3.974,13.639c-1.251,1.4-2.875,2.548-3.681,4.254-1.169,2.337-.4,5.224.748,7.6s2.676,4.616,3.2,7.211c.713,3.588-.678,7.3-2.653,10.39s-4.546,5.75-6.591,8.8-3.635,7.421-1.776,10.775c1.169,2.162,3.576,3.506,4.792,5.633.584,1.017.877,2.2,1.5,3.191,1.718,2.723,5.329,3.389,8.52,3.716,5.107.538,10.8.7,14.761-2.571,2.723-2.244,4.1-5.738,4.768-9.209s.69-7.012,1.309-10.518c.444-2.5,1.169-5,.958-7.526-.292-3.366-2.244-6.323-3.775-9.35a25.547,25.547,0,0,1-3.109-13.756c.456-4.745,2.957-9.431,7.141-11.687,2.945-1.625,6.58-2.034,9.081-4.277,3.962-3.506,3.366-9.724,4.079-14.971a7.141,7.141,0,0,1,1.11-3.284c1.239-1.683,3.506-2.139,5.61-2.337,4.9-.421,10.1.105,14.2,2.828a18.36,18.36,0,0,1,7.363,11.313,32.4,32.4,0,0,1-.245,13.732c.164-1.975,3.2-2.513,4.6-1.169s1.473,3.658,1.075,5.6c-1.636,8.181-9.046,14.024-11.535,21.972a19.868,19.868,0,0,0,4.277,19.05,5.413,5.413,0,0,0,2.337,1.66,10,10,0,0,0,2.84.14c3.728,0,6.93,2.56,9.77,4.99s5.844,5.037,9.63,5.329,7.865-3.12,6.743-6.685a7.224,7.224,0,0,0-1.905-2.782c-2.337-2.408-5.4-4.3-7.012-7.246-2.817-4.944-1.1-11.126.678-16.537s3.506-11.605.619-16.525c-1.356-2.337-3.623-4.09-4.675-6.568a12.365,12.365,0,0,1-.9-4.511c-.245-5.657,1.169-11.418,0-16.935a20.686,20.686,0,0,0-9.735-12.715,28.133,28.133,0,0,0-7.807-3.261c-1.063-.269-2.676-.21-3.424-1.005s-1.005-2.209-1.952-3.1a19.507,19.507,0,0,0-8.122-3.611Z" transform="translate(106.073 0.967)" fill="#0d0d0d"/><path d="M743.535,245.3a3.155,3.155,0,0,0-3.728-.3,38.31,38.31,0,0,1-.806,7.386c.514-1.648,3.226-2.022,4.535-.736a3.951,3.951,0,0,1,.666.876,15.753,15.753,0,0,0,.409-1.624C745.007,248.96,744.949,246.693,743.535,245.3Z" transform="translate(118.682 6.488)" opacity="0.05"/><path d="M753,244.568a13.591,13.591,0,0,0,.105,1.391,57.655,57.655,0,0,0,.222-9.618,74.473,74.473,0,0,0-.327,8.228Z" transform="translate(122.075 5.107)" opacity="0.05"/><path d="M739.01,251.25a2.224,2.224,0,0,0-.07.386Z" transform="translate(118.378 7.623)" opacity="0.05"/><path d="M755.713,281.394a49.623,49.623,0,0,1,1.87-7.012c1.414-4.277,2.77-9.057,1.846-13.312a46.623,46.623,0,0,1-1.847,7.012C756.169,272.313,754.79,277.116,755.713,281.394Z" transform="translate(122.909 9.279)" opacity="0.05"/><path d="M746.174,242.807a25.375,25.375,0,0,1,.467,2.77,28.424,28.424,0,0,0-.467-9.116,18.349,18.349,0,0,0-7.363-11.325c-4.1-2.711-9.35-3.249-14.2-2.828-2.08.187-4.371.643-5.61,2.337a7.1,7.1,0,0,0-1.11,3.272c-.713,5.259-.117,11.442-4.079,14.971-2.5,2.256-6.136,2.665-9.081,4.289a15.035,15.035,0,0,0-7.141,11.687,20.371,20.371,0,0,0,.187,5.06,14.644,14.644,0,0,1,7.012-10.448c2.945-1.624,6.58-2.034,9.081-4.277,3.962-3.506,3.366-9.724,4.079-14.971a7.142,7.142,0,0,1,1.11-3.284c1.239-1.683,3.506-2.139,5.61-2.337,4.9-.421,10.1.105,14.2,2.828A18.36,18.36,0,0,1,746.174,242.807Z" transform="translate(109.941 2.718)" opacity="0.05"/><path d="M768.477,296.361a7.094,7.094,0,0,1-5.586,2.337c-3.728-.292-6.8-2.9-9.63-5.329s-6.042-4.944-9.77-4.99a10.446,10.446,0,0,1-2.84-.14,5.515,5.515,0,0,1-2.337-1.66,19.587,19.587,0,0,1-4.885-10.179,19.868,19.868,0,0,0,4.885,16.525,5.412,5.412,0,0,0,2.337,1.66,10.007,10.007,0,0,0,2.84.14c3.728,0,6.93,2.559,9.77,4.99s5.844,5.037,9.63,5.329,7.865-3.12,6.743-6.685a5.775,5.775,0,0,0-1.157-2Z" transform="translate(118.736 11.865)" opacity="0.05"/><path d="M681.954,269.013a11.325,11.325,0,0,0,.28-5.271c-.526-2.583-2.069-4.827-3.2-7.2q-.351-.725-.631-1.473c0,.07-.082.14-.117.222-1.169,2.337-.4,5.224.748,7.6a48.826,48.826,0,0,1,2.922,6.124Z" transform="translate(102.557 8.267)" opacity="0.05"/><path d="M708.537,277.14c-.2,1.04-.432,2.069-.619,3.109-.619,3.506-.654,7.012-1.309,10.518s-2.045,7.012-4.768,9.209c-3.962,3.261-9.654,3.109-14.761,2.571-3.191-.327-6.8-1.005-8.52-3.716-.619-1.005-.912-2.174-1.5-3.2-1.169-2.15-3.588-3.506-4.792-5.633-.082-.14-.152-.3-.222-.456a8.32,8.32,0,0,0,.222,6.814c1.169,2.162,3.576,3.506,4.792,5.633.584,1.017.877,2.2,1.5,3.191,1.718,2.723,5.329,3.389,8.52,3.716,5.107.538,10.8.7,14.761-2.571,2.723-2.244,4.1-5.738,4.768-9.209s.69-7.012,1.309-10.518c.444-2.5,1.169-5,.958-7.526a11.684,11.684,0,0,0-.339-1.928Z" transform="translate(102.44 11.99)" opacity="0.05"/><path d="M668.081,315.14s-5.844,3.179-9.525,32.654-5.446,60.773-5.446,60.773,0,26.307,24.94,27.207c0,0,9.981,1.823,13.16,4.09s53.059-13.16,29.475-16.362-32.2-1.823-32.2-1.823-12.7-8.181-12.7-15.871,12.7-53.433,12.7-53.433Z" transform="translate(99.336 18.401)" fill="#fbceb2"/><path d="M666.495,338.648c.631,1.543.958,3.191,1.484,4.78a38.926,38.926,0,0,0,5.844,10.1c2.968,4.137,7.737,13.884,10.694,18.021a69.112,69.112,0,0,1,7.713-17.238L666.611,312.82s-2.01,1.075-4.406,7.83c-.129,1.227-.2,2.454-.21,3.658a20.312,20.312,0,0,0,1.169,8.076C664.1,334.569,665.595,336.463,666.495,338.648Z" transform="translate(99.598 18.009)" fill="#242424"/><path d="M741.395,263.789a1.356,1.356,0,0,0-.9-1.274v-1.531a1.344,1.344,0,0,0,.9-1.274,1.367,1.367,0,1,0-1.812,1.274v1.531a1.356,1.356,0,0,0,0,2.559v1.519a1.356,1.356,0,0,0,0,2.559v1.531a1.356,1.356,0,1,0,.912,0v-1.531a1.356,1.356,0,0,0,0-2.559v-1.519a1.356,1.356,0,0,0,.9-1.286Z" transform="translate(118.438 8.816)" fill="#eeeff3"/><path d="M792.588,299.62a126.792,126.792,0,0,1,14.959,37.644c4.535,21.317,7.713,25.852,7.713,25.852s19.961,50.792-2.267,53.971-61.217,0-61.217,0-78.911,13.6-51.248-4.535,49.459-15.883,49.459-15.883,33.109-.9,37.644-4.079l8.613-.9L775.84,333.641Z" transform="translate(113.494 15.783)" fill="#fbceb2"/><path d="M760.41,333.182l9.513,22.205c6.428-12.961,13.826-28.844,15.193-43.242a57.025,57.025,0,0,0-.175-7.994,23.079,23.079,0,0,0-4.079-5.9Z" transform="translate(125.3 15.551)" fill="#242424"/><path d="M496.295,547.27s-22.942,47.753-7.012,64.606S515.976,545.4,515.976,545.4Z" transform="translate(52.578 57.246)" fill="#de9d6e"/><path d="M406.754,738.354l-25.711,32.3s-51.972,20.6-4.219,23.374c0,0,23.374-1.87,28.049-5.154s7.491-9.829,16.853-6.077,20.137-3.752,20.137-3.752,1.4-36.522-7.959-40.729S406.754,738.354,406.754,738.354Z" transform="translate(20.292 89.478)" fill="#0d0d0d"/><path d="M483.188,748.12,477.1,774.813s-13.58,31.835,6.089,27.149,29.5-9.829,31.368-19.19,7.012-19.669,7.012-19.669-5.621-14.515-10.764-14.983S483.188,748.12,483.188,748.12Z" transform="translate(50.183 91.41)" fill="#0d0d0d"/><path d="M375.62,477.261s-16.853,115.7-5.142,178.811,25.711,127.821,25.711,127.821-16.362,37.4,39.736,12.645c0,0-3.74-92.713-14.983-128.756s5.773-84.708,10.448-86.11c0,0,18.7,94.116,36.989,125.051S496.838,809.7,496.838,809.7s39.339,5.142,38.871-5.154-7.491-97.388-30.386-128.288c0,0-19.669-51.5-7.012-104.879s-13.58-71.641-13.58-71.641L443.077,450.58l-41.664-9.35Z" transform="translate(25.251 39.672)" fill="#242424"/><path d="M482.721,303.744a13.266,13.266,0,0,1-2.092,4.231,12.106,12.106,0,0,1-3.413,2.559,65.441,65.441,0,0,1-12.984,5.575c-1.169,2.337.725,4.967,2.524,6.86l5.283,5.586c3.085,3.249,6.171,6.5,9.5,9.49A82.7,82.7,0,0,0,503.2,352.07c4.137,1.835,9.478,3.144,12.8.07s2.489-8.473,4.5-12.482a2.256,2.256,0,0,0-.386-3.576c-2.711-2.676-3.261-6.907-2.688-10.67s2.1-7.316,2.98-11.021,1.04-7.842-.935-11.1a15.358,15.358,0,0,0-4.418-4.348,40.9,40.9,0,0,0-12.645-6.03c-2.337-.643-4.675-1.075-7.012-1.765-1.449-.444-5.376-3.156-6.615-2.933C486.227,288.633,483.621,301.021,482.721,303.744Z" transform="translate(48.151 13.856)" fill="#de9d6e"/><path d="M482.721,303.744a13.266,13.266,0,0,1-2.092,4.231,12.106,12.106,0,0,1-3.413,2.559,65.441,65.441,0,0,1-12.984,5.575c-1.169,2.337.725,4.967,2.524,6.86l5.283,5.586c3.085,3.249,6.171,6.5,9.5,9.49A82.7,82.7,0,0,0,503.2,352.07c4.137,1.835,9.478,3.144,12.8.07s2.489-8.473,4.5-12.482a2.256,2.256,0,0,0-.386-3.576c-2.711-2.676-3.261-6.907-2.688-10.67s2.1-7.316,2.98-11.021,1.04-7.842-.935-11.1a15.358,15.358,0,0,0-4.418-4.348,40.9,40.9,0,0,0-12.645-6.03c-2.337-.643-4.675-1.075-7.012-1.765-1.449-.444-5.376-3.156-6.615-2.933C486.227,288.633,483.621,301.021,482.721,303.744Z" transform="translate(48.151 13.856)" opacity="0.1"/><path d="M486.317,309.1a3.038,3.038,0,0,0-.947-2.5,2.63,2.63,0,0,0-1.5-.316c-11.056,0-20.02,8.7-26.974,17.273-14.656,18.056-26.214,38.439-36.23,59.44-6.159,12.938-11.874,27.488-7.912,41.267a42.364,42.364,0,0,0,5.528,11.488,62.888,62.888,0,0,0,11.967,13.475,13.429,13.429,0,0,0,6.218,3.389c3.506.561,6.837-1.367,9.829-3.226q9.011-5.61,17.94-11.336c9.665-6.194,19.33-12.493,27.85-20.183s15.918-16.876,20.113-27.558c1.788-4.535,2.98-9.35,4.99-13.744,3.062-6.767,8.006-12.739,9.759-19.961.83-3.448.9-7.012,1.788-10.46.7-2.746,1.917-5.341,2.5-8.111s.444-5.844-1.321-8.111c-2.969-3.763-8.742-3.2-13.44-2.232-6.124,1.262-17.04,4.371-22.871.666C488.62,325.168,486.668,314.521,486.317,309.1Z" transform="translate(36.081 16.905)" fill="#eeeff3"/><path d="M474.461,329.665l-6.556.467-4.675-1.882,3.752-11.231s13.206,1.5,14.562,5.656c0,0,.982,2.863,2.571,3.284s8.181-.514,9.548,2.758.935,21.037-7.959,18.7L481.5,336.175l-1.882-2.8S473.994,332.47,474.461,329.665Z" transform="translate(47.14 18.718)" fill="#242424"/><path d="M436.83,437.866s14.515-95.518,59.931-129.726c0,0,.467-8.894-7.491-7.959s-41.2-5.621-41.2-5.621L416.7,355.438s-7.012,56.647-12.178,66.008-37.457,83.819-37.457,83.819,18.267,61.333,45.416-21.037c0,0-21.037,66.955,38.392,73.511s52.44-3.752,52.44-3.752l7.012-48.688V468.767l13.113-25.711,53.375-67.89S540.587,325,533.668,329.481C533.68,329.434,488.8,400.409,436.83,437.866Z" transform="translate(26.721 14.929)" fill="#242424"/><path d="M459.14,298.332l-7.012-3.752s-21.539,7.959-29.031,38.871c0,0-18.255,13.1-30.386,22.942,0,0-16.362-30.386-16.362-40.741,0,0-27.161,18.267-33.25,13.58,0,0,16.362,75.381,47.3,69.76s42.576-23.877,42.576-23.877Z" transform="translate(17.415 14.932)" fill="#242424"/><path d="M538.562,366.307l17.788-2.817s11.243,14.983-8.894,36.989l-12.178,74.446s1.4,24.812-2.8,43.546S521.7,594.788,521.7,594.788s-21.528-7.959-33.238-6.556l17.788-172.722Z" transform="translate(55.178 26.558)" fill="#242424"/><path d="M375.549,323.049s-9.84-59-26.693-36.989,1.87,52.44,1.87,52.44Z" transform="translate(15.131 12.665)" fill="#de9d6e"/><circle cx="37.924" cy="37.924" r="37.924" transform="translate(530.866 262.94)" fill="#de9d6e"/><path d="M546.684,254.548a26.794,26.794,0,0,1-2.337-3.424c-2.279-3.342-5.843-5.528-9.35-7.491-6.416-3.506-13.732-6.8-20.873-5.1-4.944,1.169-9.139,4.675-14.118,5.68s-10.892-.105-14.246,3.635-1.87,9.63-4.757,13.5c-1.6,2.139-4.57,4.1-3.763,6.65.339,1.075,1.332,1.835,1.788,2.875.806,1.823-.187,3.915-.234,5.914-.058,2.957,1.963,5.493,3.389,8.087s2.2,6.217,0,8.251a114.532,114.532,0,0,1,24.262-14.878,7.176,7.176,0,0,1-.912,3.424,112.94,112.94,0,0,0,13.919-2.957l-2.408,4.616,10.331-4.511c2.793-1.227,6.3-2.337,8.683-.467a7.854,7.854,0,0,1,2.221,3.868,51.358,51.358,0,0,1,2.407,13.031c.257,5,0,10.518,3.237,14.34a9.735,9.735,0,0,0,14.223-.093c.912-3.506-.456-7.129-.526-10.729-.105-5.247,2.536-10.179,3.015-15.4.619-6.6-3.284-10.518-5.06-16.362-.69-2.244-.269-4.9-1.589-7.012C552.282,257.376,548.8,256.792,546.684,254.548Z" transform="translate(52.581 5.4)" fill="#242424"/><path d="M354.5,360.4l13.522-22.708-11.033-6.568c2.618-3.062,11.687-13.767,14.106-18.769,0,0,13.463-10.939,16.21-25.1,0,0,3.646,3.436,6.9-.958s16.712-12.154,6.066-22.918l.853-4.359a10.519,10.519,0,0,0,4.149-4.044c2.337-3.868,2.069-8.181-.5-9.77s-6.533.351-8.835,4.219a10.3,10.3,0,0,0-1.543,6.147l-3.074,3.74s-11.126-11.044-18.582,14.211c0,0-.818,4.57,1.519,5.96,0,0-11.407,15.953-12.68,23.374,0,0-9.817,14.375-9.9,18.7l-2.782,4.675L337.2,319.284,323.46,342.39c-6.79-2.185-11.862-2.337-13.265,0-2.454,4.126,7.246,14.433,21.679,23.023s28.107,12.2,30.562,8.087C364.014,370.964,360.729,365.916,354.5,360.4Z" transform="translate(7.97 6.508)" fill="#731414"/><path d="M394.777,252.127a10.612,10.612,0,0,1-4.137,4.055l-.865,4.348c10.659,10.764-2.817,18.536-6.066,22.93a4.394,4.394,0,0,1-6.884.947c-2.746,14.165-16.21,25.1-16.21,25.1-2.443,5.014-11.488,15.719-14.106,18.769l4.2,2.5c2.618-3.05,11.687-13.767,14.106-18.769,0,0,13.463-10.939,16.21-25.1,0,0,3.646,3.436,6.9-.958s16.712-12.155,6.066-22.918l.853-4.359a10.518,10.518,0,0,0,4.137-4.044c2.337-3.857,2.08-8.181-.491-9.77a4.067,4.067,0,0,0-2.548-.5,9.186,9.186,0,0,1-1.157,7.772Z" transform="translate(16.832 6.453)" opacity="0.1"/><path d="M351.561,347.009,365.083,324.3l-4.172-2.5-13.522,22.708c6.229,5.528,9.5,10.518,7.959,13.16-2.337,3.915-14.831.83-28.458-6.86.69.421,1.379.853,2.092,1.274,14.422,8.59,28.107,12.213,30.562,8.087C361.028,357.574,357.755,352.525,351.561,347.009Z" transform="translate(11.277 19.524)" opacity="0.1"/></g></svg>