<svg xmlns="http://www.w3.org/2000/svg" xmlns:xlink="http://www.w3.org/1999/xlink" width="609.553" height="521.871" viewBox="0 0 609.553 521.871"><defs><linearGradient id="a" x1="0.942" y1="-0.104" x2="0.154" y2="1.004" gradientUnits="objectBoundingBox"><stop offset="0" stop-color="#18b1bc"/><stop offset="0.99" stop-color="#19939b"/><stop offset="1" stop-color="#855af1"/></linearGradient></defs><g transform="translate(-49.264 -15.998)"><path d="M128.494,71.385C103.368,62.223,72.23,84.451,58.912,121.02s-3.867,73.641,21.261,82.8a33.754,33.754,0,0,0,6.166,1.585c5.3,18.594,23.541,13.53,23.541,13.53-7.229-4.349-9.22-9.664-9.161-14.071,19.651-4.5,39.217-23.654,49.075-50.66C163.111,117.62,153.62,80.548,128.494,71.385Z" transform="translate(3.372 49.743)" fill="#d7b344"/><path d="M432.072,129.322a31.138,31.138,0,0,0-29.841-25.281,33.342,33.342,0,0,0-18.014,4.929l-.89.251a3.868,3.868,0,0,0,0-.986c-1.274-14.806-13.761-27.466-28.993-27.06a30.4,30.4,0,0,0-19.58,7.924c-5.8,5.238-8.7,12.988-9.8,20.546,0,.386-.116.773-.155,1.179a34.231,34.231,0,0,0-16.875,2.88,28.2,28.2,0,0,0-15.648,29.766A35.332,35.332,0,0,0,311.792,170.9a37.71,37.71,0,0,0,13.685,3.575c3.639,15.466,19.928,27.639,35.256,31.7,19.329,5.084,47.394.522,54.912-20.778a40.255,40.255,0,0,0,1.932-10.917,26.868,26.868,0,0,0-.986-9.664,19.152,19.152,0,0,0-1.778-3.867,29.5,29.5,0,0,0,17.26-31.622Z" transform="translate(226.377 60.789)" fill="#d7b344"/><path d="M304.861,132.628a11.6,11.6,0,0,0-3.208-1.217,13.086,13.086,0,0,0-6.03,0,12.371,12.371,0,0,0-3.324,1.274,13.7,13.7,0,0,0-2.9,2.125,10.071,10.071,0,0,0-2.9,7,10.552,10.552,0,0,0,1.623,5.431,9.89,9.89,0,0,0,1.121,2.365,12.373,12.373,0,0,0,7.171,5.335,13.1,13.1,0,0,0,3,.406,15.291,15.291,0,0,0,1.681-.193,10.147,10.147,0,0,0,4.367-1.468,12.009,12.009,0,0,0,5.3-7.151,12.428,12.428,0,0,0-5.9-13.9Z" transform="translate(221.306 107.333)" fill="#d7b344"/><ellipse cx="264.722" cy="130.196" rx="264.722" ry="130.196" transform="translate(66.381 277.477)" fill="#18bdc9"/><path d="M190.26,298.756l112.1-41.981,46.388-4.465,5.006,2.589,1.585,7.731L272.85,311.282S218.325,319.786,190.26,298.756Z" transform="translate(131.528 220.441)" fill="url(#a)"/><path d="M77.933,281.336,201.77,219.62l34.572,15.27,5.006,2.589,4.272,11.867L136.472,317a403.8,403.8,0,0,1-58.546-35.663Z" transform="translate(26.738 189.947)" fill="#18b1bc"/><path d="M293.6,240.822c-.5-.639-21.667-30.037-22.228-29.841s-6.532,35.641-6.532,35.641l19.329,14.052" transform="translate(201.098 181.888)" fill="#ffddb0"/><path d="M286.806,226.73c.231,3.344.309,9.664-1.7,11.037s-4.194-8.37-7.518-9.9-10.4,6.3-11.694,9.935,9.491,8.581,9.76,9.567l1.044,3.17a194.1,194.1,0,0,1-6.07,21.784,23.081,23.081,0,0,0,0,12.273,14.808,14.808,0,0,0,3.768,5.411,8.117,8.117,0,0,0,10.322,0,27.271,27.271,0,0,0,7.191-9.509c6.958-16.236,11.281-39.526,11.281-39.526L289.1,223S286.574,223.386,286.806,226.73Z" transform="translate(201.979 193.1)" fill="#603813"/><path d="M268.85,279.967s6.418,4.6,12.1-3.479S297.011,230.1,297.011,230.1l3.383,4.311s-6.321,26.325-8.233,31.526S280.562,296.532,268.85,279.967Z" transform="translate(204.84 199.723)" fill="#996236"/><path d="M254.953,266.87c-.444,2.049,22.461,11.945,22.461,11.945s15.617-33.826,12.486-57.542L258.2,194.93" transform="translate(191.869 166.916)" fill="#d7b344"/><path d="M254.953,266.87c-.444,2.049,22.461,11.945,22.461,11.945s15.617-33.826,12.486-57.542L258.2,194.93" transform="translate(191.869 166.916)" opacity="0.1"/><path d="M265.258,268.14l5.18-33.96L250.3,240.81l-6.958,32.916,2.939,9.141" transform="translate(181.042 203.529)" fill="#ffddb0"/><path d="M279.673,255.789c-2.32,2.435-6.914,6.707-9.316,6.146s3.383-8.717,2.28-12.235-11.6-3.457-15.211-1.932,0,12.8-.522,13.665l-1.638,2.9a194.1,194.1,0,0,1-20.179,10.109,23.078,23.078,0,0,0-9.045,8.312,14.8,14.8,0,0,0-1.488,6.436,8.119,8.119,0,0,0,6.94,7.642,27.275,27.275,0,0,0,11.867-1.063c16.7-5.8,36.859-18.206,36.859-18.206l3.867-22.517a3.132,3.132,0,0,0-4.407.753Z" transform="translate(163.516 215.281)" fill="#603813"/><path d="M225.135,272.589s.89,7.848,10.708,6.629,45.209-19.329,45.209-19.329l-.928,5.411s-23.851,13.008-28.876,15.1S220.729,292.4,225.135,272.589Z" transform="translate(163.585 227.512)" fill="#996236"/><path d="M237.95,264.1s1.663,81.7,6.55,103.7c0,0,7.964,8.312,34.25,1.334,0,0,39.082-107,8.717-225.91S237.95,264.1,237.95,264.1Z" transform="translate(176.015 87.81)" fill="#d7b344"/><path d="M254.291,118.81s-42.31,76.907-41.537,115.724,57.154,80.444,57.154,80.444l17.859-194.56" transform="translate(152.501 95.907)" fill="#d7b344"/><path d="M248.26,130.682a38.018,38.018,0,0,1-7.5-3.867,17.938,17.938,0,0,1-4.214-6.9,2.224,2.224,0,0,0-2.125-1.372h0l-3.093-4.118a2.125,2.125,0,0,0-1.41-.85c-.406-.522-.811-1.063-1.179-1.638-1.456-2.223-4.967-.213-3.6,2.087l.484.793a2.28,2.28,0,0,0-1.063,1.585q-1.178.855-2.4,1.652a1.932,1.932,0,0,0-.193,1.6l.426,1.3a1.8,1.8,0,0,0-.986,1.74,1.6,1.6,0,0,0-.966,1.82,87.443,87.443,0,0,0,6,22.788c.928,2.223,4.367,1.527,4.156-.5q1.392,2.223,2.957,4.349a2.318,2.318,0,0,0,4.118-2.125l-.677-1.255h0c1.024,1.6,2.107,3.17,3.228,4.7a2.087,2.087,0,0,0,3.6-2.087l-1.7-3.537c.657.444,2.365,2.3,3.015,1.932,4-2.667-1.237-9.664-2.822-12.582l-1.527-2.8a22.439,22.439,0,0,0,6.339,1.217,2.087,2.087,0,0,0,1.121-3.9Z" transform="translate(159.655 88.597)" fill="#ffddb0"/><path d="M228.393,134.824q-1.8-4.947-3.324-9.993a.622.622,0,1,0-1.2.329q1.527,5.046,3.324,9.993C227.467,135.9,228.674,135.577,228.393,134.824Z" transform="translate(162.859 101.098)" fill="#603813"/><path d="M232.975,136.611l-6.05-12.468c-.348-.715-1.43,0-1.083.639l6.05,12.486C232.24,137.956,233.323,137.346,232.975,136.611Z" transform="translate(164.657 100.605)" fill="#603813"/><path d="M236.84,136.413q-4.118-6.572-7.615-13.53c-.364-.715-1.43,0-1.083.639q3.5,6.94,7.615,13.53C236.184,137.714,237.266,137.09,236.84,136.413Z" transform="translate(166.802 99.428)" fill="#603813"/><g transform="translate(507.808 141.954)" opacity="0.1"><path d="M432.072,129.322a31.138,31.138,0,0,0-29.841-25.281,33.342,33.342,0,0,0-18.014,4.929l-.89.251a3.868,3.868,0,0,0,0-.986c-1.274-14.806-13.761-27.466-28.993-27.06a30.4,30.4,0,0,0-19.58,7.924c-5.8,5.238-8.7,12.988-9.8,20.546,0,.386-.116.773-.155,1.179a34.231,34.231,0,0,0-16.875,2.88,28.2,28.2,0,0,0-15.648,29.766A35.332,35.332,0,0,0,311.792,170.9a37.71,37.71,0,0,0,13.685,3.575c3.639,15.466,19.928,27.639,35.256,31.7,19.329,5.084,47.394.522,54.912-20.778a40.255,40.255,0,0,0,1.932-10.917,26.868,26.868,0,0,0-.986-9.664,19.152,19.152,0,0,0-1.778-3.867,29.5,29.5,0,0,0,17.26-31.622Z" transform="translate(-281.431 -81.165)"/><path d="M304.861,132.628a11.6,11.6,0,0,0-3.208-1.217,13.086,13.086,0,0,0-6.03,0,12.371,12.371,0,0,0-3.324,1.274,13.7,13.7,0,0,0-2.9,2.125,10.071,10.071,0,0,0-2.9,7,10.552,10.552,0,0,0,1.623,5.431,9.89,9.89,0,0,0,1.121,2.365,12.373,12.373,0,0,0,7.171,5.335,13.1,13.1,0,0,0,3,.406,15.291,15.291,0,0,0,1.681-.193,10.147,10.147,0,0,0,4.367-1.468,12.009,12.009,0,0,0,5.3-7.151,12.428,12.428,0,0,0-5.9-13.9Z" transform="translate(-286.502 -34.623)"/></g><path d="M128.494,71.385C103.368,62.223,72.23,84.451,58.912,121.02s-3.867,73.641,21.261,82.8a33.754,33.754,0,0,0,6.166,1.585c5.3,18.594,23.541,13.53,23.541,13.53-7.229-4.349-9.22-9.664-9.161-14.071,19.651-4.5,39.217-23.654,49.075-50.66C163.111,117.62,153.62,80.548,128.494,71.385Z" transform="translate(3.372 49.743)" opacity="0.1"/><path d="M132.673,108.07l-15.037,38,16.74,1.82s8.756-30.461,59.918-31.2-15.466,94.882-24.837,110.083-14.826,41.6-12.97,60.729L188.824,299.3s-5.624-42.523,7.346-58.739,48.573-80.424,42-106.944-20.1-13.53-20.1-13.53" transform="translate(63.78 85.887)" fill="#ff9e03"/><path d="M188.855,313.967l30.192-12.6s.271-12.351-.948-32.375,38.656-77.932,45.036-106.3S227.3,83.013,178.281,93.8c-56.053,12.351-60.671,66.96-60.671,66.96L143.994,173.8s23.638-50.467,57.316-42.941,30.5,48.553,30.5,48.553L196.2,255.21S181.491,275.14,188.855,313.967Z" transform="translate(63.755 71.207)" fill="#ffc50c"/><circle cx="28.258" cy="28.258" r="28.258" transform="translate(224.101 389.214)" fill="#ffc50c"/><path d="M158.534,234.243c.793-10.244,7.48-19.058,16.081-24.431a28.258,28.258,0,1,0,5.046,53.444C167.832,258.867,157.53,247.464,158.534,234.243Z" transform="translate(84.72 180.137)" fill="#ff9e03"/><ellipse cx="70.491" cy="48.378" rx="70.491" ry="48.378" transform="translate(49.264 240.411) rotate(-69.95)" fill="#d7b344"/><path d="M94.424,135.94s-10.65,14.418,5.8,24.277c0,0-24.548,6.882-24.972-24.277" transform="translate(24.242 111.887)" fill="#d7b344"/><path d="M425.773,129.322a31.138,31.138,0,0,0-29.824-25.281,33.342,33.342,0,0,0-18.014,4.929l-.89.251a3.865,3.865,0,0,0,0-.986c-1.274-14.806-13.761-27.466-28.993-27.06a30.4,30.4,0,0,0-19.58,7.924c-5.8,5.238-8.7,12.988-9.8,20.546,0,.386-.116.773-.155,1.179a34.231,34.231,0,0,0-16.893,2.88,28.2,28.2,0,0,0-15.648,29.766A35.332,35.332,0,0,0,305.493,170.9a37.71,37.71,0,0,0,13.685,3.575c3.639,15.466,19.928,27.639,35.256,31.7,19.329,5.084,47.394.522,54.912-20.778a40.255,40.255,0,0,0,1.932-10.917,26.87,26.87,0,0,0-.986-9.664,19.148,19.148,0,0,0-1.778-3.867,29.5,29.5,0,0,0,17.258-31.624Z" transform="translate(220.5 60.789)" fill="#d7b344"/><path d="M302.637,132.1a11.6,11.6,0,0,0-3.208-1.217,13.087,13.087,0,0,0-6.03,0,12.371,12.371,0,0,0-3.324,1.274,13.7,13.7,0,0,0-2.911,2.165,10.069,10.069,0,0,0-2.9,7,10.554,10.554,0,0,0,1.623,5.431,9.894,9.894,0,0,0,1.121,2.365,12.373,12.373,0,0,0,7.171,5.335,13.1,13.1,0,0,0,3,.406,15.321,15.321,0,0,0,1.681-.193,10.148,10.148,0,0,0,4.367-1.468,12.009,12.009,0,0,0,5.3-7.151,12.427,12.427,0,0,0-5.875-13.936Z" transform="translate(219.218 106.839)" fill="#d7b344"/><path d="M252.1,26.671S243.185,16.331,240.736,16,146.665,43.062,141.5,47.507s-5.095,19.116-3.19,28.567,12.932,59.338,15.191,61.31,9.085,3.614,15.466,2.455" transform="translate(81.96)" fill="#c13127"/><path d="M251.3,120.12,166.831,135.1a13.723,13.723,0,0,1-15.985-11L139.585,59.931a13.53,13.53,0,0,1,10.051-15.366L238.23,21.612a13.723,13.723,0,0,1,17.2,11.771l7.113,72.173A13.53,13.53,0,0,1,251.3,120.128Z" transform="translate(84.078 4.798)" fill="#ea5343"/><path d="M213.688,64.79s2.262,33.322,0,34.39S191.77,79.75,191.77,79.75" transform="translate(132.936 45.515)" fill="#ea5343"/><path d="M281.751,75.235s-22.808-1.141-40.918,4.582S201.4,100.865,203.7,116.54s25.224,48.921,25.224,48.921L256.8,150.25s-13.53-21.434-10.708-25.126,9.1-3.867,9.1-3.867l5.3,51.413s31.718,7.267,56.381,0l-3.286-18.614a18.98,18.98,0,0,0,19.329-15.947C336.276,121.255,324.853,77.418,281.751,75.235Z" transform="translate(143.908 55.171)" fill="#aeaeae"/><path d="M236.729,62c-.715.812-.231,3.712-.213,4.658a88.172,88.172,0,0,0,.657,9.664c.812,7.615,2.28,15.907,9.935,19.986,9.471,5.046,18.632-1.508,22.441-9.664,1.508-3.286,2.145-20.41-1.527-23.581S249.891,47.018,236.729,62Z" transform="translate(174.51 36.285)" fill="#ffddb0"/><path d="M241.452,72.239c-.464.619-6.914-.364-10.051-5.972S234.938,48.447,243,48.6a19.6,19.6,0,0,1,13.492,6.05s7.229-3.537,12.313-.715a16.74,16.74,0,0,1,6.958,7.384s6.436.546,8.079,6.223-5.353,24.564-6.359,25.281-2.977.135-3.672-2.242-.116-10.573-2.28-10.863-1.274,2.86-5.9,2.378-5.3-6.882-8.717-8.814S246.3,65.589,241.452,72.239Z" transform="translate(169.168 30.413)" fill="#ffc50c"/><path d="M239.909,65.087a.85.85,0,0,0-.271.56,1.374,1.374,0,0,0,2.242,1.585C243.058,65.865,241.319,63.778,239.909,65.087Z" transform="translate(177.38 45.406)" fill="#42210b"/><path d="M243.8,61.471a3.867,3.867,0,0,0-5.238.677c-.753.966.6,2.338,1.372,1.372a1.932,1.932,0,0,1,2.9-.364C243.813,63.907,244.781,62.226,243.8,61.471Z" transform="translate(176.374 41.74)" fill="#42210b"/><path d="M244.3,72.332c-.85-.289-.657-.619-.546-1.392a17.836,17.836,0,0,1,.386-1.76l.773-3.5a1,1,0,0,0-1.932-.522,45.167,45.167,0,0,0-1.372,6.4c-.1,1.488.773,2.2,2.107,2.647S245.418,72.72,244.3,72.332Z" transform="translate(179.422 45.22)" fill="#42210b"/><path d="M247.421,65a1.543,1.543,0,0,0-1.488,1.778,1.41,1.41,0,0,0,.89,1.585,1.709,1.709,0,0,0,.6-3.363Z" transform="translate(183.437 45.711)" fill="#42210b"/><path d="M251.619,61.707a5.566,5.566,0,0,0-5.8.155c-1.044.677,0,2.365.966,1.663a3.639,3.639,0,0,1,3.867-.155.966.966,0,0,0,.966-1.663Z" transform="translate(182.951 41.949)" fill="#42210b"/><path d="M247.443,69.318q-1.932.91-3.867,1.623c-1.159.426-.657,2.3.522,1.932q2.223-.812,4.349-1.82C249.55,70.459,248.564,68.8,247.443,69.318Z" transform="translate(180.65 49.646)" fill="#42210b"/><path d="M266.757,79.142c-1.237-2.475-4.29-1.527-6.225-.546a66.083,66.083,0,0,0-6.958,4.6,108.766,108.766,0,0,0-9.413-6q-2.784-1.565-5.662-2.977c-1.547-.753-3.363-1.74-4.755-.155-2.435,2.784,1.778,5.3,4.407,6.823a4.194,4.194,0,0,0-2.435,1.932,3.639,3.639,0,0,0,.1,3.712l.193.271a4.851,4.851,0,0,0-2.784,2.547,3.557,3.557,0,0,0,.557,3.859,3.459,3.459,0,0,0,.546.484,4.111,4.111,0,0,0-.546.406,3.866,3.866,0,0,0-1.237,3.5,4.716,4.716,0,0,0,3.981,3.768c0,.966,1.932,2.32,3.053,2.629a9.314,9.314,0,0,0,1.7.329q.329,1.6.619,3.208a71.008,71.008,0,0,1,7.036-2.493,1.237,1.237,0,0,1,.6,0l2.2-1a1.314,1.314,0,0,1,1.255,0c1.585-1.121,3.151-2.262,4.658-3.479q-.193-1.488-.329-2.995a2.573,2.573,0,0,0-.1-.5V89.076l.364-.231a19.715,19.715,0,0,0,6.321-3.867C265.48,83.607,267.858,81.365,266.757,79.142Z" transform="translate(170.923 53.371)" fill="#ffddb0"/><path d="M242.469,80.988q-3.248-1.932-6.55-3.867a.628.628,0,1,0-.639,1.083q3.286,1.932,6.55,3.867a.628.628,0,0,0,.639-1.083Z" transform="translate(173.235 56.936)" fill="#603813"/><path d="M237.706,81.5a8.871,8.871,0,0,1-2.435-1.354c-.619-.484-1.508.386-.89.89a10.747,10.747,0,0,0,2.977,1.663C238.073,82.99,238.408,81.773,237.706,81.5Z" transform="translate(172.491 59.709)" fill="#603813"/><path d="M237.551,85.036a20.257,20.257,0,0,1-3.517-1.527c-.7-.386-1.334.7-.639,1.083a22.017,22.017,0,0,0,3.867,1.638C237.975,86.47,238.3,85.268,237.551,85.036Z" transform="translate(171.484 62.901)" fill="#603813"/><path d="M295.456,115.884a65.891,65.891,0,0,1-34.657-27.7,1.392,1.392,0,0,0-1.932-.5,1.159,1.159,0,0,0-1.6-.677,212.608,212.608,0,0,0-25.126,12.158,1.372,1.372,0,0,0-.426,2.049,50.969,50.969,0,0,0,50.833,42.967,1.456,1.456,0,1,0,0-2.9A48.051,48.051,0,0,1,234.648,101.1a206.682,206.682,0,0,1,23.445-11.281l.251-.135a69.041,69.041,0,0,0,36.377,28.993C296.46,119.285,297.214,116.483,295.456,115.884Z" transform="translate(169.922 66.13)" fill="#5e5e5e"/><path d="M242.021,183.468q0-16.758.386-33.516a2.087,2.087,0,0,0-4.156,0q-1.024,59.377.464,118.773.426,16.758,1.044,33.516c.1,2.667,4.252,2.688,4.156,0Q241.654,242.884,242.021,183.468Z" transform="translate(175.906 123.194)" fill="#603813"/><path d="M257.523,76.77c-2.911-4.678-11.6,2.223-14.263,4.232-.832.639.329,1.8,1.159,1.159,1.334-1.044,2.8-1.932,4.194-2.822,1.8-1.237,3.867-3.479,6.339-2.86,3.867.948.946,4.967-.85,6.321a15.3,15.3,0,0,1-2.338,1.41,20.76,20.76,0,0,1-4.387,2.223c-.966.386-.546,1.932.426,1.565C251.143,86.763,260.556,81.544,257.523,76.77Z" transform="translate(180.699 55.201)" fill="#42210b"/><path d="M252.134,83.337c-4.252-3.015-11.867-7.731-16.352-10.4-.677-.386-1.719.426-1.044.832,4.483,2.647,12.544,7.731,16.8,10.65C252.149,84.864,252.844,83.783,252.134,83.337Z" transform="translate(172.813 53.022)" fill="#42210b"/></g></svg>