<svg xmlns="http://www.w3.org/2000/svg" xmlns:xlink="http://www.w3.org/1999/xlink" width="609.553" height="396.896" viewBox="0 0 609.553 396.896"><defs><linearGradient id="a" x1="0.318" y1="0.706" x2="0.514" y2="0.335" gradientUnits="objectBoundingBox"><stop offset="0" stop-opacity="0.031"/><stop offset="0.97" stop-color="#7f4a00"/></linearGradient><linearGradient id="b" x1="0.307" y1="0.754" x2="0.502" y2="0.474" xlink:href="#a"/><linearGradient id="c" x1="0.153" y1="1.482" x2="0.454" y2="0.479" gradientUnits="objectBoundingBox"><stop offset="0" stop-color="#fff" stop-opacity="0"/><stop offset="1" stop-color="#d43500"/></linearGradient></defs><g transform="translate(-20.203 -54.563)"><path d="M334.016,430.7,617.908,262.914c9.037-5.155,16.786-13.4,7.969-18.9L340.956,79.839c-4.278-2.646-10.772-4.38-15.119-1.85l-298,172.95c-9.037,5.24-10.652,19.912-1.615,25.152L296.579,430.424A37.8,37.8,0,0,0,334.016,430.7Z" transform="translate(0 15.936)" fill="#18bdc9"/><path d="M251.706,175c-20.136,7.147-52.95,13.178-73.875,17.61a1.546,1.546,0,0,1-.636.481,19.964,19.964,0,0,1-17.42,0l-21.183,11.493L183.4,229.719l83.033-44.828C264.55,183.436,265.227,179.45,251.706,175Z" transform="translate(85.007 86.48)" opacity="0.32" fill="url(#a)"/><path d="M222.248,222.788V121.32H200.12V223.663C207.765,225.891,215.806,226.241,222.248,222.788Z" transform="translate(129.188 47.935)" fill="#a83f1e"/><path d="M207.86,121.48V225.456a22.335,22.335,0,0,0,8.8-2.456V121.48Z" transform="translate(134.746 48.051)" fill="#7f2b14"/><path d="M264.533,177.176c13.744-.67,31.32-5.6,26.185-20.908-3.041-9.054-12.4-17.026-18.382-24.193s-4.656-12.027-11.339-19c5.692.241,13.947-.842,15.343-6.477,1.22-4.948-25.307-35.219-36.817-47.5a7.353,7.353,0,0,0-9.962-.722c-13.744,10.893-48.621,39.893-43.741,48.244,2.937,5.051,8.882,6.787,14.208,7.251C187.451,126.459,173.14,142.213,171.68,159c-1.254,14.551,13.624,16.494,27.489,15.754-9.586,11.648-35.6,44.841-29.671,54.978,3.131,5.308,13.235,7.079,19.191,8.264a190.7,190.7,0,0,0,39.343,3.8c13.142-.142,26.664-1.477,39.12-5.893,6.615-2.354,13.864-5.584,19.087-10.5,6.1-5.738,2.7-11.855-1.271-17.61C278.071,197.587,271.3,187.381,264.533,177.176Z" transform="translate(106.576 1.581)" fill="#52af45"/><path d="M234.239,89.886s-16.716-1.083-28.383-.773l59,48.5s1.581-5.636-8.848-17.18S234.239,89.886,234.239,89.886Z" transform="translate(133.307 24.769)" fill="#0d5b23"/><path d="M238.811,126.85H204.45l56.042,48.1s6.185-4.535,2.456-11.082S238.811,126.85,238.811,126.85Z" transform="translate(132.297 51.907)" fill="#0d5b23"/><path d="M250.138,86.83s-6.047,26.8-7.181,29.945-10.7,18.812-10.7,18.812-8.951,4.88-6.872,5.961a5.378,5.378,0,0,0,4.363,0s-2.611,10.1-1.3,12.457,6.1,3.539,9.775,1.975,3.642-12.765,4.244-14.415,19.4-34.121,21.287-54.737S250.138,86.83,250.138,86.83Z" transform="translate(147.102 16.591)" fill="#ffc6b2"/><path d="M241.114,75.37s-5.859,6.649-5.944,29.207c0,0,16.922,7.491,20.41,3.746l4.21-21.24" transform="translate(154.356 14.942)" fill="#d7b344"/><path d="M262.81,132.32s3.677,30.152,5.755,37.8,3.935,56.146,3.935,56.146,6.477,4.621,12.027,0c0,0,2.92-39.24,1.392-49.721s0-51.782,0-51.782" transform="translate(174.203 50.405)" fill="#ffc6b2"/><path d="M250.588,125.737s-.739,22.232,0,29.568,3.916,53.758,3.916,53.758a8.254,8.254,0,0,0,10.755,0s3.558-22.971,3.131-27.368-1.168-59.873-1.168-59.873" transform="translate(165.191 48.295)" fill="#ffc6b2"/><path d="M245.714,61.5c0,.121,35.787,5.653,33.776,17.335s-17.439,7.57-17.439,7.57L244.15,65.28" transform="translate(160.804 4.982)" fill="#f18f22"/><path d="M263.046,201.231a6.306,6.306,0,0,0,1.2,6.992c3.092,3.3,7.147,1.718,10.565,0s13.108-10.308,11.769-12.559-1.839-11.734-1.839-11.734" transform="translate(173.965 92.893)" fill="#fff"/><path d="M272.484,181.7s-1.565,8.934-3.78,11.837-7.456,10-5.755,11.837,2.973-3.676,5.755-2.1,1.907,5.532,3.935,4.742,11.493-8.315,12.542-13.093-1.323-13.2-1.323-13.2" transform="translate(174.062 91.292)" fill="#d7b344"/><path d="M243.063,187.694s-.379,5.325,4.45,6.34,10.824-1.924,13.52-3.161,12.559-9.535,12.559-9.535l-1.168-11.6" transform="translate(160.018 82.704)" fill="#fff"/><path d="M259.364,169.27s-2.886,7.181-8.112,9.879-9.277,7.92-8.112,8.882,3.676-2.509,5.016-1.547,1.341,5.155,2.989,4.14,5.155,1.718,9.948-1.632,3.282-4.639,7.336-6.185,4.054-12.748,4.054-12.748S262.25,172.243,259.364,169.27Z" transform="translate(159.935 82.366)" fill="#d7b344"/><path d="M251.68,106.5a81.846,81.846,0,0,0-4.14,22.334c-.756,13.47,4.725,92.276,4.725,92.276a42.075,42.075,0,0,0,25.118,1.323v18.005s13.864,4.5,29.017-5.155c0,0-1.718-119.593-26.269-142.958" transform="translate(163.186 27.121)" fill="#f15a24"/><path d="M279.6,116.955a43.159,43.159,0,0,0,6.872-7.456,167.214,167.214,0,0,0-9.38-19.861c-5.342-8.711-10.7-18.658-21.287-21.217a70.442,70.442,0,0,0-12.18,6.872,17.335,17.335,0,0,0-5.016,5c-.206,8.59.515,14.019,5.6,20.427s8.487,16.922,11.906,22.575C263.817,125.2,272.27,121.885,279.6,116.955Z" transform="translate(156.806 9.951)" fill="#d7b344"/><path d="M246.767,66.55l4.57,5.692s-2.473,5.291-7.268,5.927l-2.989-3.435" transform="translate(158.599 8.608)" fill="#ffb39c"/><path d="M245.6,79.247c-8.779,7.319-13.057-.854-13.057-.854-12.027-15.049,7.147-23.211,7.147-23.211s14.93-5.429,17.4,15.858" transform="translate(149.625 0)" fill="#f18f22"/><path d="M229.71,69.005s13.642,19.346,21.2,13.093,2.663-12.714,2.663-12.714S246.7,56.275,238.39,58.354,229.71,69.005,229.71,69.005Z" transform="translate(150.435 2.563)" fill="#ffc6b2"/><path d="M230.413,70.966s9.346,3.969,14.862-.379,10.308,3.969,10.308,3.969a12.9,12.9,0,0,0-1.151-13.847c-2.9-4.295-13.624-7.508-19.053-3.435S226.5,67.806,230.413,70.966Z" transform="translate(149.732 0.602)" fill="#f18f22"/><path d="M262.031,117.222c-.121-1.083-1.839-1.1-1.718,0q4.81,45.288,7.577,90.746a.859.859,0,0,0,1.718,0Q266.843,162.507,262.031,117.222Z" transform="translate(172.405 44.406)" fill="#842e13"/><path d="M212.478,241.889c-10.308-7.061,23.3,16.047,14.208,7.336L164.12,283.192l40.461,22.7,74.94-40.495C275.379,262.059,216.778,244.777,212.478,241.889Z" transform="translate(103.338 133.531)" opacity="0.32" fill="url(#b)"/><path d="M224.114,289.176V252.033L190.87,233.461V270.32Z" transform="translate(122.546 128.457)" fill="#c96336"/><path d="M210.22,252.032l32.35-18.572s.894,37.454,0,38.037-32.35,17.678-32.35,17.678Z" transform="translate(136.44 128.457)" fill="#e27144"/><path d="M256.482,241.726l-32.367-19.781-33.244,19.781L224.115,260.3Z" transform="translate(122.547 120.19)" fill="#9b4726"/><path d="M195.9,250.542,183.87,229.7l34.069-20.032,11.2,21.1Z" transform="translate(117.52 111.375)" fill="#e27144"/><path d="M242.588,241.294l8.762-18.744-35.787,19.5-5.344,17.816Z" transform="translate(136.44 120.623)" fill="#c96336"/><path d="M354.277,95.8c.172,2.714.326,5.155.481,7.7l.7.379,4.7,2.135c3.9,1.718,7.817,3.558,11.734,5.274A15.6,15.6,0,0,0,381,112.9a26.522,26.522,0,0,0,3.161-1.03,2.6,2.6,0,0,1-.172.427c-3.558,6.2-7.1,12.438-10.72,18.589-1.85,3.144-4.914,3.7-8.882,1.975l-3.131-1.392-5.155-2.405-.962-.447c0,2.611-.085,5.155-.142,8.024-.258-.549-.4-.824-.515-1.138L345.1,112.479c-.206-.515-.361-.928-.121-1.341q4.535-7.473,9.037-14.943a3.617,3.617,0,0,1,.258-.4Z" transform="translate(233.117 29.612)" fill="#d7b344"/><path d="M318.65,82.71a28.193,28.193,0,0,0,9.467,9.192c1.375.756,2.749,1.392,4.14,2.028l.687.309,1.718.756,21.389,9.931.6.326.4,25.169-1.718-.773-7.92-3.591-5.274-2.419a25.463,25.463,0,0,1-7.989-5.515,15.015,15.015,0,0,1-3.195-4.81q-6.013-15-12.027-30.014Z" transform="translate(214.298 20.212)" fill="#d7b344"/><path d="M371.309,86.34l3.23,8.384c1.718,4.4,3.435,8.779,5.016,13.16a8.112,8.112,0,0,1-.309,7.749,6,6,0,0,1-5.429,2.25,23.435,23.435,0,0,1-9.45-2.371l-1.6-.773a2.353,2.353,0,0,1-.854-.945q-4.528-11.166-9.007-22.333a2.326,2.326,0,0,0-.189-.6Z" transform="translate(238.762 22.818)" fill="#d7b344"/><path d="M337.837,74.594a1.718,1.718,0,0,1,1.013,1.066q4.861,12.18,9.792,24.4a4.276,4.276,0,0,0,.309.945l-5.806-6.134c-.569.807-1.117,1.581-1.718,2.371-1.839,2.68-3.7,5.344-5.515,8.041-.258.4-.549.515-1.083.258a51.541,51.541,0,0,1-8.281-4.587,23.908,23.908,0,0,1-8.092-10.789,7.869,7.869,0,0,1,0-7.13c1.718-2.9,3.3-5.893,4.948-8.83l.292-.583-5.825-7.766c.309.1.464.142.619.206Z" transform="translate(213.546 8.107)" fill="#d7b344"/><path d="M340.879,55.284l.7.343a22.577,22.577,0,0,1,7.543,8.092,59.429,59.429,0,0,1,5.67,11.6,1.323,1.323,0,0,1,0,.945c-3.109,4.554-6.253,9.088-9.38,13.623a1.1,1.1,0,0,1-.206.189L326.07,68.616l.4-.6c2.973-4,5.927-8.041,8.966-12.027C336.7,54.391,338.629,54.2,340.879,55.284Z" transform="translate(219.626 0.03)" fill="#d7b344"/><path d="M360.159,65.934a18.452,18.452,0,0,1,9.122,10.205c1.615,3.865,3.131,7.732,4.742,11.717l6.013-.824.1.172-.653.945c-3.058,4.518-6.134,9.02-9.192,13.555-.292.464-.636.464-1.2.206-6.134-2.886-12.25-5.7-18.382-8.59l-.877-.447,5.446-1.581L354.78,90c-2.68-6.6-5.325-13.212-8.058-19.808a41.233,41.233,0,0,0-6.494-11.048c-.854-1.013-1.822-1.907-2.732-2.846-.258-.258-.549-.481-.807-.722V55.35L342,57.769l5.308,2.405C351.62,62.12,355.9,63.974,360.159,65.934Z" transform="translate(227.251 0.567)" fill="#d7b344"/><path d="M149.2,155.945V122.58H142v33.605a9.707,9.707,0,0,0,7.2-.24Z" transform="translate(87.455 48.841)" fill="#a83f1e"/><path d="M144.51,122.64v34.121a7.3,7.3,0,0,0,2.886-.807V122.64Z" transform="translate(89.257 48.883)" fill="#7f2b14"/><path d="M163.138,140.926c4.518-.223,10.308-1.839,8.59-6.872-1-2.973-4.072-5.584-6.03-7.937s-1.528-3.935-3.729-6.236c1.873,0,4.587-.275,5.034-2.135s-8.315-11.563-12.027-15.6a2.419,2.419,0,0,0-3.265-.241c-4.484,3.573-15.96,13.093-14.364,15.841a5.721,5.721,0,0,0,4.673,2.388c-4.127,4.14-8.83,9.311-9.311,14.809-.413,4.776,4.467,5.408,9.02,5.155-3.144,3.831-11.682,14.724-9.741,18.039,1.03,1.718,4.346,2.32,6.306,2.714a62.617,62.617,0,0,0,12.919,1.254,39.791,39.791,0,0,0,12.851-1.941,17.989,17.989,0,0,0,6.27-3.435c2.009-1.89.877-3.882-.413-5.789C167.5,147.627,165.284,144.276,163.138,140.926Z" transform="translate(80.064 33.62)" fill="#52af45"/><path d="M153.161,112.265s-5.5-.361-9.311-.258l19.363,15.926s.515-1.85-2.9-5.636a77.942,77.942,0,0,1-7.148-10.033Z" transform="translate(88.783 41.236)" fill="#0d5b23"/><path d="M154.71,124.4H143.44l18.4,15.807a2.8,2.8,0,0,0,.807-3.642C161.341,134.416,154.71,124.4,154.71,124.4Z" transform="translate(88.49 50.148)" fill="#0d5b23"/><path d="M153.4,235.092V201.78H146.15v33.605a9.707,9.707,0,0,0,7.251-.292Z" transform="translate(90.435 105.709)" fill="#a83f1e"/><path d="M148.69,201.84v34.121a7.3,7.3,0,0,0,2.886-.807V201.84Z" transform="translate(92.26 105.752)" fill="#7f2b14"/><path d="M167.278,220.126c4.518-.223,10.308-1.839,8.59-6.872-1-2.973-4.072-5.584-6.03-7.937s-1.528-3.935-3.729-6.236c1.873,0,4.587-.275,5.034-2.135s-8.315-11.563-12.027-15.6a2.419,2.419,0,0,0-3.265-.241c-4.484,3.573-15.96,13.093-14.364,15.841a5.721,5.721,0,0,0,4.673,2.388c-4.127,4.14-8.83,9.311-9.311,14.809-.413,4.776,4.467,5.408,9.02,5.155-3.144,3.831-11.682,14.724-9.741,18.039,1.03,1.718,4.346,2.32,6.306,2.714a62.616,62.616,0,0,0,12.919,1.254,39.79,39.79,0,0,0,12.851-1.941,17.989,17.989,0,0,0,6.27-3.435c2.009-1.89.877-3.882-.413-5.789C171.709,226.826,169.493,223.476,167.278,220.126Z" transform="translate(83.035 90.49)" fill="#52af45"/><path d="M157.351,191.465s-5.5-.361-9.311-.258L167.4,207.134s.515-1.85-2.9-5.636a77.942,77.942,0,0,1-7.147-10.033Z" transform="translate(91.793 98.104)" fill="#0d5b23"/><path d="M158.851,203.6H147.58l18.4,15.807a2.8,2.8,0,0,0,.807-3.642C165.481,213.616,158.851,203.6,158.851,203.6Z" transform="translate(91.461 107.016)" fill="#0d5b23"/><path d="M315.031,198.379V165.05H307.78v33.605a9.707,9.707,0,0,0,7.251-.275Z" transform="translate(206.492 79.336)" fill="#a83f1e"/><path d="M310.28,165.11v34.172a7.3,7.3,0,0,0,2.886-.807V165.11Z" transform="translate(208.287 79.38)" fill="#7f2b14"/><path d="M328.867,183.4c4.518-.223,10.308-1.839,8.59-6.872-1-2.973-4.072-5.584-6.03-7.937s-1.528-3.935-3.729-6.236c1.873,0,4.587-.275,5.034-2.135s-8.315-11.563-12.027-15.6a2.419,2.419,0,0,0-3.265-.241c-4.484,3.573-15.96,13.093-14.362,15.841a5.721,5.721,0,0,0,4.674,2.388c-4.127,4.14-8.83,9.311-9.311,14.809-.413,4.776,4.467,5.408,9.02,5.155-3.144,3.831-11.682,14.724-9.741,18.039,1.03,1.718,4.346,2.32,6.306,2.714a62.629,62.629,0,0,0,12.919,1.254,39.793,39.793,0,0,0,12.851-1.941,17.988,17.988,0,0,0,6.27-3.435c2.009-1.89.877-3.882-.413-5.789C333.3,190.1,331.049,186.746,328.867,183.4Z" transform="translate(199.064 64.116)" fill="#52af45"/><path d="M318.891,154.735s-5.5-.361-9.311-.258L328.943,170.4s.515-1.85-2.9-5.636a77.959,77.959,0,0,1-7.147-10.033Z" transform="translate(207.785 71.731)" fill="#0d5b23"/><path d="M320.441,166.87H309.17l18.4,15.807a2.8,2.8,0,0,0,.807-3.642C327.158,176.886,320.441,166.87,320.441,166.87Z" transform="translate(207.49 80.642)" fill="#0d5b23"/><path d="M57.591,200.391a174.347,174.347,0,0,1,17.439,10.067c8.865,5.927,22.128,10.531,30.341,17.352l63.877-36.732-86.194-13.9L50.65,196.2Q54.155,198.244,57.591,200.391Z" transform="translate(21.862 88.046)" opacity="0.32" fill="url(#c)"/><path d="M112.459,233.74v-52L65.9,155.74v51.541Z" transform="translate(32.812 72.651)" fill="#d7b344"/><path d="M93,181.735l45.288-25.995s1.254,52.418,0,53.259S93,233.74,93,233.74Z" transform="translate(52.271 72.651)" fill="#d7b344"/><path d="M157.747,167.308,112.459,139.63,65.9,167.308l46.559,26.012Z" transform="translate(32.812 61.083)" fill="#d7b344"/><path d="M72.93,179.658,56.11,150.484,103.8,122.43l15.686,29.551Z" transform="translate(25.782 48.733)" fill="#d7b344"/><path d="M93,181.735l45.288-25.995s1.254,52.418,0,53.259S93,233.74,93,233.74Z" transform="translate(52.271 72.651)" fill="#606060" opacity="0.49"/><path d="M158.058,166.778,112.77,139.1,66.234,166.778l46.536,25.995Z" transform="translate(33.05 60.702)" fill="#606060" opacity="0.8"/><path d="M138.288,166.7l12.267-26.235-50.094,27.283L93,192.718Z" transform="translate(52.271 61.684)" fill="#d7b344"/></g></svg>