<svg xmlns="http://www.w3.org/2000/svg" width="674" height="589.014" viewBox="0 0 674 589.014"><g transform="translate(-72.87 -131.959)"><ellipse cx="329.927" cy="37.66" rx="329.927" ry="37.66" transform="translate(87.015 645.653)" fill="#d6d6d6"/><ellipse cx="45.222" cy="6.82" rx="45.222" ry="6.82" transform="translate(72.87 635.452)" fill="#d6d6d6"/><g transform="translate(477.881 618.609)"><path d="M241.386,311.1s28.853,2.965,36.919-2.817c0,0,32.234-22.122,53.377,4.063s-7.888,44.481-7.888,44.481l-104.47,1.3-1.423-36.5S218.552,315.314,241.386,311.1Z" transform="translate(-192.843 -289.219)" fill="#19100c"/><path d="M225.162,315.238s7.591-2.343,5.931,1.69-4.952,8.392-1.394,7.74,6.583-3.44,5.545,0L234,328.82H215.05S215.465,314.467,225.162,315.238Z" transform="translate(-198.444 -259.727)" fill="#c6c6c6"/><path d="M251.459,309.228a20.491,20.491,0,0,0-20.165-8.451s-19.6,9.163-16.665,22.359,7.147,20.016,8.9,20.016,15.865,2.728,19.127,1.69,10.794-7.532,11.3-9.608S259.554,320.408,251.459,309.228Z" transform="translate(-199.861 -287.373)" fill="#19100c"/><path d="M220.05,309.474l7.265-13.4,8.718,17.466Z" transform="translate(-188.617 -296.07)" fill="#19100c"/><path d="M225.167,306.058,209.45,305.05l15.983,14.086Z" transform="translate(-209.45 -278.421)" fill="#19100c"/><path d="M220.445,328.412s-1.512-2.965,0-3.588-1.216-5.427.83-5.6,2.521,1.038,2.7-2.105a41.042,41.042,0,0,0-1.364-9.1s5.931,5.4,8.125,5.041,1.186-2.105,3.41-2.343a16.727,16.727,0,0,1,4.389,0c2.194,0,4.774-2.7,4.448,0a77.1,77.1,0,0,0,0,11.12,17.347,17.347,0,0,1-9.549,8.481S222.847,329.865,220.445,328.412Z" transform="translate(-189.161 -272.603)" fill="#c6c6c6"/></g><g transform="translate(369.496 279.198)"><path d="M205.015,192.487a72.858,72.858,0,0,0-32.115,0L187.371,208Z" transform="translate(-172.9 -163.759)" fill="#702229"/><path d="M203.332,184.749s-6.88,4.893-4.507,9.786,6.909,9.726-.593,10.023a9.608,9.608,0,0,0-8.9,7.858s-7.087,2.313-10.142,0c0,0-9.044-5.338-2.313-7.858s5.575-1.572,9.1-6.405-6.287-6.079-1.6-9.815,9.163-8.9,16.517-5.753" transform="translate(-169.972 -181.612)" fill="#efefef"/><path d="M172.9,210.516V191.3s17.792,5.219,32.115,0v38.342h-31.4Z" transform="translate(-172.9 -162.571)" fill="#a93f40"/><path d="M183.789,191.3s11.239,9.1,10.32,18.148-10.32,20.194-10.32,20.194v-6.761s6.435-6.435,6.909-13.433c0,0-.3-9.371-7-11.862Z" transform="translate(-151.674 -162.571)" fill="#a93f40"/></g><g transform="translate(256.842 333.467)"><path d="M144.38,231.17H245.766s4.24,4.893,0,8.1H144.38Z" transform="translate(-116.298 -138.481)" fill="#474746"/><path d="M162.636,300.7,134.91,203.136s3.529-5.4,7.8-2.224l27.726,97.531Z" transform="translate(-134.91 -199.913)" fill="#474746"/></g><g transform="translate(291.388 131.959)"><path d="M245.787,298.14v46.082H154.78v-21.38s41.515-5.338,58.863-22.448Z" transform="translate(-130.405 194.648)" fill="#161515"/><path d="M170.935,327.842v-21.38s-18.118-.712-24.375,21.38Z" transform="translate(-146.56 210.998)" fill="#f2f2f2"/><rect width="115.412" height="8.095" transform="translate(0 538.84)" fill="#efefef"/><path d="M185.95,301.691s-13.7,12.247-13.285,25.947l-4.745,2.7s1.542-23.16,18.03-31.967l1.9,1.572Z" transform="translate(-104.58 195.1)" fill="#f2f2f2"/><path d="M173.149,299.427s-1.008,20.58,1.245,24.85l2.965-.385s-1.987-23.723.208-24.613S173.149,299.427,173.149,299.427Z" transform="translate(-94.745 196.178)" fill="#fff"/><path d="M252.556,302.22V348.3H158.05V326.951s43.265-5.338,61.146-22.448Z" transform="translate(-123.978 202.667)" fill="#161515"/><path d="M174.834,331.922v-21.38s-18.8-.712-25.324,21.38Z" transform="translate(-140.762 219.017)" fill="#fff"/><rect width="119.86" height="8.095" transform="translate(8.748 550.939)" fill="#efefef"/><path d="M190.421,305.771s-14.263,12.247-13.819,25.947l-4.923,2.7s1.572-23.16,18.741-31.967l1.957,1.6Z" transform="translate(-97.19 203.119)" fill="#fff"/><path d="M177.1,303.516s-1.068,20.609,1.275,24.85l3.173-.356s-2.046-23.723.208-24.642S177.1,303.516,177.1,303.516Z" transform="translate(-87.013 204.188)" fill="#fff"/><path d="M197.886,209.045a44.214,44.214,0,0,1,21.173,34.339l34.962-24.375L218.91,170.94l-26.54,25.117Z" transform="translate(-56.526 -55.348)" fill="#f7e2c6"/><path d="M186.056,143.478s-25.8,27.993-2.224,68.2c0,0,11.862,28.557,5.664,39.41l16.784,11.862s3.588,8.184,5.931,8.689,2.965,4.685,2.965,4.685,8.57,10.764,9.222,14.649c0,0,35.021-14.174,61.027-57.054,0,0,43.472-57.2-17.792-87.271C267.574,146.68,236.141,119.755,186.056,143.478Z" transform="translate(-92.824 -128.53)" fill="#f7e2c6"/><path d="M370.732,233.59s42.464,88.339.474,97.175-140.559-6.109-144.147-6.109-2.58,66.9-10.438,102.869H174.306s-8.9-126.3,11.12-137.5,96.345-30.929,96.345-30.929Z" transform="translate(-95.901 67.783)" fill="#1e1c1c"/><path d="M373.331,237.77s42.464,88.339.5,97.175-140.588-6.109-144.176-6.109-2.58,66.9-10.438,102.869H176.994s-8.9-126.3,11.15-137.5,96.315-30.929,96.315-30.929Z" transform="translate(-90.612 75.998)" fill="#282625"/><path d="M185.722,200.15,222.4,227.758l-6.85,12.87-32.2-38.283Z" transform="translate(-74.254 2.061)" fill="#b77e46"/><path d="M207.437,208.838s-7.68,50.738-12.217,54.385c0,0,3.914,34.606,29.268,50.085,0,0,19.779,37.364,20.283,49.2,0,0,97.086-17.318,88.961-25.5-5.931-5.931-19.809-54-27.519-81.666a109.1,109.1,0,0,0-17.585-35.94L264.758,187.28Z" transform="translate(-50.925 -23.234)" fill="#d89e50"/><path d="M200.638,255.355s-13.611,49.166,1.572,72.533c0,0-8.214-43.917,14.026-60.019s51.3-62.273,49.907-77.1c-1.512-16.191-52.457-19.779-52.457-19.779Z" transform="translate(-51.301 -55.249)" fill="#4f3c33"/><path d="M205.229,214.514s-8.511-20.372-11.565-20.372c0,0-18.5-2.491-21.173,10.853s15.064,28.349,15.064,28.349Z" transform="translate(-96.133 -10.109)" fill="#f7e2c6"/><path d="M280.4,193.6l-35.021,77.1s-36.86-37.809-50.233-45.667l-17.792,18.83s48.543,66.187,86.233,68.559c0,0,42.464-75.914,44.807-100.823C308.508,211.572,313.253,175.6,280.4,193.6Z" transform="translate(-86.046 -20.719)" fill="#ca914f"/><path d="M200.169,187.829s-17.97,2.965-12.484,20.313c0,0,9.934,17.14,10.616,31.967,0,0-22.982-18.385-25.087-35.881a56.342,56.342,0,0,1,19.364-63.489s33.331-18.682,70.339-1.542Z" transform="translate(-100.296 -131.959)" fill="#4f3c33"/><path d="M181.8,177.922s67.611,49.611,46.556,164.282c0,0,40.655-53.2,33.271-111.35A180.888,180.888,0,0,0,220.708,137S167.806,163.3,181.8,177.922Z" transform="translate(-81.929 -122.052)" fill="#4f3c33"/><path d="M220.523,134.581s75.35,19.6,57.291,127.185c0,0-25.443,48.6-36.741,60.464,0,0,15.657-52.28,7.265-86s-24.494-42.316-24.494-42.316L191.67,143.507S198.164,132.446,220.523,134.581Z" transform="translate(-57.902 -127.344)" fill="#4f3c33"/><path d="M211.536,177.813s14.827,88.961,12.692,100.645c0,0,16.161-8.392,19.809-22.893s10.913-85.4-7.354-98.332-39.232,3.855-39.232,3.855Z" transform="translate(-46.542 -91.904)" fill="#4f3c33"/><path d="M235.1,155.36s34.309,123.478,36.207,150.76a115.473,115.473,0,0,1-5.486,46.141s-7.621-85.492-52.665-98.45Z" transform="translate(-15.666 -85.968)" fill="#4f3c33"/></g><g transform="translate(224.994 433.332)"><rect width="22.092" height="262.139" fill="#281b15"/><rect width="195.003" height="41.723" fill="#281b15"/><rect width="22.092" height="262.139" transform="translate(173.089)" fill="#281b15"/></g><g transform="translate(430.079 255.44)"><rect width="18.919" height="295.915" transform="translate(177.596)" fill="#281b15"/><rect width="18.919" height="154.199" transform="translate(177.596 281.355)" fill="#281b15"/><rect width="18.919" height="154.199" transform="translate(0 281.355)" fill="#281b15"/><rect width="196.159" height="20.995" transform="translate(0.356 281.355)" fill="#281b15"/></g><path d="M295.353,341.17c.267-1.779-7.147-17.229-7.147-17.229L281.8,312.08v18.534l2.016,2.372c9.43,9.282.3,14.827.3,14.827-20.372,9.1-25.947-6.731-25.947-6.731-11.12-11.061-9.815,1.927-9.815,1.927s6.82,18.919,29.3,13.641C298.555,351.668,295.115,342.949,295.353,341.17Z" transform="translate(344.794 354.005)" fill="#19100c"/></g></svg>