<svg xmlns="http://www.w3.org/2000/svg" width="812" height="807.111" viewBox="0 0 812 807.111"><path d="M465.527,608.079a11.14,11.14,0,0,0-16.972-1.932L413.379,587.99l2.186,20.455,33.07,14.105a11.2,11.2,0,0,0,16.892-14.472Z" transform="translate(-214.114 -31.573)" fill="#ffd3b8"/><path d="M440.446,623.537a4.99,4.99,0,0,1-4.065.043l-33.413-14.495a51.371,51.371,0,0,1-25.991-25.143L359.41,546.865a16.06,16.06,0,0,1,25.369-19.7l30.876,57.287,28.51,21.537a5,5,0,0,1,1.757,5.452l-2.8,9.039a4.991,4.991,0,0,1-1.688,2.449,4.927,4.927,0,0,1-.991.608Z" transform="translate(-220.294 -38.798)" fill="#731414"/><circle cx="27.208" cy="27.208" r="27.208" transform="translate(111.137 410.044)" fill="#ffd3b8"/><path d="M134.833,722h13.582l6.46-52.385H134.831Z" transform="translate(14.531 72.17)" fill="#ffd3b8"/><path d="M0,0H42.683V16.491H16.491A16.491,16.491,0,0,1,0,0Z" transform="translate(189.135 806.784) rotate(179.997)" fill="#0d0d0d"/><path d="M94.833,722h13.582l6.46-52.385H94.831Z" transform="translate(10.221 72.17)" fill="#ffd3b8"/><path d="M0,0H42.683V16.491H16.491A16.491,16.491,0,0,1,0,0Z" transform="translate(144.824 806.784) rotate(179.997)" fill="#0d0d0d"/><path d="M324.173,806.813a4.984,4.984,0,0,1-1.19-3.942l23.783-178.336,59.077,10.032,6.3-3.783-16.311,169.2a5,5,0,0,1-4.538,4.392l-17.887,1.494a4.984,4.984,0,0,1-5.391-5.253l4.632-80.583a.554.554,0,0,0-1.088-.178l-22.913,84.968a4.993,4.993,0,0,1-4.813,3.688H327.923a4.984,4.984,0,0,1-3.752-1.7Z" transform="translate(-223.861 -27.635)" fill="#0d0d0d"/><path d="M364.96,648.989a3.913,3.913,0,0,0-5-.209l-11.811,9.187a4.981,4.981,0,0,1-7.851-2.555c-5.793-20.289-18.919-71.361-15.685-107.307,1.833-20.374,19.427-35.86,39.221-34.56,13.533.9,22.435,8.709,26.461,23.2,9.885,35.584,20.747,100.856,22.823,113.58a4.963,4.963,0,0,1-2.366,5.083,36.488,36.488,0,0,1-18.491,5.2C384.37,660.614,374.909,657.868,364.96,648.989Z" transform="translate(-223.735 -39.605)" fill="#731414"/><path d="M368.854,651.9a11.14,11.14,0,0,0-12.162-11.994l-16.474-36-10.9,17.445,17.316,31.507a11.2,11.2,0,0,0,22.222-.961Z" transform="translate(-223.173 -29.857)" fill="#ffd3b8"/><path d="M340.821,647.958a4.991,4.991,0,0,1-3.225-2.474l-17.346-32.03a51.372,51.372,0,0,1-4.934-35.824l9.059-40.016a16.059,16.059,0,1,1,32.117.157L345.434,601.9l9.143,34.541a5,5,0,0,1-1.981,5.374l-7.78,5.385a4.987,4.987,0,0,1-4,.75Z" transform="translate(-224.819 -38.725)" fill="#731414"/><path d="M117.839,474.908l-9.97,42.1,14.4,35.449-9.97-34.341Z" transform="translate(11.626 51.184)" opacity="0.2"/><path d="M358.2,510.884a27.1,27.1,0,0,1-24.342-15.317,29.7,29.7,0,0,1,2.677-29.627,26.586,26.586,0,0,1,26.652-10.253c5.488-3.493,11.869-5.844,18.258-5.246s12.719,4.578,15.111,10.824-.178,14.479-6.126,17.017c-3.813,1.628-8.118.841-12.185.181s-8.507-1.081-12.047,1.116-5.133,8.1-1.962,10.852a11.8,11.8,0,0,1,3.134,12.59C365.791,507.341,361.44,510.811,358.2,510.884Z" transform="translate(-222.981 -46.407)" fill="#0d0d0d"/><path d="M865.045,277.293h-4.43V155.943A70.236,70.236,0,0,0,790.38,85.707H533.28a70.236,70.236,0,0,0-70.236,70.236V821.687a70.236,70.236,0,0,0,70.236,70.236h257.1a70.236,70.236,0,0,0,70.235-70.234V363.676h4.43Z" transform="translate(-208.761 -85.707)" fill="#e6e6e6"/><path d="M843.78,154.654V819.421a52.453,52.453,0,0,1-52.452,52.453H532.993a52.453,52.453,0,0,1-52.453-52.447V154.654A52.454,52.454,0,0,1,532.992,102.2h31.343a24.932,24.932,0,0,0,23.075,34.33H734.7a24.933,24.933,0,0,0,23.075-34.33h33.555a52.454,52.454,0,0,1,52.453,52.451Z" transform="translate(-206.876 -83.93)" fill="#fff"/><path d="M810.246,438.564a13.439,13.439,0,0,0-12.62-8.873H520.887A13.4,13.4,0,0,0,507.478,443.1V655.469a13.428,13.428,0,0,0,13.409,13.409H797.626a13.428,13.428,0,0,0,13.409-13.409V443.1a13.31,13.31,0,0,0-.789-4.536Z" transform="translate(-203.972 -48.634)" fill="#cecece"/><path d="M810.246,197.761a13.439,13.439,0,0,0-12.62-8.873H520.887A13.4,13.4,0,0,0,507.478,202.3V414.666a13.428,13.428,0,0,0,13.409,13.409H797.626a13.428,13.428,0,0,0,13.409-13.409V202.3a13.309,13.309,0,0,0-.789-4.536Z" transform="translate(-203.972 -74.587)" fill="#fff"/><path d="M810.246,197.761a13.439,13.439,0,0,0-12.62-8.873H520.887A13.4,13.4,0,0,0,507.478,202.3V414.666a13.428,13.428,0,0,0,13.409,13.409H797.626a13.428,13.428,0,0,0,13.409-13.409V202.3a13.309,13.309,0,0,0-.789-4.536Zm-.789,216.9a11.846,11.846,0,0,1-11.832,11.832H520.887a11.846,11.846,0,0,1-11.832-11.832V202.293a11.846,11.846,0,0,1,11.832-11.832h276.74a11.846,11.846,0,0,1,11.832,11.832Z" transform="translate(-203.972 -74.587)" fill="#313131"/><path d="M787.452,215.046V363.335a3.732,3.732,0,0,1-3.731,3.733H531.989a3.148,3.148,0,0,1-.534-.042,3.73,3.73,0,0,1-3.2-3.691V215.046a3.732,3.732,0,0,1,3.731-3.733H783.719a3.732,3.732,0,0,1,3.733,3.731Z" transform="translate(-201.732 -72.169)" fill="#e6e6e6"/><circle cx="32.753" cy="32.753" r="32.753" transform="translate(357.225 161.807)" fill="#731414"/><path d="M693.946,365.526H533.268a3.273,3.273,0,0,1-.6-.048l75.993-131.63a5.321,5.321,0,0,1,9.262,0l51,88.335,2.443,4.227Z" transform="translate(-201.257 -70.032)" fill="#313131"/><path d="M450.087,270.96H395.233l26.931-39.118,1.939-2.817.969-1.409,2.443,4.226Z" transform="translate(42.597 24.532)" opacity="0.2" style="isolation:isolate"/><path d="M772.537,361.751H633.56l26.93-39.118,1.938-2.818,35.093-50.977c2.3-3.34,7.835-3.549,10.54-.631a6.357,6.357,0,0,1,.506.631Z" transform="translate(-190.383 -66.258)" fill="#313131"/><path d="M745.662,449.761a13.439,13.439,0,0,0-12.62-8.873H456.3A13.4,13.4,0,0,0,442.894,454.3V666.666A13.428,13.428,0,0,0,456.3,680.075H733.041a13.428,13.428,0,0,0,13.409-13.409V454.3a13.306,13.306,0,0,0-.789-4.536Z" transform="translate(-210.932 -47.427)" fill="#fff"/><path d="M745.662,449.761a13.439,13.439,0,0,0-12.62-8.873H456.3A13.4,13.4,0,0,0,442.894,454.3V666.666A13.428,13.428,0,0,0,456.3,680.075H733.041a13.428,13.428,0,0,0,13.409-13.409V454.3a13.306,13.306,0,0,0-.789-4.536Zm-.783,216.9a11.846,11.846,0,0,1-11.832,11.832H456.3a11.846,11.846,0,0,1-11.832-11.832V454.293A11.846,11.846,0,0,1,456.3,442.462H733.041a11.846,11.846,0,0,1,11.832,11.832Z" transform="translate(-210.932 -47.427)" fill="#313131"/><path d="M722.868,467.046V615.335a3.732,3.732,0,0,1-3.731,3.733H467.405a3.149,3.149,0,0,1-.535-.042,3.73,3.73,0,0,1-3.2-3.691V467.046a3.732,3.732,0,0,1,3.731-3.733H719.135a3.732,3.732,0,0,1,3.733,3.731Z" transform="translate(-208.693 -45.011)" fill="#e6e6e6"/><circle cx="32.753" cy="32.753" r="32.753" transform="translate(285.68 440.966)" fill="#731414"/><path d="M629.361,617.526H468.684a3.263,3.263,0,0,1-.6-.048l75.993-131.63a5.321,5.321,0,0,1,9.262,0l51,88.335,2.443,4.227Z" transform="translate(-208.218 -42.873)" fill="#313131"/><path d="M385.507,522.96H330.648l26.931-39.118,1.939-2.817.969-1.409,2.443,4.226Z" transform="translate(35.636 51.691)" opacity="0.2" style="isolation:isolate"/><path d="M707.952,613.751H568.975l26.931-39.118,1.937-2.818,35.093-50.977c2.3-3.34,7.835-3.549,10.54-.631a6.356,6.356,0,0,1,.506.631Z" transform="translate(-197.344 -39.098)" fill="#313131"/><path d="M614.091,733.281H534.333a20.494,20.494,0,1,1,0-40.988h79.759a20.494,20.494,0,1,1,0,40.988Z" transform="translate(-203.286 -20.332)" fill="#731414"/><path d="M757.175,733.281H677.416a20.494,20.494,0,0,1,0-40.988h79.759a20.494,20.494,0,1,1,0,40.988Z" transform="translate(-187.865 -20.332)" fill="#cecece"/><path d="M1044.393,814.509H234.608a1.107,1.107,0,1,1,0-2.215h809.785a1.107,1.107,0,0,1,0,2.215Z" transform="translate(-233.5 -7.398)" fill="#313131"/></svg>