<svg xmlns="http://www.w3.org/2000/svg" xmlns:xlink="http://www.w3.org/1999/xlink" width="631.96" height="470.355" viewBox="0 0 631.96 470.355"><defs><linearGradient id="a" x1="0.306" y1="0.723" x2="0.802" y2="-0.157" gradientUnits="objectBoundingBox"><stop offset="0" stop-color="#fff" stop-opacity="0"/><stop offset="1" stop-color="#d7b344"/></linearGradient><linearGradient id="b" x1="0.215" y1="0.765" x2="0.588" y2="0.314" xlink:href="#a"/><linearGradient id="c" x1="0.306" y1="0.723" x2="0.803" y2="-0.157" xlink:href="#a"/></defs><g transform="translate(17.532 35.13)"><g transform="translate(-17.532 -35.13)"><path d="M322.083,440.489,27.757,266.537c-9.372-5.255-17.4-13.907-8.275-19.553L314.866,76.734c4.436-2.747,11.159-4.539,15.663-1.928L639.494,254.112c9.372,5.442,11.063,20.646,1.705,26.088L360.883,440.215A39.142,39.142,0,0,1,322.083,440.489Z" transform="translate(-15.468 24.856)" fill="#d7b344"/><path d="M242.853,244.574c-1.092-1.4-44.25-11.33-45.386-12.694L136.35,259.06l7.8,4.812c7.747,5.494,34.807,20.014,42.655,25.321l33.664-19.57C220.075,267.66,238.963,249.608,242.853,244.574Z" transform="translate(69.903 136.686)" opacity="0.63" fill="url(#a)"/><path d="M343.629,205.73l-55.76,2L226,239.889c9.692,6.825,38.22,28.1,48.065,34.74l58.335-37.14C331.685,234.361,343.987,208.921,343.629,205.73Z" transform="translate(133.217 118.217)" opacity="0.63" fill="url(#b)"/><path d="M213.516,156.73a20.475,20.475,0,0,1,10.937,19.605c-.581,14.452-24.382.341-30.712-11.842s-7.32,5.118-7.32,5.118" transform="translate(105.265 83.611)" fill="#297600"/><path d="M197.516,153.772a43.1,43.1,0,0,1,13.214,1.844,32.06,32.06,0,0,1,8.225,3.208,26.518,26.518,0,0,1-4.763,2.526c-2.985,1.211-6.109,2.713-7.695,5.511a10.973,10.973,0,0,0-.922,2.166c-1.45,4.763-.2,10.511-2.151,15.355s-5.955,8.991-11.568,9.333c-6.705.41-9.777-6.023-11.107-11.6s-3.139-13.189-1.023-18.9C182.194,156.486,191.116,154.165,197.516,153.772Z" transform="translate(99.851 81.519)" fill="#8fdb5e"/><path d="M185.88,176.012c2.815-9.128,8.787-17.745,17.516-21.772h.273l.41.137,1.587.41c-10.237,3.77-16.568,13.8-19.178,24.058-3.412,13.121-2.219,27.3-2.252,40.716a.7.7,0,0,1-1.4,0C182.928,205.223,181.616,189.866,185.88,176.012Z" transform="translate(102.649 81.853)" fill="#297600"/><path d="M157.47,230.189c1.143.221,21.6-5.461,21.6-5.461v-5L157.47,222" transform="translate(84.819 128.104)" fill="#9e624a"/><path d="M170.124,224.548v10.237a2.508,2.508,0,1,0,5,0V224.31Z" transform="translate(93.75 131.339)" fill="#9e624a"/><path d="M159,191.87v47.552s6.006,16.141,32.129,15,32.129-13.275,32.845-15.355,0-48.354,0-48.354" transform="translate(85.9 107.61)" fill="#68e1fd"/><ellipse cx="32.487" cy="18.957" rx="32.487" ry="18.957" transform="translate(244.883 279.432)" fill="#68e1fd"/><ellipse cx="32.487" cy="18.957" rx="32.487" ry="18.957" transform="translate(244.883 279.432)" fill="#fff" opacity="0.43"/><ellipse cx="28.614" cy="16.704" rx="28.614" ry="16.704" transform="translate(248.756 280.864)" fill="#6d3623"/><rect width="6.552" height="74.102" rx="1.92" transform="translate(282.982 332.906)" fill="#9e624a"/><rect width="5" height="74.102" rx="1.47" transform="translate(309.55 307.772)" fill="#9e624a"/><rect width="5" height="74.102" rx="1.47" transform="translate(239.782 318.743)" fill="#9e624a"/><path d="M157.237,147.66A20.475,20.475,0,0,0,146.3,167.265c.581,14.452,24.382.341,30.712-11.842s7.32,5.118,7.32,5.118" transform="translate(76.894 77.206)" fill="#297600"/><path d="M174.121,144.712a43.1,43.1,0,0,0-13.214,1.844,32.062,32.062,0,0,0-8.217,3.211,26.513,26.513,0,0,0,4.763,2.526c2.985,1.211,6.109,2.713,7.695,5.511a10.967,10.967,0,0,1,.922,2.166c1.45,4.763.2,10.511,2.151,15.355s5.955,8.991,11.568,9.333c6.705.41,9.777-6.023,11.107-11.6s3.139-13.189,1.023-18.9C189.442,147.426,180.515,145.019,174.121,144.712Z" transform="translate(81.443 75.12)" fill="#8fdb5e"/><path d="M178.6,166.932c-2.815-9.128-8.787-17.745-17.516-21.772h-.257l-.41.137-1.587.41c10.237,3.77,16.568,13.8,19.178,24.058,3.412,13.121,2.219,27.3,2.252,40.716a.7.7,0,0,0,1.4,0C181.556,196.177,182.886,180.8,178.6,166.932Z" transform="translate(85.781 75.441)" fill="#297600"/><path d="M198.955,173.33a13.393,13.393,0,0,1,7.166,12.848c-.375,9.469-15.97.221-20.117-7.764s-4.794,3.413-4.794,3.413" transform="translate(101.585 95.334)" fill="#297600"/><path d="M188.516,171.4a28.22,28.22,0,0,1,8.65,1.194,20.984,20.984,0,0,1,5.378,2.1,17.362,17.362,0,0,1-3.122,1.707,9.469,9.469,0,0,0-5.118,3.617,7.187,7.187,0,0,0-.6,1.417c-.956,3.105-.137,6.825-1.4,10.016a8.941,8.941,0,0,1-7.576,6.126c-4.385.273-6.4-3.958-7.286-7.61s-2.065-8.633-.665-12.387C178.483,173.176,184.438,171.589,188.516,171.4Z" transform="translate(97.999 93.97)" fill="#5fad00"/><path d="M180.852,185.955c1.844-5.972,5.749-11.619,11.467-14.265h.221l.273.086,1.04.273C187.2,174.523,183,181.093,181.3,187.8c-2.183,8.53-1.45,17.881-1.467,26.668a.461.461,0,1,1-.922,0C178.925,205.1,178.054,195.049,180.852,185.955Z" transform="translate(99.878 94.176)" fill="#297600"/><path d="M168.141,179.486c1.859-.768,4.436-3.293,6.688-3.227a26.36,26.36,0,0,1,1.364,6.688,60.744,60.744,0,0,1,.257,11.176,15.026,15.026,0,0,1-.2,2.474,1.979,1.979,0,0,1-.187.7v8.633a.273.273,0,0,1-.545,0v-8.309a12.234,12.234,0,0,1-2.526-1.16,8.531,8.531,0,0,1-3.549-4.47c-1.417-3.958-.529-8.4-1.878-12.319Z" transform="translate(91.945 97.403)" fill="#297600"/><path d="M174.843,174.8a6.914,6.914,0,0,1,2.526,2.577,4.318,4.318,0,0,1,.392.768v.171h0a11.524,11.524,0,0,1,.427,1.364,1.706,1.706,0,0,0-.939-.733,2.337,2.337,0,0,0-1.467-.137,6.159,6.159,0,0,0-1.347.716c-.632.375-1.229.8-1.859,1.194-2.919,1.859-6.825,2.048-9.077-.665v-.324C163.155,177.887,168.376,171.045,174.843,174.8Z" transform="translate(89.064 95.59)" fill="#5fad00"/><path d="M164.447,180.42l-.358-.238a.256.256,0,0,1,0-.2,17.148,17.148,0,0,1,6.074-4.488,10.408,10.408,0,0,1,5.425-.529,7.916,7.916,0,0,1,.545.716,9.435,9.435,0,0,0-6.244.512,17.454,17.454,0,0,0-5.425,4.181Z" transform="translate(89.479 96.383)" fill="#297600"/><path d="M258.036,114.327c-2.884-8.958-12.353-15.151-19.4-6.227-2.183,2.766,1.705,6.705,3.907,3.907,5.92-7.49,10.732,3.055,11.107,8.53.307,4.436-.768,10.067-5.478,11.808-3.31,1.229-1.878,6.587,1.467,5.341C258.992,134.17,260.8,122.943,258.036,114.327Z" transform="translate(141.687 46.198)" fill="#5d705d"/><path d="M251.533,104.1s19.025,32.88,16.244,45.9-21.818,20.235-35.114,18.052S220,125.087,220,125.087" transform="translate(128.978 46.442)" fill="#408e46"/><path d="M274.587,95.5s-13.65,12.574-17.762,12.574-13.24-8.53-15.578-5.358c-4.763,6.28,9.846,5.358,7.934,8.36s-8.758,5.358-7.115,10.237,9.846,11.943,13.94,9.486,4.917-9.3,9.846-11.756,38.565-22.18,38.565-22.18" transform="translate(143.308 40.369)" fill="#ffc388"/><path d="M210.412,102.181a59.463,59.463,0,0,1,6.453-7.2,53.183,53.183,0,0,0-6.979,6.825c-2.269,2.526-5.869-1.348-3.6-3.857l1.143-1.229A2.747,2.747,0,0,1,206,92.165,51.8,51.8,0,0,1,224.305,80.05a44,44,0,0,1-4.9-6.347,2.337,2.337,0,0,1-.375-1.3c-.922-2.166,2.32-4.675,4.539-2.713,3.227,2.85,5.749,6.364,8.941,9.179a16.637,16.637,0,0,0,1.844,1.4q6.986.9,13.94,2.013c3.276.529,1.911,5.358-1.246,5.118a3.122,3.122,0,0,1-.375,1.792l.632.154a2.354,2.354,0,0,1,1.705,1.705h.529c3.412.341,3.276,5.631-.12,5.29l-1.194-.137a2.116,2.116,0,0,1-2.952,1.263,24.891,24.891,0,0,0-11.5-1.246l-1.246.086a33.459,33.459,0,0,0-8.019,4.215c-1.4,1.859-2.713,3.787-4.01,5.716-1.825,2.73-6.04.238-4.623-2.491-.307.375-.631.751-.922,1.143C212.886,107.64,208.364,104.842,210.412,102.181Z" transform="translate(118.572 21.642)" fill="#ffc388"/><path d="M206.162,88.037a58.461,58.461,0,0,1,7.9-6.979c.7-.512,1.705.478.922.99a58.455,58.455,0,0,0-7.917,6.945C206.48,89.591,205.558,88.669,206.162,88.037Z" transform="translate(119.069 30.068)" fill="#663a12"/><path d="M207.887,90.933a72.414,72.414,0,0,1,8.242-7.61c.682-.529,1.6.444.922.99a72.414,72.414,0,0,0-8.242,7.61C208.211,92.554,207.308,91.565,207.887,90.933Z" transform="translate(120.294 31.66)" fill="#663a12"/><path d="M215.31,85.472c2.44-3.841,6.552-5.378,10.92-5.8.87,0,.819,1.263,0,1.347a12.292,12.292,0,0,0-9.726,5.118.684.684,0,1,1-1.194-.665Z" transform="translate(125.6 29.188)" fill="#663a12"/><path d="M214.782,87.5c-1.383-2.815-2.2-5.955-.6-8.855.41-.768,1.57,0,1.143.7-1.348,2.458-.512,5.118.648,7.529C216.351,87.646,215.174,88.295,214.782,87.5Z" transform="translate(124.25 28.242)" fill="#663a12"/><path d="M210.513,92.335A28.578,28.578,0,0,1,215.8,85.1c.615-.615,1.536.375.922.99a27.4,27.4,0,0,0-5.113,6.951C211.281,93.819,210.121,93.1,210.513,92.335Z" transform="translate(122.224 32.886)" fill="#663a12"/><path d="M292.971,44s-19.206,36-25.352,40.335-44.857,12.558-44.857,12.558l1.894,22.966s40.66-2.1,56.305-10.238A138.529,138.529,0,0,0,309.8,88.908" transform="translate(130.93 3.997)" fill="#68e1fd"/><path d="M292.971,44s-19.206,36-25.352,40.335-44.857,12.558-44.857,12.558l1.894,22.966s40.66-2.1,56.305-10.238A138.529,138.529,0,0,0,309.8,88.908" transform="translate(130.93 3.997)" fill="#606060" opacity="0.27"/><path d="M291.451,198.6s1.707,17.267-.324,18.5-13.65,19.229-14.435,21.971c-2.337,9.094,14.349,11.739,20,8.3s14.231-20.85,14.606-25.115,3.227-30.491,3.227-30.491" transform="translate(168.861 108.351)" fill="#5c2d1d"/><path d="M280.029,190.825s1.707,17.267-.324,18.5-22.351,15.492-23.222,18.172c-2.781,8.53,14.077,10.357,19.724,6.825s23.307-15.68,23.662-19.93S303.094,184,303.094,184" transform="translate(154.53 102.87)" fill="#5c2d1d"/><path d="M324.562,89.676s12.319,6.914,11.943,24.467-5.6,169.072-16.909,168.526-17.881,1.553-24.877-12.661c0,0-18.5,5.716-25.593-8.77,0,0-.819-144.5,8.309-165.71S324.562,89.676,324.562,89.676Z" transform="translate(163.663 32.46)" fill="#ffc8c5"/><path d="M299.994,41.092c1.434.238,11.295,6.621,19.246,13.65s21.909,74.9,14.111,78.487-36.769,12.61-50.266,2.952S259.9,53.736,264.318,47.866c10.237-13.463,21.892-8.53,21.892-8.53" transform="translate(159.516 0.08)" fill="#68e1fd"/><path d="M283.705,113.239c0-1.808,2.85-2.03,2.815-.221l-2.354,137.574c0,1.808-2.85,2.031-2.815.221Z" transform="translate(172.308 51.857)" fill="#663a12"/><path d="M290.918,35.48v14.4s-2.423,5.358-11.943,5.358a5.869,5.869,0,0,1-5.819-5.033l-1.705-12.063" transform="translate(165.317 -2.02)" fill="#eaa15e"/><path d="M266.123,34.056s.154,24.229,9.372,27.4,17.4-6.962,19.513-12.524,1.705-32.18-14.3-28.306S266.123,34.056,266.123,34.056Z" transform="translate(161.532 -12.78)" fill="#ffc388"/><path d="M267.213,21.468c6.3-3.156,13.292-9.094,26.02-2.867s16.6,28.835,3.242,35.83l-1.092-8.941a7.9,7.9,0,0,0,.922-5.716,4.573,4.573,0,0,0-5.992-3.534,11.944,11.944,0,0,1-4.01-3.669c-2.985-4.385-5.358-1.705-8.3,2.884s-10.237,6.825-14.2,4.675S259.228,25.476,267.213,21.468Z" transform="translate(157.917 -15.87)" fill="#663a12"/><path d="M324.239,50.509s2.781,50.3-2.661,57.432-53.3,43.236-53.3,43.236-12.49-12.574-12.08-17.182,42.929-38.988,42.929-38.988-6.313-37.537-1.859-44.447S316,41.278,324.239,50.509Z" transform="translate(154.536 4.314)" fill="#68e1fd"/><path d="M324.239,50.509s2.781,50.3-2.661,57.432-53.3,43.236-53.3,43.236-12.49-12.574-12.08-17.182,42.929-38.988,42.929-38.988-6.313-37.537-1.859-44.447S316,41.278,324.239,50.509Z" transform="translate(154.536 4.314)" fill="#606060" opacity="0.27"/><ellipse cx="19.946" cy="10.818" rx="19.946" ry="10.818" transform="translate(343.372 168.656) rotate(-41.19)" fill="#55be5f"/><path d="M238.746,140.055l-23.018,8.958-2.389-8.958L238.746,123S250.554,135.507,238.746,140.055Z" transform="translate(124.276 59.79)" fill="#55be5f"/><ellipse cx="7.149" cy="8.633" rx="7.149" ry="8.633" transform="translate(325.245 201.853) rotate(-25.84)" fill="#5d705d"/><path d="M73.85,178.485c1.417.29,26.839-6.825,26.839-6.825v-6.21L73.85,168.282" transform="translate(25.764 89.77)" fill="#9e624a"/><path d="M89.58,171.488v12.661a3.105,3.105,0,1,0,6.21,0V171.13C93.708,171.216,91.645,171.334,89.58,171.488Z" transform="translate(36.873 93.781)" fill="#9e624a"/><path d="M75.74,130.815V189.9s7.456,20.048,39.927,18.633,39.927-16.5,40.813-18.991,0-60.094,0-60.094" transform="translate(27.098 64.345)" fill="#68e1fd"/><ellipse cx="40.369" cy="23.563" rx="40.369" ry="23.563" transform="translate(102.838 170.249)" fill="#68e1fd"/><ellipse cx="40.369" cy="23.563" rx="40.369" ry="23.563" transform="translate(102.838 170.249)" fill="#fff" opacity="0.43"/><ellipse cx="35.575" cy="20.765" rx="35.575" ry="20.765" transform="translate(107.633 172.04)" fill="#6d3623"/><rect width="8.139" height="92.085" rx="1.92" transform="translate(150.187 236.707)" fill="#9e624a"/><rect width="6.21" height="92.085" rx="1.47" transform="translate(183.203 205.483)" fill="#9e624a"/><rect width="6.21" height="92.085" rx="1.47" transform="translate(96.507 219.116)" fill="#9e624a"/><path d="M64.89,75.5a30.609,30.609,0,0,1,14.9,2.919c4.966,2.458,8.189,7.1,10.511,11.943s3.31,11.688,8.071,14.793a14.008,14.008,0,0,1,4.726,4.095c2.048,3.139,3.227,7.917,1.467,11.431-2.116,4.231-10.937,6.825-14.964,6.057" transform="translate(19.436 26.208)" fill="#8fdb5e"/><path d="M73.6,75.79a31.529,31.529,0,0,0-4.47.751c-9.761,3.019-18.47,11.192-20.919,21.02a37.982,37.982,0,0,0-.187,17.932c1.143,4.763,3.958,13,9.777,13.367,7.848.478,10.391-6.825,12.882-12.906,2.372-5.733,5.118-12.677,11.37-15.05A16.9,16.9,0,0,1,100.168,105Z" transform="translate(6.833 26.449)" fill="#1e8c0e"/><path d="M106.5,107.9c-4.743-6.146-8.684-12.831-13.258-19.092-2.644-3.617-5.478-8.156-9.219-11.142C73.1,72.374,59.367,77.22,51.3,86.518c1.109.341,2.644.41,3.412.716a31.088,31.088,0,0,1,12.507,8.838c4.829,5.341,8.53,11.943,12.865,17.574,6.945,9.219,16.141,16.806,28.033,11.295C115.8,121.413,109.842,112.2,106.5,107.9Z" transform="translate(9.836 26.228)" fill="#8fdb5e"/><path d="M108.777,48.205S133.36,46.277,132.9,85.179,95.686,98.488,103.757,75.038" transform="translate(46.067 6.956)" fill="#1e8c0e"/><path d="M116.8,86.943c-.273-11.831,13.035-20.475,24.262-21.993-1.707-6.825-8.684-17.728-22.18-17.387-16.841.426-29.468,17.556-32.3,37.7s12.319,33,12.319,33l8.122,6.825C121.991,119.277,116.427,97.794,116.8,86.943Z" transform="translate(34.509 6.508)" fill="#8fdb5e"/><path d="M158.129,100.877a51.375,51.375,0,0,0-5.7-21.14,23.273,23.273,0,0,0-16-12.387L122.57,94.019s20.635-36.087,12.216-8.292,19.36,58.951,23.153,17.507C158.026,102.345,158.076,101.578,158.129,100.877Z" transform="translate(60.172 20.487)" fill="#1e8c0e"/><path d="M124.884,126.794c-3.77-9.111-10.818-16.738-13.035-26.566a34.687,34.687,0,0,1,13.8-35.4c2.065-1.5,0-4.966-2.013-3.412-17.25,12.558-20.589,33.971-10.6,52.194,3.122,5.648,7.2,11.073,9.094,17.3,2.474,8.143-.29,13.991-4.095,20.083,0-6.177-2.116-12.753-6.006-16.363-4.488-4.164-11.107-4.863-16.652-6.739-10.755-3.634-20.2-9.777-22.045-21.755-.392-2.526-4.231-1.45-3.857,1.059,1.5,9.793,7.934,16.806,16.6,21.26,5.118,2.627,10.629,3.737,16.022,5.579a18.65,18.65,0,0,1,10.562,10.322c2.543,5.869.819,9.9-.615,15.6-1.859,7.387-4.812,13.753.273,20.742,1.5,2.065,4.966,0,3.413-2.013-8.088-11.159,4.829-21.772,9.2-31.361a24.673,24.673,0,0,0-.051-20.526Z" transform="translate(22.658 16.02)" fill="#1e8c0e"/><path d="M150.733,85.407c-17.055-3-28.681,10.238-27.675,26.719a62.637,62.637,0,0,0,2.286,12.233c.768,2.9,2.747,7.764,2.252,10.612-.973,5.531-5.118,9.219-9.76,11.4-7.406,3.5-12.166,7.695-14.383,15.816a2,2,0,1,0,3.857,1.059c3.941-14.452,24.144-12.37,24.276-28.271,0-7.764-4.061-15.067-4.539-22.847-.836-13.65,8.036-25.439,22.625-22.881C152.212,89.689,153.253,85.85,150.733,85.407Z" transform="translate(46.619 32.938)" fill="#1e8c0e"/><path d="M161.042,79.9c-6.607-12.2-18.616-15.05-30.405-11.414a38.781,38.781,0,0,0-4.743,2.3c-29.637,21.942-8.53,71.509-4.027,71.115,15.168-1.246,13.463-10.084,18.581-34.978,3.583-17.591,18.13-19.844,23.58-19.86a43.9,43.9,0,0,0-2.985-7.168Z" transform="translate(51.558 20.25)" fill="#8fdb5e"/><path d="M150.106,69.953a24.706,24.706,0,0,0-25.252,12.114c-10.835,18.12-8.343,39.243-6.825,59.206.187,2.543,4.181,2.56,3.995,0-1.04-14.452-3.088-28.75.853-42.929,1.928-6.962,4.231-14.69,9.81-19.667a20.475,20.475,0,0,1,22.3-3.2c-.512-.682-1.006-1.364-1.518-2.048C152.274,72.275,151.181,71.107,150.106,69.953Z" transform="translate(55.993 22.116)" fill="#1e8c0e"/><path d="M209.337,142.21a1.707,1.707,0,1,0,1.705,1.707A1.707,1.707,0,0,0,209.337,142.21Z" transform="translate(120.244 73.357)" fill="#fff"/><path d="M204.8,148.3a1.705,1.705,0,1,0,1.705,1.707A1.705,1.705,0,0,0,204.8,148.3Z" transform="translate(117.038 77.658)" fill="#fff"/><path d="M201.705,156a1.705,1.705,0,1,0,1.705,1.707A1.705,1.705,0,0,0,201.705,156Z" transform="translate(114.855 83.097)" fill="#fff"/><path d="M191.175,153.88a1.706,1.706,0,1,0,1.208.5A1.705,1.705,0,0,0,191.175,153.88Z" transform="translate(107.42 81.598)" fill="#fff"/><path d="M198.3,153a1.705,1.705,0,1,0,1.707,1.706A1.706,1.706,0,0,0,198.3,153Z" transform="translate(112.455 80.977)" fill="#fff"/><path d="M197.7,147.4a1.705,1.705,0,1,0,1.707,1.705A1.705,1.705,0,0,0,197.7,147.4Z" transform="translate(112.032 77.022)" fill="#fff"/><path d="M200.645,143.76a1.705,1.705,0,1,0,1.207.5,1.705,1.705,0,0,0-1.207-.5Z" transform="translate(114.107 74.451)" fill="#fff"/><path d="M206.486,138.31a1.705,1.705,0,1,0,1.705,1.705A1.706,1.706,0,0,0,206.486,138.31Z" transform="translate(118.232 70.603)" fill="#fff"/><path d="M191.306,148.69a1.705,1.705,0,1,0,1.705,1.705A1.705,1.705,0,0,0,191.306,148.69Z" transform="translate(107.511 77.934)" fill="#fff"/><path d="M184.945,160.24a1.705,1.705,0,1,0,1.707,1.705A1.705,1.705,0,0,0,184.945,160.24Z" transform="translate(103.02 86.09)" fill="#fff"/><path d="M190.265,167.12a1.706,1.706,0,1,0,1.208.5A1.705,1.705,0,0,0,190.265,167.12Z" transform="translate(106.776 90.949)" fill="#fff"/><path d="M194.7,161a1.705,1.705,0,1,0,1.208.5A1.705,1.705,0,0,0,194.7,161Z" transform="translate(109.913 86.627)" fill="#fff"/><path d="M199.086,167.77a1.705,1.705,0,1,0,1.706,1.707,1.706,1.706,0,0,0-1.706-1.707Z" transform="translate(113.006 91.408)" fill="#fff"/><path d="M186.245,175a1.705,1.705,0,1,0,1.705,1.705A1.705,1.705,0,0,0,186.245,175Z" transform="translate(103.937 96.515)" fill="#fff"/><path d="M180.706,177.5a1.705,1.705,0,1,0,1.706,1.707,1.705,1.705,0,0,0-1.706-1.707Z" transform="translate(100.025 98.28)" fill="#fff"/><path d="M182.865,167.25a1.705,1.705,0,1,0,1.707,1.705,1.705,1.705,0,0,0-1.707-1.705Z" transform="translate(101.551 91.042)" fill="#fff"/><path d="M175.995,169.19a1.706,1.706,0,1,0,1.207.5,1.706,1.706,0,0,0-1.207-.5Z" transform="translate(96.699 92.411)" fill="#fff"/><path d="M182.995,154.53a1.706,1.706,0,1,0,1.207.5,1.705,1.705,0,0,0-1.207-.5Z" transform="translate(101.642 82.058)" fill="#fff"/><path d="M178.2,162.06a1.705,1.705,0,1,0,1.705,1.705A1.705,1.705,0,0,0,178.2,162.06Z" transform="translate(98.252 87.376)" fill="#fff"/><path d="M179.789,194.929c-1.364-1.707-55.333-14.179-56.749-15.869L46.6,213.077l9.76,6.023c9.692,6.825,43.51,25.014,53.354,31.651l42.076-24.57C151.363,223.78,174.909,201.139,179.789,194.929Z" transform="translate(6.519 99.383)" opacity="0.63" fill="url(#c)"/></g></g></svg>