<svg xmlns="http://www.w3.org/2000/svg" width="341.063" height="343.723" viewBox="0 0 341.063 343.723"><ellipse cx="170.532" cy="24.159" rx="170.532" ry="24.159" transform="translate(0 295.406)" fill="#d6d6d6"/><path d="M334.7,57.35,300,145.666s13.878,31.541,61.821,13.878L371.914,78.8S364.975,36.533,334.7,57.35Z" transform="translate(-255.211 71.339)" fill="#1f1f1f"/><path d="M318.226,52.254s-17.663,146.983-13.878,186.725c3.785,39.111,165.277,44.789,181.048,0S447.545,49.1,447.545,49.1Z" transform="translate(-234.957 58.141)" fill="#2f2f2f"/><path d="M352.786,52.628,412.714,125.8s-3.154,34.065-54.882,32.172L323.768,84.169S317.459,42.534,352.786,52.628Z" transform="translate(-131.365 68.491)" fill="#1f1f1f"/><path d="M395.725,58.595S364.184,39.039,292.9,32.1l67.5,68.76Z" transform="translate(-292.9 -32.1)" fill="#99cb98"/><path d="M446.085,48.648s-58.036-35.957-121.119,0c0,0-48.574,52.359,0,96.517,41,36.588,85.162,6.939,85.162,6.939S519.261,114.254,446.085,48.648Z" transform="translate(-237.281 -29.092)" fill="#99cb98"/><path d="M324.7,44.8S359.4,30.288,430.679,34.7L353.087,92.109Z" transform="translate(-124.097 -22.718)" fill="#99cb98"/></svg>